<?xml version="1.0" standalone="no"?>
<!DOCTYPE svg PUBLIC "-//W3C//DTD SVG 1.1//EN" "http://www.w3.org/Graphics/SVG/1.1/DTD/svg11.dtd">
<svg xmlns="http://www.w3.org/2000/svg">
<defs >
<font id="GentiumBookBasic" horiz-adv-x="1045" ><font-face
    font-family="Gentium Book Basic"
    units-per-em="2048"
    panose-1="2 0 5 3 6 0 0 2 0 4"
    ascent="1790"
    descent="-580"
    alphabetic="0" />
<glyph unicode=" " glyph-name="space" horiz-adv-x="471" />
<glyph unicode="!" glyph-name="exclam" horiz-adv-x="582" d="M419 126Q419 90 407 60T375 7T326 -27T266 -40Q210 -40 181 -10T151 80Q151 116 163 146T197 198T246 233T305 246Q356 246 387 216T419 126ZM343 397Q324 383 304 375T259 358L230 379L173 1388Q193
1400 217 1413T267 1439T315 1462T357 1480L402 1453L343 397Z" />
<glyph unicode="&quot;" glyph-name="quotedbl" horiz-adv-x="900" d="M322 834Q314 830 301 826T273 819T243 815T216 813L153 1416Q164 1422 189 1432T241 1452T293 1470T329 1480L375 1457L322 834ZM695 834Q687 830 674 826T646 819T616 815T589 813L526 1416Q537
1422 562 1432T614 1452T667 1470T703 1480L748 1457L695 834Z" />
<glyph unicode="#" glyph-name="numbersign" horiz-adv-x="986" d="M825 966H977L1002 941Q1000 930 996 916T986 888T975 862T966 841H789L719 595H871L893 568Q891 558 887 545T878 518T869 492T860 470H683L598 170Q580 156 551 146T496 127L470 147L562 470H378L292
170Q274 156 246 146T192 127L166 147L258 470H104L82 495Q84 505 88 518T97 544L107 571Q112 585 117 595H293L364 841H213L188 865Q193 887 204 916T224 966H399L481 1251Q503 1267 530 1275T579 1292L608 1270L520 966H703L785 1251Q807 1267 834 1275T885 1292L912
1270L825 966ZM414 595H597L668 841H484L414 595Z" />
<glyph unicode="$" glyph-name="dollar" horiz-adv-x="986" d="M245 956Q245 920 260 893T301 843T363 803T440 769V1108Q387 1105 350 1091T290 1056T256 1009T245 956ZM732 322Q732 366 717 400T676 461T615 508T540 546V122Q577 128 612 144T673 185T716 245T732
322ZM540 -138Q522 -154 508 -161T469 -174L440 -150V-10Q348 -8 267 18T97 101Q90 106 87 137T84 209T88 292T100 363L153 359Q201 256 273 197T440 124V585Q377 608 315 633T203 695T124 782T93 909Q93 952 110 1000T167 1092T274 1167T440 1210V1351Q454 1359
461 1364T475 1372T488 1377T511 1384L540 1360V1214Q588 1212 634 1205T721 1184T793 1155T844 1119Q850 1112 843 1090T821 1041T790 990T760 953L711 961Q635 1068 540 1097V731Q604 707 667 679T780 610T861 513T892 375Q892 315 871 254T806 140T696 49T540
-3V-138Z" />
<glyph unicode="%" glyph-name="percent" horiz-adv-x="1439" d="M1207 289Q1207 361 1196 413T1165 500T1120 552T1066 569Q1043 569 1022 555T986 512T961 438T951 332Q951 186 989 118T1090 49Q1141 49 1174 108T1207 289ZM1371 309Q1371 240 1347 179T1282
71T1185 -3T1066 -30Q1003 -30 952 -3T863 70T806 178T785 309Q785 379 809 440T874 548T971 621T1090 648Q1154 648 1206 622T1295 549T1351 441T1371 309ZM363 14Q354 7 336 1T297 -12T257 -24T224 -33L200 1L1075 1192Q1088 1199 1105 1205T1142 1218T1179 1229T1212
1237L1240 1205L363 14ZM491 877Q491 949 480 1001T449 1088T404 1139T350 1156Q327 1156 306 1142T269 1099T244 1026T234 920Q234 774 272 706T373 637Q424 637 457 696T491 877ZM656 897Q656 828 632 767T567 659T469 585T350 558Q287 558 235 585T147 658T90
766T69 897Q69 966 92 1027T157 1135T254 1208T373 1235Q437 1235 489 1209T579 1136T636 1029T656 897Z" />
<glyph unicode="&amp;" glyph-name="ampersand" horiz-adv-x="1384" d="M462 1130Q462 1073 478 1013T523 888Q584 923 623 959T684 1032T715 1103T724 1171Q724 1206 715 1236T690 1288T649 1323T593 1336Q560 1336 536 1319T495 1273T470 1207T462 1130ZM543
94Q618 94 683 117T803 180Q753 230 702 288T601 410T506 542T422 681Q379 641 350 603T303 528T278 452T270 373Q270 303 293 251T355 164T442 112T543 94ZM1369 748Q1344 717 1317 691T1265 647Q1247 656 1225 663T1180 676T1136 685T1098 690Q1108 673 1114
658T1125 626T1130 589T1131 543Q1131 474 1100 396T1013 244Q1042 216 1070 192T1124 147Q1167 111 1214 101T1318 103L1329 50Q1286 31 1246 16T1172 -9T1114 -24T1079 -30Q1056 -30 1003 6T879 107Q800 45 705 8T503 -30Q406 -30 327 -6T192 67T106 186T75 352Q75
462 149 574T368 791Q337 864 320 934T302 1073Q302 1154 330 1223T406 1342T517 1421T649 1450Q716 1450 763 1430T840 1375T882 1297T896 1204Q896 1152 876 1101T820 1003T735 912T626 832L569 795Q604 732 646 670T736 547T833 430T933 322Q961 367 975 413T990
502Q990 544 977 580T941 642T890 683T832 698L808 728Q813 734 822 743T843 760T865 776T887 787H1343L1369 748Z" />
<glyph unicode="&apos;" glyph-name="quotesingle" horiz-adv-x="527" d="M322 834Q314 830 301 826T273 819T243 815T216 813L153 1416Q164 1422 189 1432T241 1452T293 1470T329 1480L375 1457L322 834Z" />
<glyph unicode="(" glyph-name="parenleft" horiz-adv-x="659" d="M586 -315Q469 -258 381 -164T234 52T146 319T116 623Q116 787 149 938T244 1217T392 1443T586 1600L625 1545Q562 1489 506 1403T407 1203T341 950T316 651Q316 505 336 369T396 115T492 -99T625
-260L586 -315Z" />
<glyph unicode=")" glyph-name="parenright" horiz-adv-x="659" d="M545 663Q545 499 512 348T417 68T268 -158T75 -315L36 -260Q99 -204 155 -117T253 83T320 335T345 635Q345 780 325 916T266 1171T169 1385T36 1545L75 1600Q192 1544 280 1450T427 1234T515
967T545 663Z" />
<glyph unicode="*" glyph-name="asterisk" horiz-adv-x="912" d="M493 1199L739 1391Q749 1384 764 1374T795 1353T825 1330T847 1311L845 1265L531 1135L821 1017Q820 1005 819 987T816 950T811 913T804 884L762 862L495 1069L537 761Q526 755 510 747T477 731T443
717T415 709L374 732L420 1069L174 877Q163 884 148 894T117 916T88 938T67 957L68 1004L383 1133L92 1251Q93 1263 94 1281T97 1319T102 1355T108 1383L149 1405L418 1198L375 1508Q386 1514 402 1522T437 1537T472 1551T500 1561L538 1535L493 1199Z" />
<glyph unicode="+" glyph-name="plus" horiz-adv-x="848" d="M487 232Q467 222 439 213T389 199L362 223V502H86L58 528Q63 549 74 576T94 623H362V895Q381 901 409 911T460 926L487 901V623H762L789 596Q786 586 782 573T772 547T762 522T753 502H487V232Z" />
<glyph unicode="," glyph-name="comma" horiz-adv-x="497" d="M420 70Q420 26 402 -27T352 -135T274 -240T174 -330L121 -290Q149 -258 169 -227T203 -162T224 -93T231 -13Q231 32 200 61T104 87L88 144Q97 156 128 172T199 204T276 229T334 239Q382 216 401 175T420 70Z" />
<glyph unicode="-" glyph-name="hyphen" horiz-adv-x="703" d="M644 549Q641 538 637 525T627 497T617 471T608 450H86L58 477Q63 499 74 527T94 575H617L644 549Z" />
<glyph unicode="." glyph-name="period" horiz-adv-x="497" d="M399 126Q399 90 387 60T355 7T306 -27T246 -40Q191 -40 161 -10T131 80Q131 116 143 146T177 198T226 233T285 246Q337 246 368 216T399 126Z" />
<glyph unicode="/" glyph-name="slash" horiz-adv-x="966" d="M221 -282Q211 -289 193 -296T155 -311T116 -325T84 -335L44 -308L745 1549Q758 1558 775 1565T811 1579T848 1591T880 1600L919 1576L221 -282Z" />
<glyph unicode="0" glyph-name="zero" horiz-adv-x="986" d="M719 565Q719 702 700 805T647 977T569 1080T476 1115Q426 1115 388 1089T323 1005T282 859T268 645Q268 508 285 404T335 230T411 125T510 90Q560 90 599 116T664 200T705 348T719 565ZM915 602Q915
473 883 358T794 157T655 21T476 -30Q378 -30 303 20T176 157T98 358T71 602Q71 731 102 846T191 1047T330 1184T510 1235Q609 1235 684 1185T811 1049T889 848T915 602Z" />
<glyph unicode="1" glyph-name="one" horiz-adv-x="986" d="M165 0V63Q243 72 295 83T378 107T422 130T435 153V930Q435 970 432 992T417 1028Q411 1034 395 1038T348 1041T271 1034T158 1014L134 1075Q176 1086 237 1107T363 1153T484 1202T576 1245L615 1208V153Q615
143 626 132T665 108T741 84T865 63V0H165Z" />
<glyph unicode="2" glyph-name="two" horiz-adv-x="986" d="M851 0H122L93 74Q211 211 299 317T451 506T556 649T622 759T656 847T666 924Q666 969 656 1008T623 1076T565 1121T480 1138Q439 1138 406 1119T351 1070T317 1002T308 929Q274 910 235 895T150 875L120
918Q120 970 156 1026T251 1128T388 1205T548 1235Q614 1235 670 1219T766 1168T830 1083T853 962Q853 917 841 872T800 776T729 663T623 526T478 354T292 139H704Q721 139 734 147T758 168T776 197T789 231Q801 271 806 324L866 310L851 0Z" />
<glyph unicode="3" glyph-name="three" horiz-adv-x="986" d="M855 381Q855 297 826 222T742 91T607 3T424 -30Q385 -30 342 -22T253 4T162 51T71 124L107 201Q152 167 190 145T264 109T334 89T406 83Q462 83 509 101T591 153T644 237T663 351Q663 424 640 474T582
556T504 602T420 616H398Q391 616 385 615T371 613T347 609L332 679Q422 703 476 735T559 803T597 873T606 940Q606 974 597 1009T567 1073T515 1120T439 1138Q403 1138 375 1124T327 1087T301 1033T300 968Q264 948 223 936T134 919L104 960Q104 1002 134 1050T218
1139T343 1208T496 1235Q576 1235 633 1211T727 1148T781 1059T798 958Q798 920 783 883T740 811T673 747T585 698Q643 691 692 664T778 594T834 497T855 381Z" />
<glyph unicode="4" glyph-name="four" horiz-adv-x="986" d="M580 1020L226 465H580V1020ZM902 435Q881 403 860 383T815 345H750V114Q750 106 756 100T778 86T821 70T889 53V0H370V53Q435 64 476 73T540 91T571 108T580 125V345H91L55 381L546 1172Q590 1189
633 1209T711 1245L750 1208V465H876L902 435Z" />
<glyph unicode="5" glyph-name="five" horiz-adv-x="986" d="M864 410Q864 323 838 244T759 103T629 6T450 -30Q357 -30 261 6T78 123L118 197Q171 160 215 137T297 102T367 85T428 80Q488 80 534 103T612 166T660 258T676 367Q676 435 659 490T609 583T527 642T413
663Q358 663 298 642T184 580L137 613Q143 649 151 697T167 800T184 910T200 1021T212 1122T219 1205H685Q714 1205 736 1207T774 1214Q792 1218 806 1223L838 1192Q827 1176 812 1156T779 1118T746 1083T718 1058H316Q314 1029 310 986T299 899T286 816T275 754Q317
768 371 776T481 785Q575 785 646 754T766 671T839 551T864 410Z" />
<glyph unicode="6" glyph-name="six" horiz-adv-x="986" d="M515 655Q467 655 410 626T298 536Q298 418 316 333T369 192T450 110T555 83Q605 83 638 107T692 169T720 255T729 348Q729 442 709 501T658 595T588 642T515 655ZM911 412Q911 365 900 314T867 214T812
121T736 44T639 -10T521 -30Q435 -30 359 6T227 109T138 267T105 473Q105 614 148 743T278 977T498 1152T808 1249L830 1180Q711 1153 621 1101T466 981T363 830T309 661Q343 692 378 713T446 748T509 768T564 775Q646 775 710 749T819 676T887 561T911 412Z" />
<glyph unicode="7" glyph-name="seven" horiz-adv-x="986" d="M910 1167Q864 1059 818 950T728 733T644 526T570 337T509 174T465 47Q430 22 382 3T283 -30L239 6Q326 159 394 294T521 557T633 807T741 1058H289Q274 1058 260 1057T229 1042T195 997T155 908L102
928Q105 951 110 989T122 1067T134 1145T147 1205H877L910 1167Z" />
<glyph unicode="8" glyph-name="eight" horiz-adv-x="986" d="M303 950Q303 908 323 877T377 821T455 775T548 733Q611 784 638 835T665 938Q665 990 650 1027T609 1088T546 1123T466 1134Q425 1134 395 1118T344 1076T313 1017T303 950ZM705 309Q705 373 683
418T625 497T541 554T444 601Q402 568 372 536T321 469T292 397T282 315Q282 263 299 220T346 145T418 96T510 78Q561 78 597 98T658 150T693 223T705 309ZM897 352Q897 274 863 205T771 84T634 1T466 -30Q375 -30 305 -4T186 66T114 166T89 285Q89 339 108 388T163
483T247 567T357 640Q313 661 274 685T205 741T158 815T140 915Q140 984 169 1043T248 1144T366 1211T512 1235Q594 1235 656 1215T761 1160T825 1076T847 969Q847 928 831 891T788 821T722 755T639 693Q689 669 735 639T818 569T875 475T897 352Z" />
<glyph unicode="9" glyph-name="nine" horiz-adv-x="986" d="M491 560Q556 560 611 595T708 686Q706 815 685 899T630 1033T558 1103T480 1123Q432 1123 395 1104T331 1049T292 964T278 856Q278 766 299 709T351 618T420 573T491 560ZM900 731Q900 579 857 449T727
217T507 48T195 -43L175 26Q310 60 406 112T564 232T660 384T703 562Q649 505 580 472T441 438Q358 438 294 466T185 542T118 655T95 795Q95 871 126 949T213 1090T346 1194T516 1235Q593 1235 663 1206T785 1116T869 959T900 731Z" />
<glyph unicode=":" glyph-name="colon" horiz-adv-x="497" d="M399 840Q399 804 387 774T355 721T306 687T246 674Q191 674 161 704T131 794Q131 830 143 860T177 912T226 947T285 960Q337 960 368 930T399 840ZM399 126Q399 90 387 60T355 7T306 -27T246 -40Q191
-40 161 -10T131 80Q131 116 143 146T177 198T226 233T285 246Q337 246 368 216T399 126Z" />
<glyph unicode=";" glyph-name="semicolon" horiz-adv-x="497" d="M420 70Q420 26 402 -27T352 -135T274 -240T174 -330L121 -290Q149 -258 169 -227T203 -162T224 -93T231 -13Q231 32 200 61T104 87L88 144Q97 156 128 172T199 204T276 229T334 239Q382 216 401
175T420 70ZM399 840Q399 804 387 774T355 721T306 687T246 674Q191 674 161 704T131 794Q131 830 143 860T177 912T226 947T285 960Q337 960 368 930T399 840Z" />
<glyph unicode="&lt;" glyph-name="less" horiz-adv-x="909" d="M851 326Q829 306 810 288T760 251L86 500L58 529L61 542L66 558Q73 583 80 605Q82 613 85 619T90 631L92 635L824 906L851 879Q848 868 844 854T836 823T827 793T820 769L273 568L832 364L851 326Z" />
<glyph unicode="=" glyph-name="equal" horiz-adv-x="909" d="M851 444Q846 423 835 396T817 350H86L58 379Q63 399 74 425T94 471H824L851 444ZM851 744Q848 734 844 721T834 696T825 671T817 650H86L58 677Q63 698 74 725T94 771H824L851 744Z" />
<glyph unicode="&gt;" glyph-name="greater" horiz-adv-x="909" d="M851 628Q848 617 845 604T837 575T827 546T818 520L86 251L58 279Q61 289 65 303T74 333T83 363T91 387L634 587L78 792L58 832Q81 851 105 870T150 906L825 658L851 628Z" />
<glyph unicode="?" glyph-name="question" horiz-adv-x="902" d="M826 1165Q826 1090 802 1030T741 917T661 817T579 719T514 615T482 493L476 397Q457 383 439 374T392 356L365 379L357 493Q354 550 373 606T422 715T489 821T556 924T609 1023T630 1120Q630 1244
579 1310T434 1377Q402 1377 373 1362T321 1321T285 1260T272 1186Q272 1172 275 1156T284 1126Q268 1118 247 1111T202 1097T154 1087T107 1080L77 1113Q75 1121 75 1132V1151Q75 1221 110 1281T206 1386T345 1455T510 1480Q586 1480 645 1457T744 1393T805 1293T826
1165ZM562 126Q562 90 550 60T518 7T469 -27T409 -40Q354 -40 324 -10T294 80Q294 116 306 146T340 198T389 233T448 246Q500 246 531 216T562 126Z" />
<glyph unicode="@" glyph-name="at" horiz-adv-x="1701" d="M1024 731Q1011 757 998 777T967 812T928 835T878 843Q775 843 714 752T653 473Q653 388 671 322T717 211T780 143T848 120Q867 120 884 126T921 148T965 191T1024 260V731ZM1626 557Q1626 471 1606
394T1553 252T1474 135T1379 46T1277 -10T1177 -30Q1151 -30 1128 -21T1085 10T1052 67T1030 152Q989 98 958 63T898 7T838 -22T767 -30Q716 -30 664 1T569 92T500 240T473 442Q473 501 486 562T526 681T589 790T674 878T780 938T904 960Q927 960 946 957T985 943T1024
915T1071 868Q1107 885 1138 907T1203 960L1234 930Q1225 900 1219 865Q1213 835 1209 797T1204 716V285Q1204 205 1228 166T1300 127Q1325 127 1356 155T1415 235T1462 357T1481 512Q1481 681 1439 811T1320 1028T1137 1161T903 1206Q801 1206 713 1181T553 1110T424
1001T329 861T270 700T250 524Q250 401 275 297T345 106T452 -46T590 -158T751 -226T928 -250Q1016 -250 1098 -233T1249 -189T1370 -133T1453 -77L1487 -143Q1451 -182 1394 -225T1260 -304T1087 -364T879 -388Q702 -388 555 -329T301 -159T135 110T75 465Q75
581 106 691T193 898T329 1077T504 1218T711 1310T942 1343Q1095 1343 1221 1293T1437 1145T1576 899T1626 557Z" />
<glyph unicode="A" glyph-name="A" horiz-adv-x="1242" d="M754 540L582 1038L418 540H754ZM385 440L279 121Q269 90 305 76T423 53V0H0V53Q68 65 107 78T156 121L520 1227Q552 1257 594 1280T672 1317L1092 121Q1097 107 1105 96T1129 77T1166 63T1221 53V0H774V53Q852
58 881 73T899 121L789 440H385Z" />
<glyph unicode="B" glyph-name="B" horiz-adv-x="1161" d="M431 1199Q419 1199 407 1199T380 1198V730H409Q518 730 586 751T691 807T742 885T755 971Q755 1021 739 1063T686 1135T586 1182T431 1199ZM535 646Q487 646 451 642T380 632V112Q380 105 388 98Q404
92 424 88T465 82T508 79T550 78Q622 78 679 96T775 146T836 225T857 327Q857 382 840 439T783 542T683 617T535 646ZM1054 356Q1054 271 1020 203T924 86T773 12T577 -14Q555 -14 524 -14T456 -12T382 -10T306 -7Q219 -4 123 0H48V53Q116 67 153 83T190 114V1182Q152
1177 116 1172T48 1161L37 1230Q78 1241 132 1251T247 1270T370 1284T489 1290Q594 1290 678 1272T821 1218T911 1133T943 1020Q943 912 890 835T740 723Q807 711 864 678T964 597T1030 487T1054 356Z" />
<glyph unicode="C" glyph-name="C" horiz-adv-x="1113" d="M1036 211Q972 144 913 98T796 24T685 -17T576 -30Q481 -30 389 12T225 133T109 326T65 586Q65 746 113 876T246 1098T442 1240T681 1290Q735 1290 784 1282T877 1261T955 1229T1017 1190Q1023 1185 1013
1165T987 1121T952 1073T922 1037L877 1046Q826 1106 758 1139T602 1173Q568 1173 529 1161T451 1123T376 1054T313 950T270 808T253 623Q253 492 290 395T385 233T515 137T656 105Q683 105 719 113T798 139T890 188T994 264Q999 261 1005 254T1017 238T1028 222T1036
211Z" />
<glyph unicode="D" glyph-name="D" horiz-adv-x="1244" d="M471 1199Q425 1199 380 1196V164Q380 142 388 127Q401 109 438 101T552 92Q617 92 688 124T818 224T915 393T953 637Q953 770 922 874T829 1051T678 1161T471 1199ZM1156 676Q1156 551 1131 453T1062
279T961 151T839 65T708 16T579 0H48V53Q116 67 153 83T190 114V1178Q151 1173 115 1168T48 1158L37 1230Q83 1242 144 1253T272 1272T408 1285T538 1290Q682 1290 796 1249T991 1128T1113 935T1156 676Z" />
<glyph unicode="E" glyph-name="E" horiz-adv-x="1036" d="M979 264Q975 221 970 180T959 104T948 42T938 0H48V53Q116 67 153 83T190 114V1145Q190 1157 155 1175T48 1207V1260H879L914 1233Q912 1207 908 1174T898 1106T886 1040T873 990H818Q813 1082 793 1121T736
1160H380V735H783L811 705Q803 691 792 674T768 641T743 611T719 589Q704 604 687 614T647 631T594 641T521 644H380V164Q380 149 387 138T416 118T478 105T584 100H703Q749 100 781 107T839 134T884 190T926 285L979 264Z" />
<glyph unicode="F" glyph-name="F" horiz-adv-x="999" d="M48 0V53Q116 67 153 83T190 114V1145Q190 1157 155 1175T48 1207V1260H889L922 1233Q921 1207 917 1174T908 1106T896 1040T883 990H826Q823 1082 803 1121T744 1160H380V735H752L783 705Q774 690 762
673T737 640T712 611T689 589Q674 604 657 614T618 631T565 641T492 644H380V114Q380 108 388 101T417 87T471 71T553 53V0H48Z" />
<glyph unicode="G" glyph-name="G" horiz-adv-x="1207" d="M1060 1188Q1067 1183 1057 1164T1030 1121T992 1076T959 1041L916 1050Q883 1087 849 1111T777 1149T697 1169T608 1175Q583 1175 547 1164T472 1128T393 1062T323 962T273 822T253 637Q253 500 288
400T380 233T509 135T655 103Q723 103 778 116T878 153V480Q878 491 871 501T842 522T784 542T687 562V615H1160V562Q1103 548 1081 526T1058 480V159Q984 98 924 61T812 4T714 -23T623 -30Q520 -30 420 7T241 121T114 312T65 582Q65 748 118 879T262 1102T477
1242T742 1290Q775 1290 816 1283T901 1263T986 1231T1060 1188Z" />
<glyph unicode="H" glyph-name="H" horiz-adv-x="1359" d="M48 0V53Q116 67 153 83T190 114V1145Q190 1157 155 1175T48 1207V1260H523V1207Q455 1193 418 1176T380 1145V710H960V1145Q960 1157 925 1175T818 1207V1260H1293V1207Q1225 1193 1188 1176T1150 1145V114Q1150
102 1185 85T1293 53V0H818V53Q886 67 923 83T960 114V610H380V114Q380 102 415 85T523 53V0H48Z" />
<glyph unicode="I" glyph-name="I" horiz-adv-x="630" d="M68 0V53Q136 67 173 83T210 114V1145Q210 1157 175 1175T68 1207V1260H543V1207Q475 1193 438 1176T400 1145V114Q400 102 435 85T543 53V0H68Z" />
<glyph unicode="J" glyph-name="J" horiz-adv-x="645" d="M578 1207Q510 1193 473 1176T435 1145V198Q435 82 417 3T369 -133T301 -226T224 -296Q197 -318 164 -336T97 -366T31 -386T-25 -393Q-60 -393 -94 -383T-155 -360T-198 -332T-215 -308Q-215 -299 -200
-281T-163 -244T-119 -209T-82 -188Q-54 -208 -32 -221T11 -241T49 -252T87 -255Q113 -255 141 -240T192 -182T230 -66T245 126V1145Q245 1151 238 1158T209 1173T151 1189T53 1207V1260H578V1207Z" />
<glyph unicode="K" glyph-name="K" horiz-adv-x="1212" d="M48 0V53Q116 67 153 83T190 114V1145Q190 1157 155 1175T48 1207V1260H523V1207Q455 1193 418 1176T380 1145V651L777 1118Q800 1145 807 1161T806 1186T773 1199T710 1207V1260H1140V1207Q1108 1203
1084 1199T1041 1189T1006 1172T975 1145L540 673L1023 140Q1057 102 1101 96T1197 95L1204 42Q1175 33 1143 23T1080 5T1019 -9T966 -14Q937 -14 915 -5T872 29L380 634V114Q380 102 415 85T523 53V0H48Z" />
<glyph unicode="L" glyph-name="L" horiz-adv-x="998" d="M969 264Q965 221 960 180T949 104T938 42T928 0H48V53Q116 67 153 83T190 114V1145Q190 1157 155 1175T48 1207V1260H523V1207Q455 1193 418 1176T380 1145V174Q380 156 388 143T418 120T475 105T566
100H699Q745 100 776 107T832 134T875 190T916 285L969 264Z" />
<glyph unicode="M" glyph-name="M" horiz-adv-x="1679" d="M1578 1207Q1551 1207 1516 1198T1445 1174L1455 114Q1455 102 1491 85T1600 53V0H1123V53Q1191 67 1233 83T1275 114L1266 1007L833 0H769L334 1003L325 114Q325 102 360 85T468 53V0H58V53Q127 67 163
83T200 114L210 1169Q173 1190 135 1198T68 1207V1260H374Q384 1260 391 1257T405 1245T420 1220T440 1176L828 297L1208 1176Q1221 1206 1229 1223T1244 1248T1258 1258T1274 1260H1578V1207Z" />
<glyph unicode="N" glyph-name="N" horiz-adv-x="1339" d="M48 0V53Q122 62 156 81T190 114V1138Q157 1168 122 1184T48 1207V1260H282Q297 1260 306 1258T326 1247T347 1224T378 1182L1020 295V1145Q1020 1151 1013 1159T990 1176T946 1193T878 1207V1260H1293V1207Q1221
1197 1186 1178T1150 1145V-30Q1085 -23 1047 -4T991 39L320 969V114Q320 108 328 100T353 83T397 66T463 53V0H48Z" />
<glyph unicode="O" glyph-name="O" horiz-adv-x="1244" d="M971 629Q971 698 959 765T925 892T870 1003T797 1091T708 1149T604 1170Q521 1170 456 1133T345 1028T277 861T253 641Q253 529 282 430T360 256T476 139T617 95Q694 95 759 129T871 230T944 397T971
629ZM1158 647Q1158 511 1112 389T987 173T804 25T583 -30Q460 -30 364 23T202 165T100 370T65 612Q65 748 109 871T230 1087T413 1235T641 1290Q767 1290 864 1236T1026 1091T1124 885T1158 647Z" />
<glyph unicode="P" glyph-name="P" horiz-adv-x="1101" d="M48 0V53Q116 67 153 83T190 114V1180Q152 1175 117 1170T48 1158L37 1230Q87 1243 147 1254T271 1273T401 1285T530 1290Q641 1290 730 1267T884 1199T982 1088T1017 936Q1017 867 998 810T946 708T871
630T783 574T691 541T603 530Q557 530 516 537T440 560L414 645Q456 626 492 621T563 615Q608 615 655 632T742 684T805 771T830 895Q830 973 803 1030T727 1125T614 1181T473 1199Q426 1199 380 1196V114Q380 108 387 101T414 86T467 70T553 53V0H48Z" />
<glyph unicode="Q" glyph-name="Q" horiz-adv-x="1244" d="M971 629Q971 698 959 765T925 892T870 1003T797 1091T708 1149T604 1170Q521 1170 456 1133T345 1028T277 861T253 641Q253 529 282 430T360 256T476 139T617 95Q694 95 759 129T871 230T944 397T971
629ZM1327 -120Q1303 -164 1277 -199T1226 -260T1179 -299T1142 -313Q1099 -313 1057 -299T972 -260T887 -206T802 -143T717 -81T632 -27Q608 -30 583 -30Q468 -30 373 21T210 160T103 364T65 612Q65 748 109 871T230 1087T413 1235T641 1290Q767 1290 864 1236T1026
1091T1124 885T1158 647Q1158 542 1130 445T1053 266T936 119T788 17Q837 -6 884 -34T977 -89T1066 -132T1148 -150Q1160 -150 1173 -147T1203 -135T1241 -112T1293 -75L1327 -120Z" />
<glyph unicode="R" glyph-name="R" horiz-adv-x="1179" d="M450 1199Q433 1199 416 1199T380 1197V696Q407 691 427 690T469 689Q620 689 697 758T775 956Q775 1008 758 1052T701 1129T600 1180T450 1199ZM48 0V53Q116 67 153 83T190 114V1178Q154 1173 119 1168T48
1158L37 1230Q86 1242 137 1252T243 1271T360 1285T489 1290Q612 1290 701 1267T848 1203T934 1107T962 987Q962 916 942 858T884 754T795 675T681 623L988 154Q1003 133 1019 120T1056 101T1102 93T1162 95L1174 42Q1141 31 1106 21T1039 3T978 -9T930 -14Q901
-14 874 2T832 41L535 597Q523 596 511 596T486 595Q460 595 434 597T380 606V114Q380 102 415 85T523 53V0H48Z" />
<glyph unicode="S" glyph-name="S" horiz-adv-x="1000" d="M913 377Q913 332 901 285T863 193T799 107T710 36T594 -12T450 -30Q416 -30 375 -23T290 -4T204 27T126 68Q119 72 116 104T112 179T116 267T129 344L180 339Q203 280 237 235T312 160T402 114T501 98Q546
98 590 114T669 160T726 230T748 319Q748 380 721 424T650 502T550 564T435 619T320 676T220 746T149 839T122 965Q122 1012 145 1068T218 1174T347 1257T541 1290Q589 1290 637 1283T726 1264T800 1235T851 1198Q858 1192 851 1172T830 1127T799 1079T770 1045L724
1051Q698 1088 668 1114T607 1155T545 1178T485 1185Q431 1185 393 1170T330 1130T294 1075T282 1017Q282 970 309 934T380 867T481 808T597 751T713 687T814 608T886 508T913 377Z" />
<glyph unicode="T" glyph-name="T" horiz-adv-x="1148" d="M305 0V53Q351 62 382 72T431 91T458 109T466 125V1160H182Q167 1160 155 1153T129 1126T99 1069T61 974L8 995Q10 1024 14 1059T22 1130T32 1200T43 1260H1073L1106 1233Q1105 1207 1102 1177T1095 1113T1085
1045T1073 980H1018Q1008 1026 1001 1060T985 1116T963 1149T928 1160H656V125Q656 119 664 111T691 92T741 72T818 53V0H305Z" />
<glyph unicode="U" glyph-name="U" horiz-adv-x="1349" d="M1288 1207Q1220 1193 1183 1176T1145 1145V524Q1145 393 1112 290T1016 116T867 8T671 -30Q568 -30 480 -2T328 85T227 233T190 444V1145Q190 1157 155 1175T48 1207V1260H523V1207Q455 1193 418 1176T380
1145V499Q380 307 463 201T718 95Q789 95 842 128T930 217T982 343T1000 488V1145Q1000 1157 965 1175T858 1207V1260H1288V1207Z" />
<glyph unicode="V" glyph-name="V" horiz-adv-x="1341" d="M1303 1207Q1235 1194 1197 1182T1148 1141L767 67Q759 45 739 29T694 0T644 -19T602 -30L157 1141Q147 1167 114 1183T18 1207V1260H478V1207Q398 1201 370 1187T352 1143L696 231L1019 1141Q1030 1170
997 1183T882 1207V1260H1303V1207Z" />
<glyph unicode="W" glyph-name="W" horiz-adv-x="1741" d="M1712 1207Q1668 1198 1639 1190T1593 1175T1569 1160T1560 1145L1331 59Q1326 38 1310 23T1272 -3T1228 -20T1190 -30L859 922L572 59Q565 38 548 23T508 -2T462 -19T418 -30L158 1137Q153 1162 122
1178T20 1207V1260H469V1207Q420 1202 393 1195T352 1178T336 1159T336 1137L525 295L839 1260H909L1256 295L1435 1145Q1437 1157 1426 1166T1394 1182T1344 1195T1281 1207V1260H1712V1207Z" />
<glyph unicode="X" glyph-name="X" horiz-adv-x="1270" d="M763 0V53Q807 57 834 63T873 79T884 103T868 137L604 523L360 137Q331 93 359 76T479 53V0H29V53Q94 58 139 77T211 137L525 639L195 1123Q180 1145 166 1159T135 1182T95 1196T39 1207V1260H520V1207Q435
1199 409 1183T413 1123L647 780L861 1123Q875 1146 875 1160T859 1184T815 1199T740 1207V1260H1193V1207Q1157 1203 1129 1198T1078 1183T1040 1159T1010 1123L724 667L1086 137Q1101 116 1116 102T1149 78T1190 63T1242 53V0H763Z" />
<glyph unicode="Y" glyph-name="Y" horiz-adv-x="1230" d="M355 0V53Q446 72 481 91T517 125V535Q480 616 434 702T340 871T247 1023T166 1141Q157 1152 146 1161T118 1178T73 1190T4 1194L0 1247Q29 1251 61 1255T125 1262T185 1268T234 1270Q258 1270 280 1260T320
1229Q357 1180 399 1115T483 978T566 829T642 680L899 1141Q914 1167 890 1182T788 1207V1260H1191V1207Q1123 1194 1088 1180T1038 1141L707 536V125Q707 119 715 111T741 92T791 72T870 53V0H355Z" />
<glyph unicode="Z" glyph-name="Z" horiz-adv-x="1086" d="M1009 313Q1007 281 1006 239T1003 154T1000 70T997 0H88L57 48L755 1150H319Q303 1150 284 1137T246 1098T211 1032T183 941L116 955L148 1276Q175 1270 197 1267T241 1262T286 1260H971L999 1215L306
110H807Q828 110 845 121T877 158T909 226T944 330L1009 313Z" />
<glyph unicode="[" glyph-name="bracketleft" horiz-adv-x="651" d="M615 -242Q613 -252 609 -264L601 -289Q597 -302 593 -314T584 -335H135V1600H578L613 1572Q611 1560 607 1546T599 1518T591 1493T584 1475H305V-210H578L615 -242Z" />
<glyph unicode="\" glyph-name="backslash" horiz-adv-x="961" d="M873 -335L843 -325Q825 -319 807 -312T772 -297T746 -282L50 1576L90 1600Q119 1592 153 1579T215 1549L910 -308L873 -335Z" />
<glyph unicode="]" glyph-name="bracketright" horiz-adv-x="651" d="M73 -335L38 -304Q39 -292 42 -279T50 -252T58 -228T66 -210H345V1475H73L36 1504Q39 1526 49 1554T66 1600H515V-335H73Z" />
<glyph unicode="^" glyph-name="asciicircum" horiz-adv-x="1008" d="M907 635Q882 612 859 597T801 565L764 592L481 1315L231 635Q220 625 206 615T177 595T148 578T123 565L100 592L422 1462Q434 1474 451 1486T487 1511T523 1533T555 1550L907 635Z" />
<glyph unicode="_" glyph-name="underscore" horiz-adv-x="971" d="M910 -158Q908 -169 904 -182T895 -208T885 -234T876 -256H86L58 -227Q63 -207 74 -179T94 -131H884L910 -158Z" />
<glyph unicode="`" glyph-name="grave" horiz-adv-x="653" d="M443 1081Q432 1072 413 1061T377 1045L15 1422L39 1468Q49 1470 72 1474T121 1483T173 1492T210 1497L443 1081Z" />
<glyph unicode="a" glyph-name="a" horiz-adv-x="968" d="M372 115Q424 115 485 142T623 235V481Q547 469 497 457T414 433T362 407T327 377Q301 350 285 317T269 239Q269 201 280 177T307 139T341 120T372 115ZM956 92Q871 33 805 2T707 -30Q672 -30 650 15T623
139Q578 93 533 61T446 9T364 -21T293 -30Q255 -30 217 -18T147 22T95 91T75 191Q75 264 101 314T164 401Q188 425 219 447T300 489T428 527T623 564V697Q623 730 616 758T591 807T543 839T468 850Q438 850 410 840T360 813T326 772T317 717Q318 711 306 703T274
687T231 672T185 660T144 653T117 652L101 696Q124 749 173 797T285 881T420 938T562 960Q681 960 742 899T803 735V198Q803 156 814 138T843 120Q857 120 878 125T939 147L956 92Z" />
<glyph unicode="b" glyph-name="b" horiz-adv-x="1060" d="M975 497Q975 439 958 378T910 258T833 147T733 55T614 -7T479 -30Q457 -30 421 -21T340 4T242 44T135 96V1286Q135 1332 131 1357T113 1394T74 1411T8 1420V1470Q83 1486 148 1502T276 1550L286 1540Q292
1534 299 1528Q306 1521 315 1514V752Q365 806 414 845T509 910T592 948T660 960Q730 960 788 928T887 836T952 691T975 497ZM811 411Q811 511 792 586T739 711T663 787T572 813Q554 813 527 805T466 775T394 720T315 633V208Q355 181 394 163T469 134T532 118T577
113Q635 113 679 138T752 204T796 299T811 411Z" />
<glyph unicode="c" glyph-name="c" horiz-adv-x="908" d="M858 190Q793 114 742 71T646 5T559 -24T470 -30Q394 -30 323 2T197 96T109 245T75 444Q75 552 114 646T223 809T388 919T595 960Q628 960 665 955T736 939T799 914T845 881Q847 869 841 842T825 785T802
727T781 685L734 695Q723 723 705 750T659 798T595 832T510 845Q460 845 414 823T333 755T277 640T255 475Q255 392 279 325T343 211T436 139T547 113Q575 113 600 116T654 131T721 168T814 239L858 190Z" />
<glyph unicode="d" glyph-name="d" horiz-adv-x="1093" d="M1081 94Q988 32 925 1T834 -30Q799 -30 778 15T748 161Q707 115 670 80T594 20T513 -17T421 -30Q362 -30 301 2T189 96T107 245T75 444Q75 505 90 566T135 685T207 793T303 880T418 938T551 960Q598
960 644 949T745 899V1264Q745 1319 743 1351T727 1401T685 1425T603 1436V1485Q694 1496 767 1514T892 1550L925 1518V269Q925 234 926 210T931 169T938 142T948 126Q953 121 960 120T981 120T1014 129T1063 147L1081 94ZM745 263V722Q711 780 654 811T525 843Q466
843 417 821T331 754T275 642T255 483Q255 400 278 333T337 218T417 146T502 120Q534 120 564 131T625 162T685 208T745 263Z" />
<glyph unicode="e" glyph-name="e" horiz-adv-x="961" d="M501 850Q451 850 411 831T340 776T291 690T263 580H659Q682 580 689 587T697 616Q697 644 689 684T660 761T600 824T501 850ZM886 555Q868 535 833 516T766 483H258Q259 407 279 340T335 222T422 143T539
113Q570 113 599 117T663 134T739 174T838 244Q851 237 863 220T880 195Q812 123 760 79T662 11T570 -22T470 -30Q390 -30 319 3T193 98T107 245T75 437Q75 504 89 568T131 688T199 792T291 876Q315 893 344 908T404 934T469 953T532 960Q597 960 649 943T740 897T807
827T852 742T878 649T886 555Z" />
<glyph unicode="f" glyph-name="f" horiz-adv-x="657" d="M842 1454Q842 1443 826 1424T787 1385T741 1348T702 1323Q654 1371 608 1393T532 1415Q506 1415 479 1398T428 1337T390 1215T375 1016V930H630L662 899Q653 884 640 867T613 835T586 808T564 790Q541
802 498 813T375 825V112Q375 106 385 100T420 88T483 73T582 53V0H58V53Q127 65 161 82T195 112V825H66L43 856L121 930H195V961Q195 1067 209 1143T249 1274T309 1369T384 1443Q414 1469 449 1489T517 1522T582 1543T636 1550Q672 1550 708 1538T774 1511T823
1479T842 1454Z" />
<glyph unicode="g" glyph-name="g" horiz-adv-x="1019" d="M683 600Q683 652 667 698T619 780T540 835T431 855Q406 855 377 843T323 806T282 745T265 659Q265 607 280 561T326 480T404 425T517 405Q546 405 575 417T629 453T668 514T683 600ZM531 -17Q489 -12
454 -6T386 7Q324 -29 288 -58T234 -111T210 -153T205 -188Q205 -227 231 -262T304 -323T411 -364T540 -380Q604 -380 655 -363T742 -317T796 -248T815 -162Q815 -137 803 -115T760 -75T673 -42T531 -17ZM853 641Q853 564 819 501T728 392T599 321T450 295H444Q400
257 385 232T369 201Q369 190 378 180T413 159T488 140T615 120Q727 107 800 84T916 30T976 -38T993 -115Q993 -167 972 -216T914 -307T828 -385T721 -445T602 -484T480 -498Q431 -498 379 -492T276 -471T180 -436T100 -384T45 -315T25 -227Q25 -201 35 -174T73
-115T153 -46T287 36Q225 59 199 86T172 143Q172 152 178 167T202 203T250 250T328 310Q276 325 233 351T160 415T112 500T95 602Q95 675 129 740T219 854T347 931T498 960Q561 960 615 943T715 894Q814 905 880 925T989 960L1012 928Q1001 902 989 875T955 823Q919
817 883 813T801 806Q826 770 839 728T853 641Z" />
<glyph unicode="h" glyph-name="h" horiz-adv-x="1150" d="M668 0V53Q740 72 772 86T805 114V613Q805 674 798 712T776 773T738 804T682 813Q616 813 536 754T370 579V114Q370 99 406 83T508 53V0H53V53Q119 70 154 83T190 114V1288Q190 1330 187 1353T170 1390T129
1408T53 1420V1470Q100 1478 137 1486T207 1503T269 1524T331 1550L370 1514V717Q418 775 471 820T576 897T676 944T764 960Q807 960 847 947T917 905T966 834T985 729V114Q985 107 992 101T1015 87T1057 72T1123 53V0H668Z" />
<glyph unicode="i" glyph-name="i" horiz-adv-x="575" d="M68 0V53Q136 67 170 83T205 114V663Q205 714 204 745T190 794T149 820T68 833V883Q139 895 211 915T341 960H385V114Q385 102 417 85T523 53V0H68ZM418 1261Q418 1231 408 1205T379 1160T337 1130T284
1119Q236 1119 210 1144T183 1220Q183 1250 193 1276T222 1321T264 1350T315 1361Q362 1361 390 1337T418 1261Z" />
<glyph unicode="j" glyph-name="j" horiz-adv-x="550" d="M380 102Q380 -14 364 -94T319 -230T255 -324T178 -395Q151 -416 120 -435T58 -468T-3 -490T-54 -498Q-88 -498 -121 -490T-182 -469T-226 -444T-243 -421Q-243 -411 -227 -392T-187 -354T-140 -317T-101
-293Q-68 -325 -28 -337T50 -350Q78 -350 105 -333T153 -272T187 -152T200 43V663Q200 714 198 745T184 793T143 819T63 833V883Q108 890 143 898T209 916T269 936T333 960H380V102ZM414 1261Q414 1231 404 1205T376 1160T334 1130T281 1119Q233 1119 206 1144T179
1220Q179 1250 189 1276T218 1321T260 1350T311 1361Q358 1361 386 1337T414 1261Z" />
<glyph unicode="k" glyph-name="k" horiz-adv-x="1059" d="M53 0V53Q119 70 154 83T190 114V1286Q190 1332 185 1357T165 1394T123 1411T53 1420V1470Q131 1484 202 1502T331 1550L370 1514V531L663 789Q696 818 704 835T703 862T673 874T625 877V930H1027V877Q983
872 944 859T862 813L533 554L904 124Q918 108 932 98T964 82T1004 75T1056 76L1062 23Q1033 16 1002 10T942 0T892 -7T860 -10Q818 -10 792 2T743 43L370 520V114Q370 106 373 100T388 88T421 73T480 53V0H53Z" />
<glyph unicode="l" glyph-name="l" horiz-adv-x="575" d="M58 0V53Q101 60 129 67T174 82T198 98T205 114V1286Q205 1331 200 1356T179 1393T137 1410T68 1420V1470Q108 1477 144 1484T214 1501T280 1522T347 1550L385 1514V114Q385 99 418 83T533 53V0H58Z" />
<glyph unicode="m" glyph-name="m" horiz-adv-x="1673" d="M1194 0V53Q1266 72 1295 86T1325 114V623Q1325 684 1319 723T1299 784T1265 815T1215 823Q1156 823 1083 766T938 603V114Q938 107 944 101T966 87T1008 72T1074 53V0H626V53Q698 72 728 86T758 114V623Q758
684 752 723T734 784T701 815T650 823Q590 823 521 766T370 603V114Q370 99 405 83T505 53V0H53V53Q119 70 154 83T190 114V704Q190 744 187 767T170 802T129 821T53 833V883Q95 889 130 897T197 914T258 935T318 960L355 923L366 729Q463 851 552 905T713 960Q761
960 800 949T868 912T913 848T932 753L933 734Q1027 851 1115 905T1278 960Q1326 960 1367 947T1439 905T1487 834T1505 729V114Q1505 100 1536 87T1646 53V0H1194Z" />
<glyph unicode="n" glyph-name="n" horiz-adv-x="1150" d="M668 0V53Q740 72 772 86T805 114V618Q805 677 799 715T779 774T741 804T685 813Q656 813 622 801T548 762T463 690T370 579V114Q370 99 406 83T508 53V0H53V53Q119 70 154 83T190 114V704Q190 743 188
766T172 802T132 821T53 833V883Q130 894 193 913T318 960L355 923L366 709Q415 770 468 817T574 895T676 943T764 960Q807 960 847 947T917 905T966 834T985 729V114Q985 107 992 101T1015 87T1057 72T1123 53V0H668Z" />
<glyph unicode="o" glyph-name="o" d="M783 450Q783 529 760 600T700 726T614 813T514 845Q442 845 394 817T317 738T276 620T263 473Q263 394 287 324T351 200T438 116T532 85Q599 85 646 110T724 183T769 298T783 450ZM970 485Q970 385 933 292T831 128T683
13T504 -30Q406 -30 327 6T192 105T106 255T75 444Q75 510 91 574T138 695T210 801T305 885T417 940T543 960Q640 960 718 924T853 825T939 674T970 485Z" />
<glyph unicode="p" glyph-name="p" horiz-adv-x="1105" d="M865 426Q865 516 845 589T791 713T713 792T623 820Q605 820 580 812T522 782T452 724T370 633V218Q418 185 456 165T527 133T587 117T641 113Q690 113 731 133T802 193T848 291T865 426ZM1030 495Q1030
434 1015 372T972 252T907 142T828 52T739 -8T646 -30Q587 -30 517 0T370 93V-365Q370 -381 407 -397T539 -427V-480H53V-427Q119 -411 154 -397T190 -365V704Q190 741 187 765T169 803T128 824T53 833V883Q95 890 129 898T195 915T256 935T318 960L355 923L364
750Q416 806 465 846T559 911T641 948T708 960Q776 960 835 930T937 840T1005 694T1030 495Z" />
<glyph unicode="q" glyph-name="q" horiz-adv-x="1078" d="M500 120Q532 120 562 131T623 163T683 209T743 264V720Q726 748 702 771T650 810T589 834T523 843Q470 843 422 821T336 755T277 644T255 485Q255 400 278 333T336 218T415 145T500 120ZM573 -480V-427Q667
-413 705 -398T743 -365V157Q703 112 665 77T588 18T507 -18T414 -30Q357 -30 297 2T188 96T107 245T75 444Q75 532 101 604T165 733T248 828T327 888Q384 920 444 940T551 960Q579 960 606 957T661 943T720 913T786 862Q804 872 823 885T861 912T895 938T920 960L954
928Q945 898 938 864Q932 835 928 795T923 710V-365Q923 -373 930 -381T953 -397T995 -412T1059 -427V-480H573Z" />
<glyph unicode="r" glyph-name="r" horiz-adv-x="844" d="M805 921Q814 915 812 882T802 804T780 716T755 644H702Q691 725 662 765T591 805Q570 805 543 790T485 742T426 654T370 521V114Q370 99 409 83T542 53V0H53V53Q119 68 154 82T190 114V679Q190 712 188
734T183 771T176 793T167 806Q160 813 152 817T131 825T100 829T53 833V883Q93 891 128 899T195 916T257 935T318 960L355 923L368 723Q395 773 427 816T496 891T573 941T657 960Q692 960 730 951T805 921Z" />
<glyph unicode="s" glyph-name="s" horiz-adv-x="813" d="M727 283Q727 212 707 162T654 76T581 20T500 -12T424 -26T366 -30Q339 -30 307 -26T241 -12T170 11T101 43Q94 46 92 76T89 147T95 231T108 301L163 290Q168 244 189 206T243 139T319 94T411 78Q483 78
525 115T567 220Q567 260 546 291T491 348T412 397T322 444Q280 465 240 489T169 544T118 612T99 698Q99 760 126 809T197 891T298 942T416 960Q451 960 490 955T567 939T637 915T691 883Q697 878 693 855T680 803T659 748T639 711L590 719Q550 796 500 830T395
865Q363 865 338 855T295 830T268 794T259 753Q259 721 277 696T325 648T396 604T482 559Q525 537 569 512T648 455T705 381T727 283Z" />
<glyph unicode="t" glyph-name="t" horiz-adv-x="723" d="M696 130Q586 49 495 10T351 -30Q314 -30 280 -16T221 30T180 110T165 229V825H39L15 856L93 930H165V1164L312 1283L345 1255V930H665L696 899Q687 884 674 867T646 835T619 808T595 790Q571 802 523
813T402 825H345V317Q345 260 351 222T369 161T400 128T445 118Q480 118 531 132T662 188L696 130Z" />
<glyph unicode="u" glyph-name="u" horiz-adv-x="1108" d="M1094 92Q1057 68 1020 46T949 7T891 -20T853 -30Q835 -30 820 -20T793 12T773 69T760 156Q698 96 647 60T554 3T476 -23T408 -30Q361 -30 318 -17T240 30T186 125T165 279V704Q165 752 163 778T148 818T111
837T39 847V897Q79 901 114 906T181 919T246 937T315 960L345 919V337Q345 269 354 225T382 155T426 119T486 108Q514 108 544 116T608 142T679 189T760 262V704Q760 749 756 776T738 818T696 839T623 847V897Q704 906 775 923T908 960L940 919V264Q940 202 944
168T963 124Q975 116 1001 120T1079 147L1094 92Z" />
<glyph unicode="v" glyph-name="v" horiz-adv-x="1020" d="M1002 877Q972 870 954 864T924 851T906 834T894 809L611 67Q602 45 585 29T546 0T503 -19T464 -30L126 809Q116 837 92 851T18 877V930H426V877Q387 872 363 867T327 855T314 836T318 809L554 214L775
809Q781 824 780 834T769 852T737 865T679 877V930H1002V877Z" />
<glyph unicode="w" glyph-name="w" horiz-adv-x="1454" d="M1435 877Q1405 870 1387 864T1359 851T1343 836T1335 815L1114 59Q1108 37 1090 22T1051 -4T1009 -21T975 -30L731 616L527 59Q519 36 502 21T465 -5T424 -21T391 -30L127 815Q116 855 18 877V930H426V877Q379
872 353 866T316 851T304 833T306 815L481 234L725 930H797L1054 234L1217 815Q1224 838 1202 852T1110 877V930H1435V877Z" />
<glyph unicode="x" glyph-name="x" horiz-adv-x="1043" d="M597 0V53Q622 55 643 59T677 72T689 97T668 140L488 386L309 140Q289 113 292 97T311 72T351 59T399 53V0H18V53Q57 59 84 68T130 90T163 116T188 146L427 470L196 788Q183 806 170 821T139 848T95 866T29
877V930H474V877Q443 874 422 869T390 855T382 830T403 790L547 591L691 790Q709 814 712 829T706 854T676 869T624 877V930H1005V877Q964 874 935 867T883 848T844 822T814 788L608 507L871 146Q883 131 896 117T928 90T971 67T1029 53V0H597Z" />
<glyph unicode="y" glyph-name="y" horiz-adv-x="1020" d="M1002 877Q972 870 953 864T922 851T904 834T892 809L558 -80Q516 -190 465 -269T358 -399T245 -474T132 -498Q94 -498 61 -493T2 -479T-37 -460T-52 -440Q-52 -433 -38 -413T-5 -368T37 -322T75 -290Q123
-319 172 -323T258 -313Q276 -307 298 -288T344 -239T390 -173T430 -92L459 -23L129 809Q119 837 94 851T18 877V930H426V877Q387 872 364 867T328 855T315 836T321 809L553 217L773 809Q778 824 777 834T764 852T729 865T670 877V930H1002V877Z" />
<glyph unicode="z" glyph-name="z" horiz-adv-x="923" d="M847 276Q847 244 846 204T844 125T840 52T835 0H97L71 45L617 830H300Q282 830 264 822T230 795T199 742T173 660L117 675L137 946Q159 940 177 937T214 932T257 930H828L850 887L301 100H697Q726 100
747 145T792 288L847 276Z" />
<glyph unicode="{" glyph-name="braceleft" horiz-adv-x="698" d="M664 1543Q625 1519 592 1489T534 1423T496 1346T482 1257Q482 1219 485 1191T492 1137T502 1090T512 1043T520 989T523 923Q523 881 510 841T473 765T414 700T338 653Q438 635 480 565T523 385Q523
327 517 284T503 202T489 125T482 38Q482 -13 489 -52T515 -124T567 -186T654 -244L626 -315Q539 -281 475 -245T369 -163T307 -62T286 67Q286 124 292 164T306 241T320 320T327 422Q327 503 289 542T179 581H158Q152 581 147 581T136 579T114 575L97 638Q212 669
269 728T327 863Q327 902 324 931T317 985T307 1030T297 1076T289 1130T286 1200Q286 1267 311 1325T382 1433T491 1524T633 1600L664 1543Z" />
<glyph unicode="|" glyph-name="bar" horiz-adv-x="469" d="M325 -351Q316 -359 302 -367T273 -382T241 -395T213 -405L175 -380V1619Q203 1636 230 1649T287 1670L325 1646V-351Z" />
<glyph unicode="}" glyph-name="braceright" horiz-adv-x="698" d="M603 646Q486 615 429 557T372 422Q372 383 375 354T382 301T392 255T401 209T409 156T412 86Q412 18 387 -40T317 -148T207 -239T66 -315L34 -257Q73 -233 106 -203T164 -137T202 -60T216 29Q216
85 210 123T196 195T182 268T176 364Q176 405 189 445T226 520T284 584T362 631Q261 650 219 720T176 901Q176 959 182 1002T195 1084T209 1161T216 1247Q216 1298 209 1338T183 1410T130 1471T44 1529L72 1600Q159 1567 223 1530T329 1448T391 1347T412 1219Q412
1162 406 1122T392 1045T378 966T372 864Q372 783 410 744T521 705H551Q556 705 563 706L586 711L603 646Z" />
<glyph unicode="~" glyph-name="asciitilde" horiz-adv-x="999" d="M950 774Q929 725 897 673T826 577T741 505T647 477Q605 477 558 502T463 557T367 612T276 637Q227 637 186 598T102 475L49 502Q70 551 102 603T174 699T259 771T352 799Q398 799 446 774T542
719T635 664T721 639Q769 639 812 678T897 799L950 774Z" />
<glyph unicode="&#xa0;" glyph-name="uni00A0" horiz-adv-x="471" />
<glyph unicode="&#xa1;" glyph-name="exclamdown" horiz-adv-x="582" d="M399 -472Q379 -484 355 -497T305 -524T257 -547T215 -564L170 -539L227 523Q247 538 267 546T313 562L340 543L399 -472ZM419 841Q419 805 407 775T373 722T325 687T266 674Q213 674 183
704T152 796Q152 832 163 862T195 914T244 948T305 961Q359 961 389 931T419 841Z" />
<glyph unicode="&#xa2;" glyph-name="cent" horiz-adv-x="986" d="M274 616Q274 547 290 491T334 393T400 323T483 281V958Q441 949 403 925T337 858T291 756T274 616ZM583 -3Q565 -19 550 -26T510 -41L483 -14V129Q413 133 344 164T221 253T133 394T99 586Q99
674 127 752T206 892T327 997T483 1062V1209Q497 1218 504 1223T517 1232T531 1238T554 1245L583 1221V1077Q594 1078 605 1078T627 1079Q660 1079 697 1074T770 1058T834 1033T880 999Q882 988 876 964T860 912T837 859T816 821L771 833Q763 848 748 868T709 906T655
940T583 961V267Q611 267 636 271T690 290T757 331T845 404L892 353Q841 294 799 254T721 189T651 152T583 134V-3Z" />
<glyph unicode="&#xa3;" glyph-name="sterling" horiz-adv-x="986" d="M650 531H400Q405 400 374 294T288 114Q333 118 367 119T429 120T481 118T530 116T583 114T649 114Q695 115 728 121T786 145T833 198T875 292L928 272Q924 229 919 187T907 108T895 43T885
0Q840 -25 777 -28T642 -24T493 -6T341 11T202 9T87 -30L59 27Q89 52 113 74T154 122T182 181T198 261T202 375T195 531H81L57 559Q62 574 70 595T84 632H189Q184 770 209 881T289 1071T428 1192T627 1235Q653 1235 680 1233T738 1224T807 1203T891 1165Q890 1139
886 1099T877 1018T865 939T852 883H795Q781 1008 723 1068T568 1129Q543 1129 518 1124T469 1102T426 1053T395 965T382 829T392 632H653L680 607L650 531Z" />
<glyph unicode="&#xa4;" glyph-name="currency" horiz-adv-x="986" d="M364 733Q337 706 323 671T309 601Q309 566 322 533T363 472Q391 444 425 431T495 417Q530 417 564 430T625 471Q651 499 665 533T679 602Q679 637 665 671T624 733Q597 760 564 773T495 787Q459
787 425 774T364 733ZM776 248L660 363Q623 337 581 325T495 313Q450 313 408 325T327 364L209 247L173 249Q165 264 156 282T139 317L256 435Q230 472 218 513T205 600Q205 645 218 687T257 768L140 886L142 922Q157 930 175 939T210 956L327 838Q405 893 495
893Q583 893 660 839L776 955L813 956L846 884L730 768Q784 691 784 600Q784 510 731 434L847 318L848 281L776 248Z" />
<glyph unicode="&#xa5;" glyph-name="yen" horiz-adv-x="986" d="M234 0V53Q279 62 310 72T360 91T387 109T395 125V420H118L96 445L108 482Q116 505 122 521H395V563Q360 638 322 712T244 854T167 982T94 1085Q85 1096 74 1106T46 1123T1 1134T-68 1138L-72 1191Q-43
1195 -10 1199T55 1206T115 1212T165 1214Q188 1214 211 1204T250 1173Q287 1124 321 1073T389 965T454 845T522 710L729 1085Q744 1111 720 1126T618 1151V1204H1021V1151Q953 1138 918 1125T868 1085L585 561V521H855L880 498L851 420H585V125Q585 119 593 111T620
92T670 72T749 53V0H234Z" />
<glyph unicode="&#xa6;" glyph-name="brokenbar" horiz-adv-x="469" d="M331 -352Q321 -360 305 -368T272 -383T238 -396T209 -406L169 -381V487Q198 504 229 517T292 541L331 514V-352ZM331 770Q321 762 305 754T272 739T238 726T209 716L169 741V1619Q198 1636
229 1649T292 1670L331 1646V770Z" />
<glyph unicode="&#xa7;" glyph-name="section" horiz-adv-x="982" d="M554 539Q579 526 605 513T657 484Q682 505 696 534T710 597Q710 645 692 682T638 754T545 823T413 899Q392 910 372 922T332 948Q318 938 307 923T289 891T277 857T273 824Q273 779 289 745T340
678T428 613T554 539ZM868 660Q868 616 859 579T834 510T798 453T754 408Q779 380 794 346T809 268Q809 197 789 148T736 65T663 13T582 -15T506 -27T447 -30Q421 -30 389 -24T322 -8T251 18T182 51Q175 54 173 84T171 155T176 238T189 308L245 297Q250 251 271
211T325 141T400 94T492 76Q564 76 606 107T649 205Q649 245 627 274T568 328T487 375T396 422Q336 455 284 489T195 566T136 659T114 776Q114 813 125 847T156 913T201 969T256 1013Q221 1051 201 1095T180 1193Q180 1255 207 1301T278 1378T379 1424T497 1440Q532
1440 571 1434T648 1416T719 1389T773 1356Q779 1350 775 1327T761 1275T740 1220T720 1183L671 1191Q631 1269 581 1307T476 1345Q412 1345 376 1318T340 1240Q340 1206 355 1179T400 1126T473 1074T571 1017Q632 982 686 949T780 876T844 783T868 660Z" />
<glyph unicode="&#xa8;" glyph-name="dieresis" horiz-adv-x="801" d="M716 1263Q716 1232 706 1205T679 1158T638 1125T587 1113Q538 1113 515 1140T491 1218Q491 1249 501 1276T529 1323T570 1355T620 1367Q716 1367 716 1263ZM309 1263Q309 1232 299 1205T272
1158T230 1125T179 1113Q130 1113 107 1140T84 1218Q84 1249 94 1276T122 1323T163 1355T213 1367Q260 1367 284 1341T309 1263Z" />
<glyph unicode="&#xa9;" glyph-name="copyright" horiz-adv-x="1472" d="M1035 383Q987 335 945 304T864 255T787 230T713 223Q647 223 583 250T470 327T390 449T359 614Q359 712 393 794T486 935T624 1027T795 1060Q867 1060 927 1040T1022 993Q1025 988 1019
970T1001 929T978 886T956 857L922 862Q907 883 889 902T850 937T802 961T743 971Q708 971 668 955T593 900T536 798T513 641Q513 565 540 507T608 408T697 348T788 327Q810 327 831 330T877 344T932 373T1002 420Q1005 419 1009 414T1019 402T1028 390T1035 383ZM1280
643Q1280 761 1240 865T1127 1048T954 1171T735 1216Q617 1216 518 1171T346 1048T233 866T192 643Q192 524 232 419T345 236T517 113T735 68Q854 68 954 113T1126 236T1239 419T1280 643ZM1377 643Q1377 550 1355 464T1293 303T1196 167T1067 62T912 -6T735 -30Q642
-30 559 -6T405 62T277 167T179 303T117 464T95 643Q95 782 143 904T276 1117T479 1260T735 1313Q874 1313 992 1261T1195 1117T1329 904T1377 643Z" />
<glyph unicode="&#xaa;" glyph-name="ordfeminine" horiz-adv-x="537" d="M526 779Q480 748 445 732T389 716Q375 716 361 735T341 800Q292 753 246 735T165 716Q145 716 124 722T86 741T58 776T47 830Q47 861 58 889T93 941T154 985T242 1017L338 1040V1056Q338
1087 335 1110T324 1150T300 1174T258 1183Q243 1183 228 1177T202 1160T186 1132T187 1096Q188 1091 173 1085T138 1074T98 1066T71 1064L62 1086Q69 1118 96 1147T160 1197T236 1231T307 1244Q343 1244 368 1235T410 1203T435 1145T443 1053V857Q443 829 447
817T457 797Q462 794 476 796T518 809L526 779ZM49 586V664H498V586H49ZM338 850V995L292 984Q217 964 188 933T158 858Q158 838 163 826T175 806T192 796T208 793Q236 793 268 806T338 850Z" />
<glyph unicode="&#xab;" glyph-name="guillemotleft" horiz-adv-x="1014" d="M75 430V465Q75 479 75 490T77 503L449 918L496 883L486 865Q477 847 462 818T426 751T385 674T345 598T310 531T285 485T276 467L497 47L449 12L75 430ZM458 430V465Q458 479 458 490T460
503L831 918L878 883L868 865Q859 847 844 818T808 751T767 674T727 598T692 531T667 485T658 467L879 47L831 12L458 430Z" />
<glyph unicode="&#xac;" glyph-name="logicalnot" horiz-adv-x="986" d="M911 233Q891 218 866 202T815 177L788 205V501H93L66 528Q69 538 73 550T82 576T92 601T102 623H880L911 599V233Z" />
<glyph unicode="&#xad;" glyph-name="uni00AD" horiz-adv-x="703" d="M644 549Q641 538 637 525T627 497T617 471T608 450H86L58 477Q63 499 74 527T94 575H617L644 549Z" />
<glyph unicode="&#xae;" glyph-name="registered" horiz-adv-x="730" d="M701 1084Q701 1012 676 948T606 836T499 761T364 733Q292 733 231 760T125 836T55 948T30 1084Q30 1157 55 1221T124 1332T230 1407T364 1435Q437 1435 499 1408T606 1333T676 1221T701
1084ZM637 1084Q637 1143 617 1195T560 1287T474 1348T364 1371Q305 1371 256 1349T170 1287T114 1196T93 1084Q93 1024 113 972T170 881T255 820T364 797Q424 797 474 819T560 881T616 972T637 1084ZM212 886V906Q254 915 254 924V1249Q243 1248 233 1247T212
1244L210 1275Q239 1282 273 1287T349 1292Q428 1292 466 1265T504 1196Q504 1149 477 1119T405 1076L505 936Q512 925 522 922T555 920L557 899Q537 893 513 887T478 881Q469 881 461 886T448 898L348 1069H344Q330 1069 315 1072V924Q315 920 324 916T356 906V886H212ZM338
1256H326Q321 1256 315 1255V1110Q322 1108 327 1108H340Q391 1108 413 1128T436 1187Q436 1216 414 1236T338 1256Z" />
<glyph unicode="&#xaf;" glyph-name="overscore" horiz-adv-x="1010" d="M872 1290Q870 1279 864 1263T852 1231T839 1199T828 1175H163L138 1202Q140 1213 146 1228T158 1260T172 1291T184 1316H847L872 1290Z" />
<glyph unicode="&#xb0;" glyph-name="degree" horiz-adv-x="733" d="M478 995Q478 1023 471 1048T451 1092T420 1123T378 1135Q354 1135 332 1126T293 1098T266 1055T256 998Q256 971 263 946T282 902T313 870T356 858Q379 858 401 867T440 893T467 936T478 995ZM602
1047Q602 983 577 929T513 835T425 773T328 750Q285 750 249 765T187 808T147 870T132 946Q132 1011 156 1065T220 1160T308 1222T406 1244Q446 1244 481 1228T544 1185T586 1123T602 1047Z" />
<glyph unicode="&#xb1;" glyph-name="plusminus" horiz-adv-x="840" d="M789 219Q786 208 782 195T772 169T762 144T753 124H86L58 150Q63 171 74 198T94 245H762L789 219ZM487 362Q467 352 439 343T389 329L362 353V632H86L58 658Q63 679 74 706T94 753H362V1025Q381
1031 409 1041T460 1056L487 1030V753H762L789 726Q786 716 782 703T772 677T762 652T753 632H487V362Z" />
<glyph unicode="&#xb2;" glyph-name="twosuperior" horiz-adv-x="686" d="M604 620H78L58 664Q141 747 202 810T308 923T380 1010T424 1076T447 1128T454 1174Q454 1228 428 1259T336 1291Q310 1291 290 1282T255 1256T234 1220T229 1177Q217 1171 201 1166T167
1157T131 1150T97 1145L77 1171Q77 1202 102 1235T169 1297T267 1343T384 1361Q433 1361 473 1351T543 1321T588 1270T604 1197Q604 1157 586 1117T525 1023T409 895T227 714H493Q516 714 530 729T552 765Q561 788 564 817L614 808L604 620Z" />
<glyph unicode="&#xb3;" glyph-name="threesuperior" horiz-adv-x="686" d="M606 849Q606 798 585 754T524 675T429 622T304 602Q243 602 174 626T42 702L67 754Q131 713 181 698T284 682Q359 682 405 720T452 832Q452 875 438 904T400 951T349 975T294 983H279Q274
983 270 983T260 981T243 979L233 1031Q294 1046 329 1064T383 1103T407 1145T412 1184Q412 1205 407 1224T388 1258T355 1282T307 1291Q283 1291 265 1284T234 1265T218 1236T218 1199Q192 1187 156 1179T86 1169L66 1194Q66 1219 88 1248T148 1303T238 1344T347
1361Q404 1361 445 1347T513 1309T552 1255T565 1195Q565 1172 555 1149T526 1105T481 1067T420 1039Q461 1035 495 1019T554 977T592 918T606 849Z" />
<glyph unicode="&#xb4;" glyph-name="acute" horiz-adv-x="653" d="M279 1045Q261 1048 243 1058T212 1078L439 1497Q451 1496 475 1493T525 1486T576 1477T611 1469L637 1425L279 1045Z" />
<glyph unicode="&#xb5;" glyph-name="mu" horiz-adv-x="1125" d="M1110 87Q1080 67 1046 47T979 9T917 -20T868 -31Q845 -31 829 -15T801 29T783 94T774 173Q694 70 624 20T493 -31Q440 -31 384 7T281 115V106Q280 1 292 -82T326 -229T374 -341T429 -419Q414 -424
385 -435T324 -458T264 -482T224 -500L183 -469V719Q183 758 181 780T167 815T129 833T56 844V894Q97 900 132 906T200 919T262 936T322 960L327 955Q332 950 338 943T352 928T363 915V371Q363 333 376 293T413 220T468 166T536 144Q560 144 585 148T640 169T702
214T773 293V748Q773 764 770 786T761 831T749 872T735 900Q783 911 837 927T938 960L969 919Q965 893 960 858T953 759V278Q953 185 962 150T992 114Q1014 114 1038 121T1095 142L1110 87Z" />
<glyph unicode="&#xb6;" glyph-name="paragraph" horiz-adv-x="1170" d="M457 -250V-197Q526 -183 563 -166T600 -135L601 530Q583 527 562 526T514 524Q416 524 331 548T182 619T81 738T44 903Q44 988 78 1059T175 1181T325 1261T518 1290Q540 1290 573 1289T645
1285T728 1281T814 1275Q913 1268 1023 1260H1093V1207Q1025 1193 987 1176T949 1145V-135Q949 -148 984 -165T1093 -197V-250H457ZM601 618L602 1192Q575 1194 552 1195T512 1196Q456 1196 407 1177T322 1123T264 1041T243 938Q243 884 261 827T317 724T414 648T557
618H601ZM816 1155L776 1165Q756 1170 736 1174V-135Q736 -146 750 -154T775 -166Q787 -163 801 -155T816 -135V1155Z" />
<glyph unicode="&#xb7;" glyph-name="middot" horiz-adv-x="340" d="M290 717Q290 685 280 659T251 613T207 582T153 571Q105 571 78 597T50 678Q50 710 61 736T90 782T134 813T186 824Q233 824 261 798T290 717Z" />
<glyph unicode="&#xb8;" glyph-name="cedilla" horiz-adv-x="469" d="M423 -229Q423 -266 403 -300T341 -362T240 -412T98 -444L71 -388Q120 -380 154 -367T211 -339T243 -307T253 -274Q253 -240 228 -226T146 -207Q148 -204 157 -180Q164 -160 179 -115T222 14L315
12L276 -99Q306 -105 333 -115T380 -142T411 -179T423 -229Z" />
<glyph unicode="&#xb9;" glyph-name="onesuperior" horiz-adv-x="686" d="M116 620V668Q171 674 205 680T260 694T287 708T295 722V1168Q295 1192 293 1205T282 1227Q278 1231 268 1233T238 1235T187 1231T110 1218L94 1265Q123 1272 168 1284T259 1312T347 1341T413
1367L441 1345V722Q441 716 447 709T470 695T520 681T606 668V620H116Z" />
<glyph unicode="&#xba;" glyph-name="ordmasculine" horiz-adv-x="577" d="M424 971Q424 1013 413 1051T381 1119T334 1165T275 1183Q245 1183 223 1168T184 1127T160 1065T152 986Q152 944 164 906T198 839T246 793T302 776Q330 776 352 790T391 831T415 893T424
971ZM56 586V664H521V586H56ZM532 990Q532 939 510 890T452 802T369 740T273 716Q221 716 179 735T107 787T61 867T44 969Q44 1021 64 1070T119 1158T201 1220T303 1244Q353 1244 395 1225T467 1171T515 1091T532 990Z" />
<glyph unicode="&#xbb;" glyph-name="guillemotright" horiz-adv-x="1014" d="M939 429L566 12L518 47L739 466L518 883L566 918L938 502L939 429ZM556 429L183 12L135 47L356 466L136 883L183 918L555 502L556 429Z" />
<glyph unicode="&#xbc;" glyph-name="onequarter" horiz-adv-x="1225" d="M966 484L772 227H966V484ZM1153 212Q1141 196 1129 184T1104 163H1073V61Q1073 57 1075 54T1085 48T1107 40T1145 32V0H853V32Q890 37 912 41T946 50T962 58T966 66V163H691L670 180L948
562Q973 571 1002 580T1051 598L1073 580V227H1138L1153 212ZM94 637V674Q138 678 166 683T211 694T234 706T240 717V1077Q240 1097 239 1107T230 1124Q227 1127 219 1129T194 1131T153 1127T90 1117L77 1153Q101 1158 136 1168T209 1191T279 1214T332 1235L353
1217V717Q353 712 358 707T378 695T419 684T488 674V637H94ZM314 3Q291 -8 263 -15T208 -30L183 0L988 1203Q1008 1211 1037 1220T1089 1235L1114 1207L314 3Z" />
<glyph unicode="&#xbd;" glyph-name="onehalf" horiz-adv-x="1225" d="M94 637V674Q138 678 166 683T211 694T234 706T240 717V1077Q240 1097 239 1107T230 1124Q227 1127 219 1129T194 1131T153 1127T90 1117L77 1153Q101 1158 136 1168T209 1191T279 1214T332
1235L353 1217V717Q353 712 358 707T378 695T419 684T488 674V637H94ZM314 3Q291 -8 263 -15T208 -30L183 0L988 1203Q1008 1211 1037 1220T1089 1235L1114 1207L314 3ZM1141 0H718L702 35Q802 134 864 200T962 312T1011 386T1024 443Q1024 487 1002 512T926 538Q904
538 887 530T858 509T841 480T836 446Q816 437 788 430T734 420L717 440Q717 465 737 492T792 541T870 578T964 593Q1043 593 1092 561T1141 462Q1141 430 1126 398T1074 322T979 219T832 73H1052Q1071 73 1082 85T1100 114Q1107 132 1109 155L1149 149L1141 0Z"
/>
<glyph unicode="&#xbe;" glyph-name="threequarters" horiz-adv-x="1225" d="M314 3Q291 -8 263 -15T208 -30L183 0L988 1203Q1008 1211 1037 1220T1089 1235L1114 1207L314 3ZM1153 212Q1141 196 1129 184T1104 163H1073V61Q1073 57 1075 54T1085 48T1107 40T1145
32V0H853V32Q890 37 912 41T946 50T962 58T966 66V163H691L670 180L948 562Q973 571 1002 580T1051 598L1073 580V227H1138L1153 212ZM525 824Q525 783 508 748T459 685T382 643T282 627Q233 627 178 645T71 706L92 744Q143 711 183 699T266 687Q327 687 366 717T405
809Q405 844 393 868T361 906T319 927T274 933H262Q258 933 254 933T245 931L232 930L225 970Q274 982 303 997T348 1028T368 1060T373 1092Q373 1125 353 1152T284 1179Q246 1179 225 1159T212 1105Q192 1096 163 1090T107 1082L90 1102Q90 1122 108 1145T156
1188T228 1221T316 1234Q362 1234 395 1223T450 1192T482 1149T492 1101Q492 1083 484 1065T460 1029T422 998T373 976Q406 973 434 960T482 926T513 880T525 824ZM966 484L772 227H966V484Z" />
<glyph unicode="&#xbf;" glyph-name="questiondown" horiz-adv-x="902" d="M427 523Q444 538 463 547T509 564L537 541L543 427Q547 370 529 315T480 205T414 99T347 -4T295 -104T274 -201Q274 -325 324 -391T468 -457Q500 -457 529 -442T581 -401T617 -340T631
-266Q631 -251 627 -236T617 -206Q634 -197 655 -190T701 -176T749 -166T796 -160L825 -193Q827 -201 827 -212V-231Q827 -302 792 -362T696 -465T558 -534T393 -559Q316 -559 257 -536T158 -472T96 -373T75 -246Q75 -171 99 -110T160 3T240 104T322 201T388 306T421
427L427 523ZM608 841Q608 805 596 775T562 722T513 687T453 674Q401 674 371 704T340 796Q340 832 352 862T384 914T432 948T492 960Q547 960 577 931T608 841Z" />
<glyph unicode="&#xc0;" glyph-name="Agrave" horiz-adv-x="1242" d="M754 540L582 1038L418 540H754ZM385 440L279 121Q269 90 305 76T423 53V0H0V53Q68 65 107 78T156 121L520 1227Q552 1257 594 1280T672 1317L1092 121Q1097 107 1105 96T1129 77T1166 63T1221
53V0H774V53Q852 58 881 73T899 121L789 440H385ZM792 1415Q778 1396 769 1385T742 1365L270 1605L278 1656Q285 1664 303 1676T341 1701T381 1725T412 1742L792 1415Z" />
<glyph unicode="&#xc1;" glyph-name="Aacute" horiz-adv-x="1242" d="M754 540L582 1038L418 540H754ZM385 440L279 121Q269 90 305 76T423 53V0H0V53Q68 65 107 78T156 121L520 1227Q552 1257 594 1280T672 1317L1092 121Q1097 107 1105 96T1129 77T1166 63T1221
53V0H774V53Q852 58 881 73T899 121L789 440H385ZM478 1365Q461 1373 450 1385T425 1417L805 1742Q820 1734 840 1722T881 1698T918 1675T943 1655L952 1608L478 1365Z" />
<glyph unicode="&#xc2;" glyph-name="Acircumflex" horiz-adv-x="1242" d="M754 540L582 1038L418 540H754ZM385 440L279 121Q269 90 305 76T423 53V0H0V53Q68 65 107 78T156 121L520 1227Q552 1257 594 1280T672 1317L1092 121Q1097 107 1105 96T1129 77T1166
63T1221 53V0H774V53Q852 58 881 73T899 121L789 440H385ZM933 1415Q921 1396 912 1385T885 1365L609 1558L335 1365Q318 1373 309 1384T285 1415L554 1729H666L933 1415Z" />
<glyph unicode="&#xc3;" glyph-name="Atilde" horiz-adv-x="1242" d="M754 540L582 1038L418 540H754ZM385 440L279 121Q269 90 305 76T423 53V0H0V53Q68 65 107 78T156 121L520 1227Q552 1257 594 1280T672 1317L1092 121Q1097 107 1105 96T1129 77T1166 63T1221
53V0H774V53Q852 58 881 73T899 121L789 440H385ZM969 1636Q951 1595 926 1552T869 1474T800 1416T721 1393Q684 1393 650 1410T584 1448T519 1486T455 1504Q414 1504 382 1472T312 1385L252 1407Q270 1448 295 1491T351 1570T420 1629T498 1652Q539 1652 575 1635T644
1597T706 1559T762 1541Q803 1541 838 1572T907 1662L969 1636Z" />
<glyph unicode="&#xc4;" glyph-name="Adieresis" horiz-adv-x="1242" d="M754 540L582 1038L418 540H754ZM385 440L279 121Q269 90 305 76T423 53V0H0V53Q68 65 107 78T156 121L520 1227Q552 1257 594 1280T672 1317L1092 121Q1097 107 1105 96T1129 77T1166 63T1221
53V0H774V53Q852 58 881 73T899 121L789 440H385ZM926 1543Q926 1512 916 1485T889 1438T848 1405T797 1393Q748 1393 725 1420T701 1498Q701 1529 711 1556T739 1603T780 1635T830 1647Q926 1647 926 1543ZM519 1543Q519 1512 509 1485T482 1438T440 1405T389
1393Q340 1393 317 1420T294 1498Q294 1529 304 1556T332 1603T373 1635T422 1647Q519 1647 519 1543Z" />
<glyph unicode="&#xc5;" glyph-name="Aring" horiz-adv-x="1242" d="M754 540L582 1038L418 540H754ZM385 440L279 121Q269 90 305 76T423 53V0H0V53Q68 65 107 78T156 121L520 1227Q552 1257 594 1280T672 1317L1092 121Q1097 107 1105 96T1129 77T1166 63T1221
53V0H774V53Q852 58 881 73T899 121L789 440H385ZM698 1563Q698 1611 676 1644T620 1677Q599 1677 581 1669T550 1645T529 1610T521 1565Q521 1519 543 1487T600 1454Q640 1454 669 1483T698 1563ZM803 1604Q803 1553 783 1509T732 1432T660 1382T579 1363Q543
1363 514 1375T462 1409T428 1460T416 1524Q416 1576 435 1620T487 1698T559 1749T641 1768Q676 1768 705 1755T757 1720T791 1668T803 1604Z" />
<glyph unicode="&#xc6;" glyph-name="AE" horiz-adv-x="1615" d="M769 1138Q769 1149 761 1154T740 1158T716 1147T696 1121L542 735H769V1138ZM1560 264Q1555 221 1550 180T1538 104T1527 42T1518 0H629V53Q697 67 733 83T769 114V642H505L293 121Q280 92 308
77T416 53V0H0V53Q66 64 103 78T154 121L559 1123Q566 1140 558 1151T526 1172T467 1190T381 1207V1260H1461L1493 1233Q1491 1207 1488 1174T1479 1106T1466 1040T1452 990H1397Q1392 1082 1373 1121T1315 1160H959V735H1362L1391 705Q1382 691 1371 674T1347
641T1322 610T1299 587Q1270 616 1227 629T1125 642H959V164Q959 149 966 138T996 118T1059 105T1166 100H1284Q1330 100 1362 107T1419 134T1464 190T1506 285L1560 264Z" />
<glyph unicode="&#xc7;" glyph-name="Ccedilla" horiz-adv-x="1113" d="M767 -229Q767 -266 747 -300T685 -362T583 -412T441 -444L414 -388Q463 -380 498 -367T554 -339T586 -307T596 -274Q596 -240 571 -226T490 -207Q492 -204 501 -180Q508 -160 523 -115Q534
-82 551 -29Q469 -24 389 12Q297 54 225 133T109 326T65 586Q65 746 113 876T246 1098T442 1240T681 1290Q735 1290 784 1282T877 1261T955 1229T1017 1190Q1023 1185 1013 1165T987 1121T952 1073T922 1037L877 1046Q826 1106 758 1139T602 1173Q568 1173 529
1161T451 1123T376 1054T313 950T270 808T253 623Q253 492 290 395T385 233T515 137T656 105Q683 105 719 113T798 139T890 188T994 264Q999 261 1005 254T1017 238T1028 222T1036 211Q972 144 913 98T796 24T684 -17Q664 -22 645 -25L619 -99Q649 -105 676 -115T723
-142T755 -179T767 -229Z" />
<glyph unicode="&#xc8;" glyph-name="Egrave" horiz-adv-x="1036" d="M979 264Q975 221 970 180T959 104T948 42T938 0H48V53Q116 67 153 83T190 114V1145Q190 1157 155 1175T48 1207V1260H879L914 1233Q912 1207 908 1174T898 1106T886 1040T873 990H818Q813
1082 793 1121T736 1160H380V735H783L811 705Q803 691 792 674T768 641T743 611T719 589Q704 604 687 614T647 631T594 641T521 644H380V164Q380 149 387 138T416 118T478 105T584 100H703Q749 100 781 107T839 134T884 190T926 285L979 264ZM695 1415Q681 1396
672 1385T645 1365L173 1605L181 1656Q188 1664 206 1676T244 1701T284 1725T315 1742L695 1415Z" />
<glyph unicode="&#xc9;" glyph-name="Eacute" horiz-adv-x="1036" d="M979 264Q975 221 970 180T959 104T948 42T938 0H48V53Q116 67 153 83T190 114V1145Q190 1157 155 1175T48 1207V1260H879L914 1233Q912 1207 908 1174T898 1106T886 1040T873 990H818Q813
1082 793 1121T736 1160H380V735H783L811 705Q803 691 792 674T768 641T743 611T719 589Q704 604 687 614T647 631T594 641T521 644H380V164Q380 149 387 138T416 118T478 105T584 100H703Q749 100 781 107T839 134T884 190T926 285L979 264ZM381 1365Q364 1373
353 1385T328 1417L708 1742Q723 1734 743 1722T784 1698T821 1675T846 1655L855 1608L381 1365Z" />
<glyph unicode="&#xca;" glyph-name="Ecircumflex" horiz-adv-x="1036" d="M979 264Q975 221 970 180T959 104T948 42T938 0H48V53Q116 67 153 83T190 114V1145Q190 1157 155 1175T48 1207V1260H879L914 1233Q912 1207 908 1174T898 1106T886 1040T873 990H818Q813
1082 793 1121T736 1160H380V735H783L811 705Q803 691 792 674T768 641T743 611T719 589Q704 604 687 614T647 631T594 641T521 644H380V164Q380 149 387 138T416 118T478 105T584 100H703Q749 100 781 107T839 134T884 190T926 285L979 264ZM836 1415Q824 1396
815 1385T788 1365L512 1558L238 1365Q221 1373 212 1384T188 1415L457 1729H569L836 1415Z" />
<glyph unicode="&#xcb;" glyph-name="Edieresis" horiz-adv-x="1036" d="M979 264Q975 221 970 180T959 104T948 42T938 0H48V53Q116 67 153 83T190 114V1145Q190 1157 155 1175T48 1207V1260H879L914 1233Q912 1207 908 1174T898 1106T886 1040T873 990H818Q813
1082 793 1121T736 1160H380V735H783L811 705Q803 691 792 674T768 641T743 611T719 589Q704 604 687 614T647 631T594 641T521 644H380V164Q380 149 387 138T416 118T478 105T584 100H703Q749 100 781 107T839 134T884 190T926 285L979 264ZM829 1543Q829 1512
819 1485T792 1438T751 1405T700 1393Q651 1393 628 1420T604 1498Q604 1529 614 1556T642 1603T683 1635T733 1647Q829 1647 829 1543ZM422 1543Q422 1512 412 1485T385 1438T343 1405T292 1393Q243 1393 220 1420T197 1498Q197 1529 207 1556T235 1603T276 1635T325
1647Q422 1647 422 1543Z" />
<glyph unicode="&#xcc;" glyph-name="Igrave" horiz-adv-x="630" d="M68 0V53Q136 67 173 83T210 114V1145Q210 1157 175 1175T68 1207V1260H543V1207Q475 1193 438 1176T400 1145V114Q400 102 435 85T543 53V0H68ZM487 1415Q473 1396 464 1385T437 1365L-35 1605L-27
1656Q-20 1664 -2 1676T36 1701T76 1725T107 1742L487 1415Z" />
<glyph unicode="&#xcd;" glyph-name="Iacute" horiz-adv-x="630" d="M68 0V53Q136 67 173 83T210 114V1145Q210 1157 175 1175T68 1207V1260H543V1207Q475 1193 438 1176T400 1145V114Q400 102 435 85T543 53V0H68ZM173 1365Q156 1373 145 1385T120 1417L500 1742Q515
1734 535 1722T576 1698T613 1675T638 1655L647 1608L173 1365Z" />
<glyph unicode="&#xce;" glyph-name="Icircumflex" horiz-adv-x="630" d="M68 0V53Q136 67 173 83T210 114V1145Q210 1157 175 1175T68 1207V1260H543V1207Q475 1193 438 1176T400 1145V114Q400 102 435 85T543 53V0H68ZM628 1415Q616 1396 607 1385T580 1365L304
1558L30 1365Q13 1373 4 1384T-20 1415L249 1729H361L628 1415Z" />
<glyph unicode="&#xcf;" glyph-name="Idieresis" horiz-adv-x="630" d="M68 0V53Q136 67 173 83T210 114V1145Q210 1157 175 1175T68 1207V1260H543V1207Q475 1193 438 1176T400 1145V114Q400 102 435 85T543 53V0H68ZM621 1543Q621 1512 611 1485T584 1438T543
1405T492 1393Q443 1393 420 1420T396 1498Q396 1529 406 1556T434 1603T475 1635T525 1647Q621 1647 621 1543ZM214 1543Q214 1512 204 1485T177 1438T135 1405T84 1393Q35 1393 12 1420T-11 1498Q-11 1529 -1 1556T27 1603T68 1635T117 1647Q214 1647 214 1543Z"
/>
<glyph unicode="&#xd0;" glyph-name="Eth" horiz-adv-x="1244" d="M1156 676Q1156 551 1131 453T1062 279T961 151T839 65T708 16T579 0H48V53Q116 67 153 83T190 114V615H49L27 640Q32 655 39 677T53 715H190V1178Q151 1173 115 1168T48 1158L37 1230Q83 1242
144 1253T272 1272T408 1285T538 1290Q682 1290 796 1249T991 1128T1113 935T1156 676ZM471 1199Q425 1199 380 1196V715H633L658 692L629 615H380V164Q380 142 388 127Q401 109 438 101T552 92Q617 92 688 124T818 224T915 393T953 637Q953 770 922 874T829 1051T678
1161T471 1199Z" />
<glyph unicode="&#xd1;" glyph-name="Ntilde" horiz-adv-x="1339" d="M48 0V53Q122 62 156 81T190 114V1138Q157 1168 122 1184T48 1207V1260H282Q297 1260 306 1258T326 1247T347 1224T378 1182L1020 295V1145Q1020 1151 1013 1159T990 1176T946 1193T878 1207V1260H1293V1207Q1221
1197 1186 1178T1150 1145V-30Q1085 -23 1047 -4T991 39L320 969V114Q320 108 328 100T353 83T397 66T463 53V0H48ZM1029 1636Q1011 1595 986 1552T929 1474T860 1416T781 1393Q744 1393 710 1410T644 1448T579 1486T515 1504Q474 1504 442 1472T372 1385L312 1407Q330
1448 355 1491T411 1570T480 1629T558 1652Q599 1652 635 1635T704 1597T766 1559T822 1541Q863 1541 898 1572T967 1662L1029 1636Z" />
<glyph unicode="&#xd2;" glyph-name="Ograve" horiz-adv-x="1244" d="M971 629Q971 698 959 765T925 892T870 1003T797 1091T708 1149T604 1170Q521 1170 456 1133T345 1028T277 861T253 641Q253 529 282 430T360 256T476 139T617 95Q694 95 759 129T871 230T944
397T971 629ZM1158 647Q1158 511 1112 389T987 173T804 25T583 -30Q460 -30 364 23T202 165T100 370T65 612Q65 748 109 871T230 1087T413 1235T641 1290Q767 1290 864 1236T1026 1091T1124 885T1158 647ZM805 1415Q791 1396 782 1385T755 1365L283 1605L291 1656Q298
1664 316 1676T354 1701T394 1725T425 1742L805 1415Z" />
<glyph unicode="&#xd3;" glyph-name="Oacute" horiz-adv-x="1244" d="M971 629Q971 698 959 765T925 892T870 1003T797 1091T708 1149T604 1170Q521 1170 456 1133T345 1028T277 861T253 641Q253 529 282 430T360 256T476 139T617 95Q694 95 759 129T871 230T944
397T971 629ZM1158 647Q1158 511 1112 389T987 173T804 25T583 -30Q460 -30 364 23T202 165T100 370T65 612Q65 748 109 871T230 1087T413 1235T641 1290Q767 1290 864 1236T1026 1091T1124 885T1158 647ZM491 1365Q474 1373 463 1385T438 1417L818 1742Q833 1734
853 1722T894 1698T931 1675T956 1655L965 1608L491 1365Z" />
<glyph unicode="&#xd4;" glyph-name="Ocircumflex" horiz-adv-x="1244" d="M971 629Q971 698 959 765T925 892T870 1003T797 1091T708 1149T604 1170Q521 1170 456 1133T345 1028T277 861T253 641Q253 529 282 430T360 256T476 139T617 95Q694 95 759 129T871
230T944 397T971 629ZM1158 647Q1158 511 1112 389T987 173T804 25T583 -30Q460 -30 364 23T202 165T100 370T65 612Q65 748 109 871T230 1087T413 1235T641 1290Q767 1290 864 1236T1026 1091T1124 885T1158 647ZM946 1415Q934 1396 925 1385T898 1365L622 1558L348
1365Q331 1373 322 1384T298 1415L567 1729H679L946 1415Z" />
<glyph unicode="&#xd5;" glyph-name="Otilde" horiz-adv-x="1244" d="M971 629Q971 698 959 765T925 892T870 1003T797 1091T708 1149T604 1170Q521 1170 456 1133T345 1028T277 861T253 641Q253 529 282 430T360 256T476 139T617 95Q694 95 759 129T871 230T944
397T971 629ZM1158 647Q1158 511 1112 389T987 173T804 25T583 -30Q460 -30 364 23T202 165T100 370T65 612Q65 748 109 871T230 1087T413 1235T641 1290Q767 1290 864 1236T1026 1091T1124 885T1158 647ZM982 1636Q964 1595 939 1552T882 1474T813 1416T734 1393Q697
1393 663 1410T597 1448T532 1486T468 1504Q427 1504 395 1472T325 1385L265 1407Q283 1448 308 1491T364 1570T433 1629T511 1652Q552 1652 588 1635T657 1597T719 1559T775 1541Q816 1541 851 1572T920 1662L982 1636Z" />
<glyph unicode="&#xd6;" glyph-name="Odieresis" horiz-adv-x="1244" d="M971 629Q971 698 959 765T925 892T870 1003T797 1091T708 1149T604 1170Q521 1170 456 1133T345 1028T277 861T253 641Q253 529 282 430T360 256T476 139T617 95Q694 95 759 129T871 230T944
397T971 629ZM1158 647Q1158 511 1112 389T987 173T804 25T583 -30Q460 -30 364 23T202 165T100 370T65 612Q65 748 109 871T230 1087T413 1235T641 1290Q767 1290 864 1236T1026 1091T1124 885T1158 647ZM939 1543Q939 1512 929 1485T902 1438T861 1405T810 1393Q761
1393 738 1420T714 1498Q714 1529 724 1556T752 1603T793 1635T843 1647Q939 1647 939 1543ZM532 1543Q532 1512 522 1485T495 1438T453 1405T402 1393Q353 1393 330 1420T307 1498Q307 1529 317 1556T345 1603T386 1635T435 1647Q532 1647 532 1543Z" />
<glyph unicode="&#xd7;" glyph-name="multiply" horiz-adv-x="848" d="M90 314L337 562L91 809V843Q111 852 141 863T193 879L423 648L653 879Q675 874 705 863T756 843V809L509 562L757 314V280Q747 276 733 271T705 260T678 251T655 244L423 476L192 244Q183
246 170 250T142 260T114 270T90 280V314Z" />
<glyph unicode="&#xd8;" glyph-name="Oslash" horiz-adv-x="1244" d="M971 629Q971 711 955 789T906 935L393 212Q440 157 497 126T617 95Q694 95 759 129T871 230T944 397T971 629ZM253 641Q253 554 270 475T319 330L833 1053Q787 1107 730 1138T604 1170Q521
1170 456 1133T345 1028T277 861T253 641ZM1021 1097Q1089 1006 1123 889T1158 647Q1158 511 1112 389T987 173T804 25T583 -30Q497 -30 425 -4T293 70L242 -2Q233 -10 215 -18T175 -32T134 -44T101 -53L72 -19L202 164Q135 254 100 369T65 612Q65 748 109 871T230
1087T413 1235T641 1290Q728 1290 800 1264T930 1191L982 1264Q1010 1281 1049 1294T1120 1313L1150 1279L1021 1097Z" />
<glyph unicode="&#xd9;" glyph-name="Ugrave" horiz-adv-x="1349" d="M1288 1207Q1220 1193 1183 1176T1145 1145V524Q1145 393 1112 290T1016 116T867 8T671 -30Q568 -30 480 -2T328 85T227 233T190 444V1145Q190 1157 155 1175T48 1207V1260H523V1207Q455 1193
418 1176T380 1145V499Q380 307 463 201T718 95Q789 95 842 128T930 217T982 343T1000 488V1145Q1000 1157 965 1175T858 1207V1260H1288V1207ZM864 1415Q850 1396 841 1385T814 1365L342 1605L350 1656Q357 1664 375 1676T413 1701T453 1725T484 1742L864 1415Z"
/>
<glyph unicode="&#xda;" glyph-name="Uacute" horiz-adv-x="1349" d="M1288 1207Q1220 1193 1183 1176T1145 1145V524Q1145 393 1112 290T1016 116T867 8T671 -30Q568 -30 480 -2T328 85T227 233T190 444V1145Q190 1157 155 1175T48 1207V1260H523V1207Q455 1193
418 1176T380 1145V499Q380 307 463 201T718 95Q789 95 842 128T930 217T982 343T1000 488V1145Q1000 1157 965 1175T858 1207V1260H1288V1207ZM550 1365Q533 1373 522 1385T497 1417L877 1742Q892 1734 912 1722T953 1698T990 1675T1015 1655L1024 1608L550 1365Z"
/>
<glyph unicode="&#xdb;" glyph-name="Ucircumflex" horiz-adv-x="1349" d="M1288 1207Q1220 1193 1183 1176T1145 1145V524Q1145 393 1112 290T1016 116T867 8T671 -30Q568 -30 480 -2T328 85T227 233T190 444V1145Q190 1157 155 1175T48 1207V1260H523V1207Q455
1193 418 1176T380 1145V499Q380 307 463 201T718 95Q789 95 842 128T930 217T982 343T1000 488V1145Q1000 1157 965 1175T858 1207V1260H1288V1207ZM1005 1415Q993 1396 984 1385T957 1365L681 1558L407 1365Q390 1373 381 1384T357 1415L626 1729H738L1005 1415Z"
/>
<glyph unicode="&#xdc;" glyph-name="Udieresis" horiz-adv-x="1349" d="M1288 1207Q1220 1193 1183 1176T1145 1145V524Q1145 393 1112 290T1016 116T867 8T671 -30Q568 -30 480 -2T328 85T227 233T190 444V1145Q190 1157 155 1175T48 1207V1260H523V1207Q455
1193 418 1176T380 1145V499Q380 307 463 201T718 95Q789 95 842 128T930 217T982 343T1000 488V1145Q1000 1157 965 1175T858 1207V1260H1288V1207ZM998 1543Q998 1512 988 1485T961 1438T920 1405T869 1393Q820 1393 797 1420T773 1498Q773 1529 783 1556T811
1603T852 1635T902 1647Q998 1647 998 1543ZM591 1543Q591 1512 581 1485T554 1438T512 1405T461 1393Q412 1393 389 1420T366 1498Q366 1529 376 1556T404 1603T445 1635T494 1647Q591 1647 591 1543Z" />
<glyph unicode="&#xdd;" glyph-name="Yacute" horiz-adv-x="1230" d="M355 0V53Q446 72 481 91T517 125V535Q480 616 434 702T340 871T247 1023T166 1141Q157 1152 146 1161T118 1178T73 1190T4 1194L0 1247Q29 1251 61 1255T125 1262T185 1268T234 1270Q258 1270
280 1260T320 1229Q357 1180 399 1115T483 978T566 829T642 680L899 1141Q914 1167 890 1182T788 1207V1260H1191V1207Q1123 1194 1088 1180T1038 1141L707 536V125Q707 119 715 111T741 92T791 72T870 53V0H355ZM480 1365Q463 1373 452 1385T427 1417L807 1742Q822
1734 842 1722T883 1698T920 1675T945 1655L954 1608L480 1365Z" />
<glyph unicode="&#xde;" glyph-name="Thorn" horiz-adv-x="1101" d="M47 0V53Q115 67 152 83T190 114V1145Q190 1157 155 1175T47 1207V1260H553V1207Q502 1198 469 1190T416 1175T388 1160T380 1145V1018Q413 1020 450 1021T530 1023Q641 1023 730 1000T884 932T982
821T1017 669Q1017 600 998 543T946 441T871 362T783 306T691 274T603 263Q557 263 516 270T440 295L414 377Q456 358 492 353T563 348Q608 348 655 365T742 417T805 504T830 628Q830 707 803 764T727 858T614 913T473 931Q426 931 380 928V114Q380 108 387 101T414
86T467 70T553 53V0H47Z" />
<glyph unicode="&#xdf;" glyph-name="germandbls" horiz-adv-x="1201" d="M1123 283Q1123 223 1102 167T1038 67T927 -3T767 -30Q735 -30 692 -23T609 -4T537 21T499 46Q495 51 493 70T491 115T492 171T495 227T502 274T511 301L563 288Q572 233 596 193T653 128T726
90T803 78Q837 78 866 87T917 114T951 157T963 215Q963 282 930 327T845 405T736 467T626 531T542 612T508 729Q508 795 532 836T593 905T673 952T752 993T813 1044T838 1122Q838 1176 823 1229T777 1324T698 1392T585 1418Q538 1418 499 1401T431 1339T386 1214T370
1011V0H53V53Q121 65 155 82T190 112V956Q190 1076 208 1158T257 1297T326 1390T403 1458Q459 1500 529 1525T676 1550Q765 1550 830 1516T937 1428T999 1312T1020 1190Q1020 1108 995 1056T931 971T848 917T765 877T702 834T676 770Q676 737 695 712T745 665T817
624T899 582T981 534T1053 472T1104 391T1123 283Z" />
<glyph unicode="&#xe0;" glyph-name="agrave" horiz-adv-x="968" d="M372 115Q424 115 485 142T623 235V481Q547 469 497 457T414 433T362 407T327 377Q301 350 285 317T269 239Q269 201 280 177T307 139T341 120T372 115ZM956 92Q871 33 805 2T707 -30Q672 -30
650 15T623 139Q578 93 533 61T446 9T364 -21T293 -30Q255 -30 217 -18T147 22T95 91T75 191Q75 264 101 314T164 401Q188 425 219 447T300 489T428 527T623 564V697Q623 730 616 758T591 807T543 839T468 850Q438 850 410 840T360 813T326 772T317 717Q318 711
306 703T274 687T231 672T185 660T144 653T117 652L101 696Q124 749 173 797T285 881T420 938T562 960Q681 960 742 899T803 735V198Q803 156 814 138T843 120Q857 120 878 125T939 147L956 92ZM622 1081Q609 1069 591 1060T556 1045L194 1422L218 1468Q228 1471
251 1475T300 1484T352 1492T389 1497L622 1081Z" />
<glyph unicode="&#xe1;" glyph-name="aacute" horiz-adv-x="968" d="M372 115Q424 115 485 142T623 235V481Q547 469 497 457T414 433T362 407T327 377Q301 350 285 317T269 239Q269 201 280 177T307 139T341 120T372 115ZM956 92Q871 33 805 2T707 -30Q672 -30
650 15T623 139Q578 93 533 61T446 9T364 -21T293 -30Q255 -30 217 -18T147 22T95 91T75 191Q75 264 101 314T164 401Q188 425 219 447T300 489T428 527T623 564V697Q623 730 616 758T591 807T543 839T468 850Q438 850 410 840T360 813T326 772T317 717Q318 711
306 703T274 687T231 672T185 660T144 653T117 652L101 696Q124 749 173 797T285 881T420 938T562 960Q681 960 742 899T803 735V198Q803 156 814 138T843 120Q857 120 878 125T939 147L956 92ZM443 1045Q425 1048 406 1058T376 1078L602 1497Q614 1496 638 1493T689
1486T740 1477T775 1469L800 1425L443 1045Z" />
<glyph unicode="&#xe2;" glyph-name="acircumflex" horiz-adv-x="968" d="M372 115Q424 115 485 142T623 235V481Q547 469 497 457T414 433T362 407T327 377Q301 350 285 317T269 239Q269 201 280 177T307 139T341 120T372 115ZM956 92Q871 33 805 2T707 -30Q672
-30 650 15T623 139Q578 93 533 61T446 9T364 -21T293 -30Q255 -30 217 -18T147 22T95 91T75 191Q75 264 101 314T164 401Q188 425 219 447T300 489T428 527T623 564V697Q623 730 616 758T591 807T543 839T468 850Q438 850 410 840T360 813T326 772T317 717Q318
711 306 703T274 687T231 672T185 660T144 653T117 652L101 696Q124 749 173 797T285 881T420 938T562 960Q681 960 742 899T803 735V198Q803 156 814 138T843 120Q857 120 878 125T939 147L956 92ZM815 1097Q803 1078 794 1066T767 1045L491 1298L217 1045Q200
1053 190 1065T165 1097L434 1479H551L815 1097Z" />
<glyph unicode="&#xe3;" glyph-name="atilde" horiz-adv-x="968" d="M372 115Q424 115 485 142T623 235V481Q547 469 497 457T414 433T362 407T327 377Q301 350 285 317T269 239Q269 201 280 177T307 139T341 120T372 115ZM956 92Q871 33 805 2T707 -30Q672 -30
650 15T623 139Q578 93 533 61T446 9T364 -21T293 -30Q255 -30 217 -18T147 22T95 91T75 191Q75 264 101 314T164 401Q188 425 219 447T300 489T428 527T623 564V697Q623 730 616 758T591 807T543 839T468 850Q438 850 410 840T360 813T326 772T317 717Q318 711
306 703T274 687T231 672T185 660T144 653T117 652L101 696Q124 749 173 797T285 881T420 938T562 960Q681 960 742 899T803 735V198Q803 156 814 138T843 120Q857 120 878 125T939 147L956 92ZM851 1356Q833 1315 808 1272T751 1194T682 1136T603 1113Q566 1113
532 1130T466 1168T401 1206T337 1224Q296 1224 264 1192T194 1105L134 1127Q152 1168 177 1211T233 1290T302 1349T380 1372Q421 1372 457 1355T526 1317T588 1279T644 1261Q685 1261 720 1292T789 1382L851 1356Z" />
<glyph unicode="&#xe4;" glyph-name="adieresis" horiz-adv-x="968" d="M372 115Q424 115 485 142T623 235V481Q547 469 497 457T414 433T362 407T327 377Q301 350 285 317T269 239Q269 201 280 177T307 139T341 120T372 115ZM956 92Q871 33 805 2T707 -30Q672
-30 650 15T623 139Q578 93 533 61T446 9T364 -21T293 -30Q255 -30 217 -18T147 22T95 91T75 191Q75 264 101 314T164 401Q188 425 219 447T300 489T428 527T623 564V697Q623 730 616 758T591 807T543 839T468 850Q438 850 410 840T360 813T326 772T317 717Q318
711 306 703T274 687T231 672T185 660T144 653T117 652L101 696Q124 749 173 797T285 881T420 938T562 960Q681 960 742 899T803 735V198Q803 156 814 138T843 120Q857 120 878 125T939 147L956 92ZM808 1263Q808 1232 798 1205T771 1158T730 1125T679 1113Q630
1113 607 1140T583 1218Q583 1249 593 1276T621 1323T662 1355T712 1367Q808 1367 808 1263ZM401 1263Q401 1232 391 1205T364 1158T322 1125T271 1113Q222 1113 199 1140T176 1218Q176 1249 186 1276T214 1323T255 1355T304 1367Q401 1367 401 1263Z" />
<glyph unicode="&#xe5;" glyph-name="aring" horiz-adv-x="968" d="M372 115Q424 115 485 142T623 235V481Q547 469 497 457T414 433T362 407T327 377Q301 350 285 317T269 239Q269 201 280 177T307 139T341 120T372 115ZM956 92Q871 33 805 2T707 -30Q672 -30
650 15T623 139Q578 93 533 61T446 9T364 -21T293 -30Q255 -30 217 -18T147 22T95 91T75 191Q75 264 101 314T164 401Q188 425 219 447T300 489T428 527T623 564V697Q623 730 616 758T591 807T543 839T468 850Q438 850 410 840T360 813T326 772T317 717Q318 711
306 703T274 687T231 672T185 660T144 653T117 652L101 696Q124 749 173 797T285 881T420 938T562 960Q681 960 742 899T803 735V198Q803 156 814 138T843 120Q857 120 878 125T939 147L956 92ZM580 1243Q580 1291 558 1324T502 1357Q481 1357 463 1349T432 1325T411
1290T403 1245Q403 1199 425 1167T482 1134Q522 1134 551 1163T580 1243ZM685 1284Q685 1233 665 1189T614 1112T542 1062T461 1043Q425 1043 396 1055T344 1089T310 1140T298 1204Q298 1256 317 1300T369 1378T441 1429T523 1448Q558 1448 587 1435T639 1400T673
1348T685 1284Z" />
<glyph unicode="&#xe6;" glyph-name="ae" horiz-adv-x="1445" d="M1370 555Q1350 535 1317 515T1251 482H803Q802 469 802 454V426Q802 372 817 317T863 217T936 144T1036 115Q1067 115 1096 119T1158 137T1230 176T1320 244Q1333 237 1345 220T1362 195Q1302
125 1252 81T1155 13T1062 -21T965 -30Q921 -30 878 -16T795 25T722 91T665 180Q621 127 571 88T472 22T376 -17T293 -30Q257 -30 219 -18T148 20T96 89T75 191Q75 250 98 304T168 405T289 490T461 555Q492 563 536 568T626 576V660Q626 701 620 735T597 795T552
835T480 850Q450 850 416 837T356 801T316 748T316 681Q318 675 306 667T275 652T232 637T185 625T144 618T117 618L101 659Q111 703 139 742T205 815T290 875T383 921T474 950T553 960Q637 960 689 928T768 829Q801 866 836 891T908 931T978 953T1042 960Q1133
960 1195 924T1297 829T1353 699T1370 555ZM640 250Q626 306 626 365V478Q592 476 565 474T526 467Q455 450 406 426T326 373T281 310T267 239Q267 202 278 178T305 140T340 121T372 115Q424 115 496 147T640 250ZM1013 855Q990 855 961 845T902 805T849 721T812
580H1146Q1167 580 1175 587T1184 616Q1184 665 1174 709T1142 785T1088 836T1013 855Z" />
<glyph unicode="&#xe7;" glyph-name="ccedilla" horiz-adv-x="908" d="M673 -229Q673 -266 653 -300T591 -362T489 -412T347 -444L320 -388Q369 -380 404 -367T460 -339T492 -307T502 -274Q502 -240 477 -226T396 -207Q398 -204 407 -180Q414 -160 429 -115Q440
-82 457 -30Q388 -27 323 2Q252 35 197 96T109 245T75 444Q75 552 114 646T223 809T388 919T595 960Q628 960 665 955T736 939T799 914T845 881Q847 869 841 842T825 785T802 727T781 685L734 695Q723 723 705 750T659 798T595 832T510 845Q460 845 414 823T333
755T277 640T255 475Q255 392 279 325T343 211T436 139T547 113Q575 113 600 116T654 131T721 168T814 239L858 190Q793 114 742 71T646 5T559 -24L551 -25L525 -99Q555 -105 582 -115T629 -142T661 -179T673 -229Z" />
<glyph unicode="&#xe8;" glyph-name="egrave" horiz-adv-x="961" d="M501 850Q451 850 411 831T340 776T291 690T263 580H659Q682 580 689 587T697 616Q697 644 689 684T660 761T600 824T501 850ZM886 555Q868 535 833 516T766 483H258Q259 407 279 340T335 222T422
143T539 113Q570 113 599 117T663 134T739 174T838 244Q851 237 863 220T880 195Q812 123 760 79T662 11T570 -22T470 -30Q390 -30 319 3T193 98T107 245T75 437Q75 504 89 568T131 688T199 792T291 876Q315 893 344 908T404 934T469 953T532 960Q597 960 649 943T740
897T807 827T852 742T878 649T886 555ZM649 1081Q636 1069 618 1060T583 1045L221 1422L245 1468Q255 1471 278 1475T327 1484T379 1492T416 1497L649 1081Z" />
<glyph unicode="&#xe9;" glyph-name="eacute" horiz-adv-x="961" d="M501 850Q451 850 411 831T340 776T291 690T263 580H659Q682 580 689 587T697 616Q697 644 689 684T660 761T600 824T501 850ZM886 555Q868 535 833 516T766 483H258Q259 407 279 340T335 222T422
143T539 113Q570 113 599 117T663 134T739 174T838 244Q851 237 863 220T880 195Q812 123 760 79T662 11T570 -22T470 -30Q390 -30 319 3T193 98T107 245T75 437Q75 504 89 568T131 688T199 792T291 876Q315 893 344 908T404 934T469 953T532 960Q597 960 649 943T740
897T807 827T852 742T878 649T886 555ZM470 1045Q452 1048 433 1058T403 1078L629 1497Q641 1496 665 1493T716 1486T767 1477T802 1469L827 1425L470 1045Z" />
<glyph unicode="&#xea;" glyph-name="ecircumflex" horiz-adv-x="961" d="M501 850Q451 850 411 831T340 776T291 690T263 580H659Q682 580 689 587T697 616Q697 644 689 684T660 761T600 824T501 850ZM886 555Q868 535 833 516T766 483H258Q259 407 279 340T335
222T422 143T539 113Q570 113 599 117T663 134T739 174T838 244Q851 237 863 220T880 195Q812 123 760 79T662 11T570 -22T470 -30Q390 -30 319 3T193 98T107 245T75 437Q75 504 89 568T131 688T199 792T291 876Q315 893 344 908T404 934T469 953T532 960Q597 960
649 943T740 897T807 827T852 742T878 649T886 555ZM842 1097Q830 1078 821 1066T794 1045L518 1298L244 1045Q227 1053 217 1065T192 1097L461 1479H578L842 1097Z" />
<glyph unicode="&#xeb;" glyph-name="edieresis" horiz-adv-x="961" d="M501 850Q451 850 411 831T340 776T291 690T263 580H659Q682 580 689 587T697 616Q697 644 689 684T660 761T600 824T501 850ZM886 555Q868 535 833 516T766 483H258Q259 407 279 340T335
222T422 143T539 113Q570 113 599 117T663 134T739 174T838 244Q851 237 863 220T880 195Q812 123 760 79T662 11T570 -22T470 -30Q390 -30 319 3T193 98T107 245T75 437Q75 504 89 568T131 688T199 792T291 876Q315 893 344 908T404 934T469 953T532 960Q597 960
649 943T740 897T807 827T852 742T878 649T886 555ZM835 1263Q835 1232 825 1205T798 1158T757 1125T706 1113Q657 1113 634 1140T610 1218Q610 1249 620 1276T648 1323T689 1355T739 1367Q835 1367 835 1263ZM428 1263Q428 1232 418 1205T391 1158T349 1125T298
1113Q249 1113 226 1140T203 1218Q203 1249 213 1276T241 1323T282 1355T331 1367Q428 1367 428 1263Z" />
<glyph unicode="&#xec;" glyph-name="igrave" horiz-adv-x="575" d="M68 0V53Q136 67 170 83T205 114V663Q205 714 204 745T190 794T149 820T68 833V883Q139 895 211 915T341 960H385V114Q385 102 417 85T523 53V0H68ZM425 1081Q412 1069 394 1060T359 1045L-3
1422L21 1468Q31 1471 54 1475T103 1484T155 1492T192 1497L425 1081Z" />
<glyph unicode="&#xed;" glyph-name="iacute" horiz-adv-x="575" d="M68 0V53Q136 67 170 83T205 114V663Q205 714 204 745T190 794T149 820T68 833V883Q139 895 211 915T341 960H385V114Q385 102 417 85T523 53V0H68ZM246 1045Q228 1048 209 1058T179 1078L405
1497Q417 1496 441 1493T492 1486T543 1477T578 1469L603 1425L246 1045Z" />
<glyph unicode="&#xee;" glyph-name="icircumflex" horiz-adv-x="575" d="M68 0V53Q136 67 170 83T205 114V663Q205 714 204 745T190 794T149 820T68 833V883Q139 895 211 915T341 960H385V114Q385 102 417 85T523 53V0H68ZM618 1097Q606 1078 597 1066T570 1045L294
1298L20 1045Q3 1053 -7 1065T-32 1097L237 1479H354L618 1097Z" />
<glyph unicode="&#xef;" glyph-name="idieresis" horiz-adv-x="575" d="M68 0V53Q136 67 170 83T205 114V663Q205 714 204 745T190 794T149 820T68 833V883Q139 895 211 915T341 960H385V114Q385 102 417 85T523 53V0H68ZM611 1263Q611 1232 601 1205T574 1158T533
1125T482 1113Q433 1113 410 1140T386 1218Q386 1249 396 1276T424 1323T465 1355T515 1367Q611 1367 611 1263ZM204 1263Q204 1232 194 1205T167 1158T125 1125T74 1113Q25 1113 2 1140T-21 1218Q-21 1249 -11 1276T17 1323T58 1355T107 1367Q204 1367 204 1263Z"
/>
<glyph unicode="&#xf0;" glyph-name="eth" horiz-adv-x="1029" d="M770 595Q752 651 720 696T647 774T564 825T480 843Q426 843 385 816T316 741T274 625T260 478Q260 399 283 328T344 202T426 117T514 85Q569 85 616 112T697 197T750 344T770 556Q770 563 770
576T770 595ZM950 597Q950 481 928 390T870 229T786 110T690 30T592 -15T504 -30Q403 -30 324 6T189 105T105 255T75 444Q75 510 91 574T136 695T205 801T292 885T394 940T506 960Q536 960 567 951T628 927T686 890T738 843Q712 937 668 1012T555 1159L334 1065Q315
1066 304 1067T282 1070T260 1075T232 1083L221 1122L479 1233Q451 1255 421 1274T357 1305T285 1321T205 1320L197 1371L420 1450Q476 1413 527 1374T622 1295L823 1381Q847 1378 861 1376T885 1371T905 1366T928 1359L935 1322L696 1220Q832 1072 891 914T950
597Z" />
<glyph unicode="&#xf1;" glyph-name="ntilde" horiz-adv-x="1150" d="M668 0V53Q740 72 772 86T805 114V618Q805 677 799 715T779 774T741 804T685 813Q656 813 622 801T548 762T463 690T370 579V114Q370 99 406 83T508 53V0H53V53Q119 70 154 83T190 114V704Q190
743 188 766T172 802T132 821T53 833V883Q130 894 193 913T318 960L355 923L366 709Q415 770 468 817T574 895T676 943T764 960Q807 960 847 947T917 905T966 834T985 729V114Q985 107 992 101T1015 87T1057 72T1123 53V0H668ZM946 1356Q928 1315 903 1272T846
1194T777 1136T698 1113Q661 1113 627 1130T561 1168T496 1206T432 1224Q391 1224 359 1192T289 1105L229 1127Q247 1168 272 1211T328 1290T397 1349T475 1372Q516 1372 552 1355T621 1317T683 1279T739 1261Q780 1261 815 1292T884 1382L946 1356Z" />
<glyph unicode="&#xf2;" glyph-name="ograve" d="M783 450Q783 529 760 600T700 726T614 813T514 845Q442 845 394 817T317 738T276 620T263 473Q263 394 287 324T351 200T438 116T532 85Q599 85 646 110T724 183T769 298T783 450ZM970 485Q970 385 933 292T831
128T683 13T504 -30Q406 -30 327 6T192 105T106 255T75 444Q75 510 91 574T138 695T210 801T305 885T417 940T543 960Q640 960 718 924T853 825T939 674T970 485ZM673 1081Q660 1069 642 1060T607 1045L245 1422L269 1468Q279 1471 302 1475T351 1484T403 1492T440
1497L673 1081Z" />
<glyph unicode="&#xf3;" glyph-name="oacute" d="M783 450Q783 529 760 600T700 726T614 813T514 845Q442 845 394 817T317 738T276 620T263 473Q263 394 287 324T351 200T438 116T532 85Q599 85 646 110T724 183T769 298T783 450ZM970 485Q970 385 933 292T831
128T683 13T504 -30Q406 -30 327 6T192 105T106 255T75 444Q75 510 91 574T138 695T210 801T305 885T417 940T543 960Q640 960 718 924T853 825T939 674T970 485ZM494 1045Q476 1048 457 1058T427 1078L653 1497Q665 1496 689 1493T740 1486T791 1477T826 1469L851
1425L494 1045Z" />
<glyph unicode="&#xf4;" glyph-name="ocircumflex" d="M783 450Q783 529 760 600T700 726T614 813T514 845Q442 845 394 817T317 738T276 620T263 473Q263 394 287 324T351 200T438 116T532 85Q599 85 646 110T724 183T769 298T783 450ZM970 485Q970 385 933 292T831
128T683 13T504 -30Q406 -30 327 6T192 105T106 255T75 444Q75 510 91 574T138 695T210 801T305 885T417 940T543 960Q640 960 718 924T853 825T939 674T970 485ZM866 1097Q854 1078 845 1066T818 1045L542 1298L268 1045Q251 1053 241 1065T216 1097L485 1479H602L866
1097Z" />
<glyph unicode="&#xf5;" glyph-name="otilde" d="M783 450Q783 529 760 600T700 726T614 813T514 845Q442 845 394 817T317 738T276 620T263 473Q263 394 287 324T351 200T438 116T532 85Q599 85 646 110T724 183T769 298T783 450ZM970 485Q970 385 933 292T831
128T683 13T504 -30Q406 -30 327 6T192 105T106 255T75 444Q75 510 91 574T138 695T210 801T305 885T417 940T543 960Q640 960 718 924T853 825T939 674T970 485ZM902 1356Q884 1315 859 1272T802 1194T733 1136T654 1113Q617 1113 583 1130T517 1168T452 1206T388
1224Q347 1224 315 1192T245 1105L185 1127Q203 1168 228 1211T284 1290T353 1349T431 1372Q472 1372 508 1355T577 1317T639 1279T695 1261Q736 1261 771 1292T840 1382L902 1356Z" />
<glyph unicode="&#xf6;" glyph-name="odieresis" d="M783 450Q783 529 760 600T700 726T614 813T514 845Q442 845 394 817T317 738T276 620T263 473Q263 394 287 324T351 200T438 116T532 85Q599 85 646 110T724 183T769 298T783 450ZM970 485Q970 385 933 292T831
128T683 13T504 -30Q406 -30 327 6T192 105T106 255T75 444Q75 510 91 574T138 695T210 801T305 885T417 940T543 960Q640 960 718 924T853 825T939 674T970 485ZM859 1263Q859 1232 849 1205T822 1158T781 1125T730 1113Q681 1113 658 1140T634 1218Q634 1249
644 1276T672 1323T713 1355T763 1367Q859 1367 859 1263ZM452 1263Q452 1232 442 1205T415 1158T373 1125T322 1113Q273 1113 250 1140T227 1218Q227 1249 237 1276T265 1323T306 1355T355 1367Q452 1367 452 1263Z" />
<glyph unicode="&#xf7;" glyph-name="divide" horiz-adv-x="848" d="M512 335Q512 311 504 289T483 251T451 225T411 215Q372 215 355 237T337 300Q337 325 345 346T366 384T398 409T438 418Q512 418 512 335ZM512 828Q512 804 504 782T483 744T451 718T411 708Q372
708 355 730T337 793Q337 818 345 839T366 877T398 902T438 912Q512 912 512 828ZM789 596Q786 586 782 573T772 547T762 522T753 502H86L58 528Q63 549 74 576T94 623H762L789 596Z" />
<glyph unicode="&#xf8;" glyph-name="oslash" d="M785 450Q785 505 772 558T737 656L370 175Q407 134 449 110T532 85Q599 85 647 110T725 183T770 298T785 450ZM261 473Q261 419 274 367T310 272L678 756Q643 797 600 821T514 845Q442 845 394 817T316 738T274
620T261 473ZM963 951L860 816Q913 753 941 669T970 485Q970 385 933 292T831 128T683 13T504 -30Q435 -30 375 -12T267 40L249 17Q240 9 223 -1T186 -21T147 -40T114 -53L86 -21L187 112Q134 175 105 259T75 444Q75 510 91 574T138 695T210 801T305 885T417 940T543
960Q611 960 671 942T780 889L799 914Q812 923 829 933T864 953T899 971T932 983L963 951Z" />
<glyph unicode="&#xf9;" glyph-name="ugrave" horiz-adv-x="1108" d="M1094 92Q1057 68 1020 46T949 7T891 -20T853 -30Q835 -30 820 -20T793 12T773 69T760 156Q698 96 647 60T554 3T476 -23T408 -30Q361 -30 318 -17T240 30T186 125T165 279V704Q165 752 163
778T148 818T111 837T39 847V897Q79 901 114 906T181 919T246 937T315 960L345 919V337Q345 269 354 225T382 155T426 119T486 108Q514 108 544 116T608 142T679 189T760 262V704Q760 749 756 776T738 818T696 839T623 847V897Q704 906 775 923T908 960L940 919V264Q940
202 944 168T963 124Q975 116 1001 120T1079 147L1094 92ZM686 1081Q673 1069 655 1060T620 1045L258 1422L282 1468Q292 1471 315 1475T364 1484T416 1492T453 1497L686 1081Z" />
<glyph unicode="&#xfa;" glyph-name="uacute" horiz-adv-x="1108" d="M1094 92Q1057 68 1020 46T949 7T891 -20T853 -30Q835 -30 820 -20T793 12T773 69T760 156Q698 96 647 60T554 3T476 -23T408 -30Q361 -30 318 -17T240 30T186 125T165 279V704Q165 752 163
778T148 818T111 837T39 847V897Q79 901 114 906T181 919T246 937T315 960L345 919V337Q345 269 354 225T382 155T426 119T486 108Q514 108 544 116T608 142T679 189T760 262V704Q760 749 756 776T738 818T696 839T623 847V897Q704 906 775 923T908 960L940 919V264Q940
202 944 168T963 124Q975 116 1001 120T1079 147L1094 92ZM507 1045Q489 1048 470 1058T440 1078L666 1497Q678 1496 702 1493T753 1486T804 1477T839 1469L864 1425L507 1045Z" />
<glyph unicode="&#xfb;" glyph-name="ucircumflex" horiz-adv-x="1108" d="M1094 92Q1057 68 1020 46T949 7T891 -20T853 -30Q835 -30 820 -20T793 12T773 69T760 156Q698 96 647 60T554 3T476 -23T408 -30Q361 -30 318 -17T240 30T186 125T165 279V704Q165 752
163 778T148 818T111 837T39 847V897Q79 901 114 906T181 919T246 937T315 960L345 919V337Q345 269 354 225T382 155T426 119T486 108Q514 108 544 116T608 142T679 189T760 262V704Q760 749 756 776T738 818T696 839T623 847V897Q704 906 775 923T908 960L940
919V264Q940 202 944 168T963 124Q975 116 1001 120T1079 147L1094 92ZM879 1097Q867 1078 858 1066T831 1045L555 1298L281 1045Q264 1053 254 1065T229 1097L498 1479H615L879 1097Z" />
<glyph unicode="&#xfc;" glyph-name="udieresis" horiz-adv-x="1108" d="M1094 92Q1057 68 1020 46T949 7T891 -20T853 -30Q835 -30 820 -20T793 12T773 69T760 156Q698 96 647 60T554 3T476 -23T408 -30Q361 -30 318 -17T240 30T186 125T165 279V704Q165 752
163 778T148 818T111 837T39 847V897Q79 901 114 906T181 919T246 937T315 960L345 919V337Q345 269 354 225T382 155T426 119T486 108Q514 108 544 116T608 142T679 189T760 262V704Q760 749 756 776T738 818T696 839T623 847V897Q704 906 775 923T908 960L940
919V264Q940 202 944 168T963 124Q975 116 1001 120T1079 147L1094 92ZM872 1263Q872 1232 862 1205T835 1158T794 1125T743 1113Q694 1113 671 1140T647 1218Q647 1249 657 1276T685 1323T726 1355T776 1367Q872 1367 872 1263ZM465 1263Q465 1232 455 1205T428
1158T386 1125T335 1113Q286 1113 263 1140T240 1218Q240 1249 250 1276T278 1323T319 1355T368 1367Q465 1367 465 1263Z" />
<glyph unicode="&#xfd;" glyph-name="yacute" horiz-adv-x="1020" d="M1002 877Q972 870 953 864T922 851T904 834T892 809L558 -80Q516 -190 465 -269T358 -399T245 -474T132 -498Q94 -498 61 -493T2 -479T-37 -460T-52 -440Q-52 -433 -38 -413T-5 -368T37 -322T75
-290Q123 -319 172 -323T258 -313Q276 -307 298 -288T344 -239T390 -173T430 -92L459 -23L129 809Q119 837 94 851T18 877V930H426V877Q387 872 364 867T328 855T315 836T321 809L553 217L773 809Q778 824 777 834T764 852T729 865T670 877V930H1002V877ZM486 1045Q468
1048 449 1058T419 1078L645 1497Q657 1496 681 1493T732 1486T783 1477T818 1469L843 1425L486 1045Z" />
<glyph unicode="&#xfe;" glyph-name="thorn" horiz-adv-x="1105" d="M865 415Q865 512 846 587T793 714T716 793T626 820Q608 820 582 812T524 782T453 724T370 633V218Q455 158 521 132T651 105Q702 105 742 130T809 198T850 297T865 415ZM1030 497Q1030 436
1014 374T970 253T902 143T817 53T718 -8T611 -30Q572 -30 510 -7T370 75V-365Q370 -381 408 -397T540 -427V-480H53V-427Q119 -411 154 -397T190 -365V1287Q190 1332 185 1356T164 1393T122 1410T53 1420V1470Q96 1477 132 1484T202 1501T266 1523T331 1550L370
1513V754Q423 811 472 850T564 914T644 949T710 960Q778 960 836 929T938 839T1005 693T1030 497Z" />
<glyph unicode="&#xff;" glyph-name="ydieresis" horiz-adv-x="1020" d="M1002 877Q972 870 953 864T922 851T904 834T892 809L558 -80Q516 -190 465 -269T358 -399T245 -474T132 -498Q94 -498 61 -493T2 -479T-37 -460T-52 -440Q-52 -433 -38 -413T-5 -368T37
-322T75 -290Q123 -319 172 -323T258 -313Q276 -307 298 -288T344 -239T390 -173T430 -92L459 -23L129 809Q119 837 94 851T18 877V930H426V877Q387 872 364 867T328 855T315 836T321 809L553 217L773 809Q778 824 777 834T764 852T729 865T670 877V930H1002V877ZM851
1263Q851 1232 841 1205T814 1158T773 1125T722 1113Q673 1113 650 1140T626 1218Q626 1249 636 1276T664 1323T705 1355T755 1367Q851 1367 851 1263ZM444 1263Q444 1232 434 1205T407 1158T365 1125T314 1113Q265 1113 242 1140T219 1218Q219 1249 229 1276T257
1323T298 1355T347 1367Q444 1367 444 1263Z" />
<glyph unicode="&#x2013;" glyph-name="endash" horiz-adv-x="971" d="M913 549Q910 538 906 525T897 497T887 471T878 450H86L58 477Q63 499 74 527T94 575H887L913 549Z" />
<glyph unicode="&#x2014;" glyph-name="emdash" horiz-adv-x="1594" d="M1536 549Q1531 527 1520 497T1501 450H86L58 477Q63 499 74 527T94 575H1509L1536 549Z" />
<glyph unicode="&#x2018;" glyph-name="quoteleft" horiz-adv-x="489" d="M407 1021Q398 1009 366 992T295 959T220 934T166 926Q126 958 106 997T86 1098Q86 1142 101 1191T145 1287T213 1377T301 1450L352 1410Q332 1387 316 1360T290 1304T274 1247T268 1193Q268
1145 298 1112T391 1076L407 1021Z" />
<glyph unicode="&#x2019;" glyph-name="quoteright" horiz-adv-x="490" d="M403 1279Q403 1235 388 1186T344 1089T276 1000T189 926L137 966Q157 989 173 1016T199 1073T215 1130T221 1183Q221 1231 191 1265T99 1302L83 1357Q89 1365 106 1375T146 1396T195
1417T246 1436T291 1448T324 1452Q362 1419 382 1379T403 1279Z" />
<glyph unicode="&#x201a;" glyph-name="quotesinglbase" horiz-adv-x="490" d="M403 53Q403 8 388 -41T344 -137T276 -227T189 -300L137 -261Q157 -238 173 -211T199 -154T215 -97T221 -44Q221 5 191 39T99 76L83 131Q89 139 106 149T146 170T195 191T246 209T291
221T324 226Q362 192 382 153T403 53Z" />
<glyph unicode="&#x201c;" glyph-name="quotedblleft" horiz-adv-x="933" d="M408 1021Q399 1009 367 992T296 959T221 934T167 926Q127 958 107 997T87 1098Q87 1142 102 1191T146 1287T215 1377T303 1450L353 1410Q333 1387 317 1360T291 1304T275 1247T269
1193Q269 1145 299 1112T392 1076L408 1021ZM850 1021Q841 1009 809 992T738 959T663 934T609 926Q570 958 550 997T529 1098Q529 1142 544 1191T588 1287T656 1377T744 1450L795 1410Q774 1387 759 1360T733 1304T717 1247T711 1193Q711 1145 741 1112T833 1076L850
1021Z" />
<glyph unicode="&#x201d;" glyph-name="quotedblright" horiz-adv-x="933" d="M403 1279Q403 1235 388 1186T344 1089T276 1000T189 926L137 966Q157 989 173 1016T199 1073T215 1130T221 1183Q221 1231 191 1265T99 1302L83 1357Q89 1365 106 1375T146 1396T195
1417T246 1436T291 1448T324 1452Q362 1419 382 1379T403 1279ZM844 1279Q844 1235 829 1186T785 1089T718 1000T630 926L580 966Q599 989 615 1016T641 1073T658 1130T664 1183Q664 1231 633 1265T541 1302L525 1357Q533 1369 565 1385T636 1417T711 1442T766
1452Q804 1419 824 1379T844 1279Z" />
<glyph unicode="&#x201e;" glyph-name="quotedblbase" horiz-adv-x="953" d="M403 53Q403 8 388 -41T344 -137T276 -227T189 -300L137 -261Q157 -238 173 -211T199 -154T215 -97T221 -44Q221 5 191 39T99 76L83 131Q89 139 106 149T146 170T195 191T246 209T291
221T324 226Q362 192 382 153T403 53ZM844 53Q844 8 829 -41T785 -137T718 -227T630 -300L580 -261Q599 -238 615 -211T641 -154T658 -97T664 -44Q664 5 633 39T541 76L525 131Q533 143 565 159T636 191T711 216T766 226Q804 192 824 153T844 53Z" />
<glyph unicode="&#x2022;" glyph-name="bullet" horiz-adv-x="569" d="M498 662Q498 601 481 551T432 465T357 409T260 389Q212 389 177 405T118 452T82 523T70 612Q70 672 88 722T139 808T214 865T309 885Q354 885 389 869T449 823T485 752T498 662Z" />
<glyph unicode="&#x2039;" glyph-name="guilsinglleft" horiz-adv-x="632" d="M449 12L75 430V465Q75 479 75 490T77 503L449 918L496 883L486 865Q477 847 462 818T426 751T385 674T345 598T310 531T285 485T276 467L497 47L449 12Z" />
<glyph unicode="&#x203a;" glyph-name="guilsinglright" horiz-adv-x="632" d="M556 429L183 12L135 47L356 466L136 883L183 918L555 502L556 429Z" />
</font>
</defs>
</svg>
