<?xml version="1.0" standalone="no"?>
<!DOCTYPE svg PUBLIC "-//W3C//DTD SVG 1.1//EN" "http://www.w3.org/Graphics/SVG/1.1/DTD/svg11.dtd">
<svg xmlns="http://www.w3.org/2000/svg">
<defs >
<font id="PlayfairDisplay" horiz-adv-x="621" ><font-face
    font-family="Playfair Display Black"
    units-per-em="1000"
    panose-1="0 0 10 0 0 0 0 0 0 0"
    ascent="1082"
    descent="-251"
    alphabetic="0" />
<glyph unicode=" " glyph-name="space" horiz-adv-x="223" />
<glyph unicode="!" glyph-name="exclam" horiz-adv-x="306" d="M196 782T227 747T259 656Q259 618 249 574T218 464Q193 381 179 322T162 196H144Q141 262 127 321T88 464Q67 530 57 574T47 656Q47 713 76 747T153 782Q196 782 227 747ZM201 158T226 136T252 72Q252
30 227 8T153 -14Q105 -14 80 8T54 72Q54 114 79 136T153 158Q201 158 226 136Z" />
<glyph unicode="&quot;" glyph-name="quotedbl" horiz-adv-x="417" d="M146 730T169 708T192 650Q192 628 185 609T161 559Q136 515 118 468H104Q87 511 63 553Q45 586 38 605T30 649Q30 685 53 707T111 730Q146 730 169 708ZM341 730T364 708T387 650Q387 628
380 609T356 559Q331 515 313 468H299Q282 511 258 553Q240 586 233 605T225 649Q225 685 248 707T306 730Q341 730 364 708Z" />
<glyph unicode="#" glyph-name="numbersign" horiz-adv-x="609" d="M424 434L392 267H539L535 247H388L360 101H340L368 247H201L173 101H153L181 247H34L38 267H185L217 434H71L74 454H221L250 602H270L241 454H408L437 602H457L428 454H575L572 434H424ZM404
434H237L205 267H372L404 434Z" />
<glyph unicode="$" glyph-name="dollar" horiz-adv-x="608" d="M575 104T521 56T378 -8V-132H358V-11Q331 -14 303 -14Q282 -14 272 -13V-132H252V-11Q218 -7 195 0T158 14T140 22Q127 28 114 32T92 37Q83 37 78 27T70 -7H47Q51 61 51 283H74Q83 185 103 129T158
46T252 12V283L230 298Q172 336 136 367T76 440T52 533Q52 615 108 661T252 719V840H272V721Q281 722 300 722Q335 722 358 718V840H378V715Q417 707 462 682Q473 676 481 672T496 668Q505 668 510 678T518 712H541Q536 640 536 468H513Q498 566 468 620T378 691V433L413
410Q466 376 500 346T554 276T575 184Q575 104 521 56ZM295 698T272 693V510Q299 487 358 447V695Q342 698 321 698Q295 698 272 693ZM203 595T211 576T252 527V687Q203 669 203 619Q203 595 211 576ZM326 10T358 14V205Q316 237 272 268V11Q282 10 302 10Q326
10 358 14ZM440 37T440 93Q440 109 437 120T420 148T378 188V19Q440 37 440 93Z" />
<glyph unicode="%" glyph-name="percent" horiz-adv-x="719" d="M665 811L80 -55L61 -42L646 824L665 811ZM281 761T328 718T375 598Q375 548 353 510T292 451T204 430Q127 430 80 473T32 593Q32 642 54 680T116 740T204 761Q281 761 328 718ZM145 743T145 594Q145
522 161 485T206 448Q262 448 262 596Q262 669 247 706T202 743Q145 743 145 594ZM593 317T640 274T687 154Q687 104 665 66T604 7T516 -14Q439 -14 392 29T344 149Q344 198 366 236T428 296T516 317Q593 317 640 274ZM457 299T457 150Q457 78 473 41T518 4Q574
4 574 152Q574 225 559 262T514 299Q457 299 457 150Z" />
<glyph unicode="&amp;" glyph-name="ampersand" horiz-adv-x="938" d="M926 502T878 457T734 389Q765 369 783 328T802 235Q802 160 755 104T623 17T430 -14Q305 -14 216 16T80 102T33 235Q33 304 71 351T157 423T248 458Q193 478 160 506T127 582Q127 629 160
658T244 701T346 715Q383 715 406 712T450 701Q481 691 503 669T526 612Q526 578 500 557T435 536Q397 536 373 554T349 606Q349 634 368 657T420 689Q398 697 361 697Q304 697 267 662T230 558Q230 506 261 464Q294 473 313 473Q330 473 339 465T348 444Q348 434
340 428T320 422Q295 422 262 450Q218 419 195 382T172 290Q172 196 249 153T479 110Q547 110 612 129T720 186T763 278Q763 309 755 336T718 385L651 373L579 361Q466 341 417 319T368 258Q368 223 404 200T487 177Q498 177 514 179Q461 198 461 254Q461 290 488
309T558 329Q602 329 626 309T651 252Q651 204 610 181T494 158Q420 158 375 193T329 294Q329 385 401 434T609 503Q637 507 650 510L696 517Q794 533 841 554T889 618Q889 655 855 678T778 702Q767 702 751 700Q781 689 797 669T813 625Q813 589 787 570T718 551Q674
551 649 572T623 628Q623 671 656 696T758 722Q835 722 880 684T926 577Q926 502 878 457Z" />
<glyph unicode="&apos;" glyph-name="quotesingle" horiz-adv-x="222" d="M146 730T169 708T192 650Q192 628 185 609T161 559Q136 515 118 468H104Q87 511 63 553Q45 586 38 605T30 649Q30 685 53 707T111 730Q146 730 169 708Z" />
<glyph unicode="(" glyph-name="parenleft" horiz-adv-x="334" d="M165 719T97 599T29 312Q29 145 97 25T299 -182L314 -170Q257 -55 230 59T203 312Q203 451 230 567T314 794L299 806Q165 719 97 599Z" />
<glyph unicode=")" glyph-name="parenright" horiz-adv-x="334" d="M169 719T237 599T305 312Q305 145 237 25T35 -182L20 -170Q77 -55 104 59T131 312Q131 451 104 567T20 794L35 806Q169 719 237 599Z" />
<glyph unicode="*" glyph-name="asterisk" horiz-adv-x="473" d="M429 473T429 445Q429 428 420 413Q402 382 375 382Q361 382 345 391Q330 400 317 414T278 463Q255 495 242 511Q248 494 264 458Q280 421 287 400T294 361Q294 333 278 320T238 307Q214 307 198
320T181 361Q181 379 188 400T212 459L233 510L197 463Q175 433 160 416T130 390Q113 381 101 381Q86 381 74 389T55 412Q45 429 45 445Q45 471 73 488Q89 497 110 501T171 510L229 517Q217 519 203 520T173 525Q132 530 110 534T73 547Q45 563 45 591Q45 608 54
623Q72 654 99 654Q113 654 129 645Q144 636 157 622T196 573Q219 541 232 525Q226 542 210 578Q194 615 187 636T180 675Q180 703 196 716T237 729Q261 729 277 716T293 675Q293 657 286 637T264 583L241 526L277 573Q299 603 314 620T344 646Q361 655 373 655Q388
655 400 647T419 624Q429 607 429 591Q429 565 401 548Q385 539 364 535T305 526L248 519Q312 509 303 511Q343 506 364 502T401 489Q429 473 429 445Z" />
<glyph unicode="+" glyph-name="plus" horiz-adv-x="565" d="M301 370H533V340H301V105H265V340H32V370H265V606H301V370Z" />
<glyph unicode="," glyph-name="comma" horiz-adv-x="278" d="M189 158T214 121Q225 106 232 81T239 26Q239 -26 212 -70T133 -138L124 -120Q150 -108 170 -86T199 -38Q204 -24 204 -5Q204 10 202 17Q176 -14 129 -14Q89 -14 65 8T41 72Q41 111 67 134T135 158Q189
158 214 121Z" />
<glyph unicode="-" glyph-name="hyphen" horiz-adv-x="469" d="M415 222H54V321H415V222Z" />
<glyph unicode="." glyph-name="period" horiz-adv-x="282" d="M189 158T214 136T240 72Q240 30 215 8T141 -14Q93 -14 68 8T42 72Q42 114 67 136T141 158Q189 158 214 136Z" />
<glyph unicode="/" glyph-name="slash" horiz-adv-x="366" d="M64 -14H31L303 722H336L64 -14Z" />
<glyph unicode="0" glyph-name="zero" horiz-adv-x="675" d="M428 533T494 500T598 407T635 268Q635 188 597 124T490 23T332 -14Q248 -14 182 19T78 112T40 252Q40 331 78 395T184 496T343 533Q428 533 494 500ZM303 515T279 484T241 394T227 255Q227 128 259
66T341 4Q372 4 396 35T434 126T448 265Q448 392 416 453T334 515Q303 515 279 484Z" />
<glyph unicode="1" glyph-name="one" horiz-adv-x="392" d="M302 93Q302 52 314 37T358 21V0Q250 4 220 4Q185 4 65 1L36 0V21Q79 21 100 39T122 103V349Q122 397 115 419T90 449T36 457V479Q133 481 194 492T302 530V93Z" />
<glyph unicode="2" glyph-name="two" horiz-adv-x="553" d="M378 533T426 499T474 405Q474 365 449 332T389 273T296 214Q224 173 194 147H420Q447 147 460 150T479 162T487 188H510Q510 52 514 -5Q492 0 365 0H36V21Q32 17 80 62Q137 113 177 155T247 251T277
365Q277 416 255 439T188 463Q146 463 114 446T54 396L37 408Q76 467 137 500T295 533Q378 533 426 499Z" />
<glyph unicode="3" glyph-name="three" horiz-adv-x="512" d="M342 533T395 502T448 417Q448 359 386 314T209 252Q221 253 244 253Q354 253 419 212T484 99Q484 26 416 -31T241 -120T24 -151V-130Q87 -127 150 -100T256 -23T299 98Q299 157 271 194T195 236Q175
227 164 223T140 219Q130 219 125 222T120 235Q120 247 130 252T156 258Q166 258 175 257T191 255Q268 305 268 382Q268 425 245 447T178 469Q139 469 106 451T49 398L31 408Q65 465 118 499T259 533Q342 533 395 502Z" />
<glyph unicode="4" glyph-name="four" horiz-adv-x="550" d="M501 23T423 23V-141H283V24H2V45L407 533H423V151H429Q456 151 469 154T488 166T496 192H519Q519 71 523 19Q501 23 423 23ZM283 151V352L117 151H283Z" />
<glyph unicode="5" glyph-name="five" horiz-adv-x="489" d="M419 421T423 366Q402 371 284 371H98L79 215Q107 236 151 248T253 261Q355 261 407 216T460 101Q460 27 396 -30T230 -117T20 -148V-130Q85 -129 143 -102T238 -23T275 97Q275 159 248 192T168 225Q139
225 117 216T72 188L56 199L96 522Q116 518 150 518H349Q371 518 382 525T396 549H419Q419 421 423 366Z" />
<glyph unicode="6" glyph-name="six" horiz-adv-x="591" d="M417 442T464 416T538 340T566 226Q566 151 530 97T432 14T297 -14Q177 -14 110 61T42 271Q42 410 111 507T280 656T481 723L485 703Q419 682 371 652T287 557T236 386Q274 442 359 442Q417 442 464
416ZM338 6T358 58T379 217Q379 318 360 365T309 413Q290 413 268 396T232 346Q229 307 229 261Q229 171 240 114T270 32T308 6Q338 6 358 58Z" />
<glyph unicode="7" glyph-name="seven" horiz-adv-x="488" d="M492 497Q483 478 445 410Q404 336 379 284T334 163T314 22Q315 12 317 -14T319 -60Q319 -96 296 -122T228 -148Q183 -148 160 -119T137 -39Q137 14 166 71T235 179T340 303Q366 332 400 371H115Q88
371 75 368T56 356T48 330H25Q25 466 21 523Q43 518 170 518H492V497Z" />
<glyph unicode="8" glyph-name="eight" horiz-adv-x="588" d="M390 419Q444 369 476 334T531 258T554 173Q554 120 520 77T425 10T289 -14Q220 -14 163 6T72 65T37 159Q37 221 81 265T202 340Q138 397 104 446T70 555Q70 638 137 680T301 722Q365 722 414 704T491
653T518 580Q518 534 483 500T373 434L390 419ZM267 704T253 686T238 637Q238 591 269 547T358 447Q369 472 373 509T378 575Q378 637 356 670T295 704Q267 704 253 686ZM337 4T358 29T379 96Q379 139 357 177T306 245T217 327Q185 275 185 179Q185 4 294 4Q337
4 358 29Z" />
<glyph unicode="9" glyph-name="nine" horiz-adv-x="582" d="M412 533T479 458T547 248Q547 125 480 38T314 -95T118 -154L114 -134Q175 -117 220 -91T300 -11T350 129Q331 102 300 90T230 77Q172 77 125 103T51 179T23 293Q23 368 59 422T157 505T292 533Q412
533 479 458ZM299 106T321 122T356 170Q360 206 360 258Q360 348 349 405T319 487T281 513Q251 513 231 461T210 302Q210 201 229 154T280 106Q299 106 321 122Z" />
<glyph unicode=":" glyph-name="colon" horiz-adv-x="306" d="M201 533T226 511T252 447Q252 405 227 383T153 361Q105 361 80 383T54 447Q54 489 79 511T153 533Q201 533 226 511ZM201 158T226 136T252 72Q252 30 227 8T153 -14Q105 -14 80 8T54 72Q54 114 79
136T153 158Q201 158 226 136Z" />
<glyph unicode=";" glyph-name="semicolon" horiz-adv-x="304" d="M201 158T226 121Q237 106 244 81T251 26Q251 -26 224 -70T145 -138L136 -120Q162 -108 182 -86T211 -38Q216 -24 216 -5Q216 10 214 17Q188 -14 141 -14Q101 -14 77 8T53 72Q53 111 79 134T147
158Q201 158 226 121ZM200 533T225 511T251 447Q251 405 226 383T152 361Q104 361 79 383T53 447Q53 489 78 511T152 533Q200 533 225 511Z" />
<glyph unicode="&lt;" glyph-name="less" horiz-adv-x="598" d="M531 546L122 355L531 164L514 128L27 355L514 582L531 546Z" />
<glyph unicode="=" glyph-name="equal" horiz-adv-x="627" d="M564 410H63V440H564V410ZM564 270H63V300H564V270Z" />
<glyph unicode="&gt;" glyph-name="greater" horiz-adv-x="598" d="M67 546L476 355L67 164L84 128L571 355L84 582L67 546Z" />
<glyph unicode="?" glyph-name="question" horiz-adv-x="540" d="M328 782T387 761T478 698T511 602Q511 520 438 463T236 380V234H216V389Q285 423 308 469T332 583Q332 674 302 718T221 762Q193 762 172 757T142 743Q175 731 191 710T207 655Q207 619 181 595T111
571Q75 571 52 594T29 651Q29 685 46 707T93 747Q121 763 161 772T251 782Q328 782 387 761ZM276 158T301 136T327 72Q327 30 302 8T228 -14Q180 -14 155 8T129 72Q129 114 154 136T228 158Q276 158 301 136Z" />
<glyph unicode="@" glyph-name="at" horiz-adv-x="888" d="M473 26T473 97Q473 112 476 127Q429 26 339 26Q285 26 250 59T215 162Q215 230 248 304T336 428T455 478Q488 478 508 460T536 415L546 464Q640 464 697 478L621 121Q616 96 616 82Q616 61 629 61Q633
61 645 66Q691 88 735 133T808 244T837 394Q837 525 753 587T536 650Q413 650 304 581T128 395T62 145Q62 -2 146 -72T372 -143Q488 -143 578 -89L585 -102Q546 -129 491 -145T371 -161Q220 -161 131 -86T42 143Q42 277 108 398T288 593T535 668Q679 668 768 600T857
393Q857 286 811 203T695 73T557 26Q473 26 473 97ZM432 86T452 115T494 205L528 374Q529 396 520 415T493 435Q468 435 440 395T392 290T372 160Q372 118 380 102T406 86Q432 86 452 115Z" />
<glyph unicode="A" glyph-name="A" horiz-adv-x="692" d="M653 52T668 37T699 20V0Q627 3 517 3Q403 3 349 0V20Q387 22 403 29T419 56Q419 74 407 104L348 268H146L129 223Q96 138 96 93Q96 52 119 37T187 20V0Q112 3 56 3Q9 3 -21 0V20Q4 24 26 51T71 137L293
708Q325 706 346 706Q366 706 398 708L640 84Q653 52 668 37ZM341 288L250 538L154 288H341Z" />
<glyph unicode="B" glyph-name="B" horiz-adv-x="704" d="M499 366T562 340T655 276T684 194Q684 96 606 48T384 0Q355 0 335 1Q267 3 202 3Q85 3 28 0V20Q60 22 74 28T94 51T99 106V602Q99 640 94 657T74 680T28 688V708Q85 705 200 705L315 706Q335 707 361
707Q493 707 562 665T632 550Q632 513 606 476T528 410T401 373V371Q499 366 562 340ZM333 688T322 681T306 656T302 602V376H329Q383 376 404 420T426 539Q426 615 410 651T356 688Q333 688 322 681ZM474 23T474 198Q474 277 436 318T316 359H302V106Q302 70 307
53T325 30T367 23Q474 23 474 198Z" />
<glyph unicode="C" glyph-name="C" horiz-adv-x="717" d="M474 722T516 705T598 657Q608 648 617 648Q637 648 643 708H666Q662 637 662 458H639Q632 538 613 584T547 661Q500 691 454 691Q350 691 308 591T266 352Q266 213 308 113T454 13Q500 13 547 43Q594
72 613 121T639 260H662Q662 73 666 0H643Q640 32 635 45T619 59Q611 59 598 51Q553 19 512 3T413 -14Q300 -14 215 29T83 153T36 348Q36 458 84 543T218 675T414 722Q474 722 516 705Z" />
<glyph unicode="D" glyph-name="D" horiz-adv-x="811" d="M568 708T671 620T774 362Q774 253 724 172T578 45T352 0L290 1Q230 3 202 3Q85 3 28 0V20Q60 22 74 28T94 51T99 106V602Q99 640 94 657T74 680T28 688V708Q74 705 164 705H200L244 706Q328 708 361 708Q568
708 671 620ZM345 690T330 683T308 658T302 604V104Q302 68 308 50T329 25T377 18Q476 18 520 103T564 358Q564 527 519 608T376 690Q345 690 330 683Z" />
<glyph unicode="E" glyph-name="E" horiz-adv-x="650" d="M600 66T607 0Q539 3 378 3Q144 3 28 0V20Q60 22 74 28T94 51T99 106V602Q99 640 94 657T74 680T28 688V708Q144 705 378 705Q525 705 587 708Q580 614 580 540Q580 494 583 468H560Q542 584 493 634T376
685H363Q336 685 324 681T307 664T302 622V366H312Q364 366 401 407T448 498H471Q468 456 468 404V356Q468 305 474 214H451Q442 271 405 308T312 346H302V86Q302 57 306 45T323 28T363 23H396Q454 23 506 79T580 260H603Q600 224 600 168Q600 66 607 0Z" />
<glyph unicode="F" glyph-name="F" horiz-adv-x="608" d="M580 614T580 540Q580 494 583 468H560Q536 584 487 634T376 685H363Q336 685 324 681T307 664T302 622V366H312Q364 366 401 407T448 498H471Q468 456 468 404V356Q468 305 474 214H451Q442 271 405 308T312
346H302V116Q302 74 310 55T341 30T413 23V0Q278 3 207 3Q160 3 76 1L28 0V20Q60 22 74 28T94 51T99 106V602Q99 640 94 657T74 680T28 688V708Q144 705 378 705Q525 705 587 708Q580 614 580 540Z" />
<glyph unicode="G" glyph-name="G" horiz-adv-x="756" d="M488 722T534 705T618 657Q629 648 638 648Q648 648 654 662T663 708H686Q682 637 682 458H659Q652 537 633 583T567 661Q546 675 519 683T464 691Q392 691 348 641T285 513T266 352Q266 178 308 92T427
6Q458 6 476 18Q497 33 497 68V168Q497 218 489 241T461 273T396 284V304Q464 301 587 301Q690 301 741 304V284Q723 282 715 276T703 253T700 198V0H680Q679 21 671 39T649 57Q628 57 581 34Q481 -14 412 -14Q226 -14 131 80T36 348Q36 458 85 543T223 675T424
722Q488 722 534 705Z" />
<glyph unicode="H" glyph-name="H" horiz-adv-x="829" d="M769 686T755 680T735 657T730 602V106Q730 68 735 51T755 28T801 20V0Q747 3 633 3Q518 3 456 0V20Q488 22 502 28T522 51T527 106V346H302V106Q302 68 307 51T327 28T373 20V0Q315 3 206 3Q85 3 28 0V20Q60
22 74 28T94 51T99 106V602Q99 640 94 657T74 680T28 688V708Q85 705 206 705Q314 705 373 708V688Q341 686 327 680T307 657T302 602V366H527V602Q527 640 522 657T502 680T456 688V708Q518 705 633 705Q747 705 801 708V688Q769 686 755 680Z" />
<glyph unicode="I" glyph-name="I" horiz-adv-x="401" d="M373 688Q341 686 327 680T307 657T302 602V106Q302 68 307 51T327 28T373 20V0Q315 3 206 3Q85 3 28 0V20Q60 22 74 28T94 51T99 106V602Q99 640 94 657T74 680T28 688V708Q85 705 206 705Q314 705 373 708V688Z" />
<glyph unicode="J" glyph-name="J" horiz-adv-x="390" d="M-25 -167Q15 -161 40 -142T80 -76T94 55V602Q94 640 89 657T69 680T23 688V708Q77 705 190 705Q307 705 368 708V688Q336 686 322 680T302 657T297 602V236V153Q297 95 294 51T280 -25Q256 -98 179 -143T-25
-188V-167Z" />
<glyph unicode="K" glyph-name="K" horiz-adv-x="754" d="M723 58T736 45T770 20V0Q686 3 590 3Q516 3 447 0V20Q479 22 491 25T504 39Q504 49 494 65L349 310Q335 334 326 343T302 354V106Q302 68 307 51T327 28T373 20V0Q315 3 206 3Q85 3 28 0V20Q60 22 74
28T94 51T99 106V602Q99 640 94 657T74 680T28 688V708Q85 705 206 705Q314 705 373 708V688Q341 686 327 680T307 657T302 602V376Q342 379 380 406T473 495L507 533Q551 583 551 623Q551 652 528 669T469 689V708Q553 705 638 705Q699 705 739 708V689Q652 666
575 579L477 468L709 81Q723 58 736 45Z" />
<glyph unicode="L" glyph-name="L" horiz-adv-x="626" d="M383 688Q347 686 331 680T308 657T302 602V86Q302 58 306 45T320 28T353 23H386Q421 23 462 58T536 150T580 270H603Q600 234 600 178Q600 70 607 0Q539 3 378 3Q144 3 28 0V20Q60 22 74 28T94 51T99
106V602Q99 640 94 657T74 680T28 688V708Q85 705 206 705Q321 705 383 708V688Z" />
<glyph unicode="M" glyph-name="M" horiz-adv-x="965" d="M905 686T891 680T871 657T866 602V106Q866 68 871 51T891 28T937 20V0Q876 3 760 3Q639 3 582 0V20Q618 22 634 28T657 51T663 106V617L422 1H406L124 643V196Q124 122 130 90T156 42T225 20V0Q184 3
113 3Q60 3 30 0V20Q61 27 76 41T96 86T101 176V602Q101 640 96 657T76 680T30 688V708Q60 705 113 705Q233 705 320 708L509 283L673 705H760Q876 705 937 708V688Q905 686 891 680Z" />
<glyph unicode="N" glyph-name="N" horiz-adv-x="732" d="M708 688Q677 681 662 667T642 622T637 532V0Q617 2 604 2Q593 2 567 0L124 484V196Q124 122 130 90T156 42T225 20V0Q184 3 113 3Q60 3 30 0V20Q61 27 76 41T96 86T101 176V602Q101 640 96 657T76 680T30
688V708Q60 705 113 705Q167 705 205 708L614 276V512Q614 586 608 618T582 666T513 688V708Q554 705 625 705Q678 705 708 708V688Z" />
<glyph unicode="O" glyph-name="O" horiz-adv-x="827" d="M527 722T612 679T744 555T791 360Q791 250 743 165T609 33T413 -14Q300 -14 215 29T83 153T36 348Q36 458 84 543T218 675T414 722Q527 722 612 679ZM361 704T324 660T266 535T246 352Q246 248 269 169T331
47T417 4Q466 4 503 48T561 173T581 356Q581 460 558 539T496 661T410 704Q361 704 324 660Z" />
<glyph unicode="P" glyph-name="P" horiz-adv-x="678" d="M302 286V116Q302 74 310 55T341 30T413 23V0Q278 3 207 3Q160 3 76 1L28 0V20Q60 22 74 28T94 51T99 106V602Q99 640 94 657T74 680T28 688V708Q85 705 200 705L315 706Q335 707 361 707Q509 707 585
654T662 510Q662 455 632 405T530 320T339 286H302ZM333 688T322 681T306 656T302 602V306H329Q399 306 425 358T452 499Q452 596 430 642T356 688Q333 688 322 681Z" />
<glyph unicode="Q" glyph-name="Q" horiz-adv-x="827" d="M794 31Q789 -35 771 -82T721 -153Q699 -170 666 -179T596 -188Q535 -188 477 -169T330 -110L264 -82Q245 -75 240 -75Q220 -86 198 -93T156 -100Q135 -100 122 -93T109 -70Q109 -55 123 -47T164 -39Q199
-39 240 -57Q278 -47 315 -30Q324 -27 335 -22T362 -12Q263 -2 190 43T76 166T36 348Q36 458 84 543T218 675T414 722Q527 722 612 679T744 555T791 360Q791 252 745 168T616 37T426 -14Q403 -17 382 -24T341 -39Q301 -55 275 -62L314 -63Q400 -66 460 -66Q564
-66 630 -52Q686 -40 718 -21T775 36L794 31ZM246 248T269 169T331 47T417 4Q466 4 503 48T561 173T581 356Q581 460 558 539T496 661T410 704Q361 704 324 660T266 535T246 352Q246 248 269 169Z" />
<glyph unicode="R" glyph-name="R" horiz-adv-x="721" d="M746 40Q716 10 680 -2T596 -14Q527 -14 489 10T442 94L427 194Q417 264 400 300T347 336H302V106Q302 68 307 51T327 28T373 20V0Q315 3 206 3Q85 3 28 0V20Q60 22 74 28T94 51T99 106V602Q99 640 94
657T74 680T28 688V708Q85 705 200 705L315 706Q335 707 361 707Q513 707 587 664T662 533Q662 458 606 405T418 340Q520 333 572 302T636 209L657 105Q664 68 674 54T702 40Q720 40 733 53L746 40ZM333 688T322 681T306 656T302 602V356H329Q400 356 426 399T452
522Q452 604 430 646T356 688Q333 688 322 681Z" />
<glyph unicode="S" glyph-name="S" horiz-adv-x="613" d="M359 722T394 712T464 682Q475 676 483 672T498 668Q507 668 512 678T520 712H543Q538 640 538 468H515Q511 525 489 577T429 662T341 695Q295 695 267 671T239 602Q239 568 254 543T298 495T393 425Q399
422 404 418T415 410Q470 372 503 343T556 274T577 184Q577 119 541 75T442 8T305 -14Q244 -14 204 -4T128 23Q106 37 94 37Q85 37 80 27T72 -7H49Q53 61 53 283H76Q83 164 126 90T258 16Q313 16 345 42T378 114Q378 171 343 211T232 302Q172 342 136 372T77 441T54
533Q54 596 88 638T178 701T302 722Q359 722 394 712Z" />
<glyph unicode="T" glyph-name="T" horiz-adv-x="699" d="M669 597T669 510Q669 464 672 438H649Q616 569 564 627T452 685H451V113Q451 71 459 52T490 27T562 20V0Q421 3 343 3Q272 3 137 0V20Q186 20 208 26T239 52T248 113V685H247Q186 685 135 628T50 438H27Q30
464 30 510Q30 597 23 708Q118 705 350 705Q581 705 676 708Q669 597 669 510Z" />
<glyph unicode="U" glyph-name="U" horiz-adv-x="693" d="M681 688Q650 681 635 667T615 622T610 532V291Q610 147 569 79Q542 34 490 10T354 -14Q233 -14 166 34Q117 69 101 128T84 288V602Q84 640 79 657T60 680T13 688V708Q70 705 189 705Q307 705 368 708V688Q332
686 316 680T293 657T287 602V194Q287 98 317 60T412 21Q507 21 547 88T587 280V512Q587 586 581 618T555 666T486 688V708Q527 705 598 705Q651 705 681 708V688Z" />
<glyph unicode="V" glyph-name="V" horiz-adv-x="693" d="M675 705T705 708V688Q679 675 653 641T605 548L410 0Q378 2 357 2Q337 2 305 0L43 624Q30 656 15 671T-16 688V708Q56 705 166 705Q280 705 334 708V688Q296 686 280 679T264 651Q264 634 276 604L449
178L546 450Q579 542 579 598Q579 685 497 688V708Q572 705 628 705Q675 705 705 708Z" />
<glyph unicode="W" glyph-name="W" horiz-adv-x="1010" d="M988 705T1018 708V688Q959 659 925 548L757 0Q725 2 704 2Q684 2 652 0L522 397L381 0Q349 2 328 2Q308 2 276 0L44 624Q32 656 16 671T-15 688V708Q57 705 162 705Q253 705 295 708V688Q268 683 268
648Q268 627 277 604L422 196L510 434L442 641Q434 666 422 676T391 688V708Q458 705 564 705Q668 705 719 708V688Q683 687 667 679T651 650Q651 631 661 604L793 203L870 450Q897 539 897 590Q897 640 875 663T810 688V708Q885 705 941 705Q988 705 1018 708Z"
/>
<glyph unicode="X" glyph-name="X" horiz-adv-x="729" d="M713 41T724 32T754 21V0Q740 0 731 1Q617 4 583 4Q545 4 431 1Q422 0 409 0V21Q442 21 456 25T471 38Q471 45 464 55L297 293L236 217Q185 153 185 100Q185 65 207 44T268 20V0Q211 3 95 3Q31 3 -2 0V20Q76
53 164 162L284 312L56 638Q35 668 24 677T-6 688V709Q9 709 19 708Q136 705 175 705Q209 705 314 708Q323 709 336 709V688Q303 688 289 684T274 671Q274 664 281 654L426 448L483 518Q533 577 533 623Q533 651 515 668T463 688V708Q520 705 596 705Q660 705 693
708V688Q661 676 625 645T558 575L439 429L692 71Q713 41 724 32Z" />
<glyph unicode="Y" glyph-name="Y" horiz-adv-x="644" d="M606 706T636 709V689Q585 664 530 556L437 372V106Q437 68 442 51T462 28T508 20V0Q450 3 336 3Q217 3 163 0V20Q195 22 209 28T229 51T234 106V290L49 632Q33 661 18 674T-9 688V709Q53 703 129 703Q215
703 349 709V688Q309 688 289 684T269 665Q269 658 273 650L416 376L461 466Q508 560 508 615Q508 686 428 689V709Q503 706 559 706Q606 706 636 709Z" />
<glyph unicode="Z" glyph-name="Z" horiz-adv-x="607" d="M561 688L258 23H300Q341 23 394 46T490 123T542 260H565Q562 224 562 168Q562 66 569 0Q495 3 320 3Q125 3 37 0V20L340 685H290Q243 685 196 665T113 596T66 468H43Q46 494 46 540Q46 614 39 708Q101
705 248 705Q464 705 561 708V688Z" />
<glyph unicode="[" glyph-name="bracketleft" horiz-adv-x="340" d="M299 753H258V-162H299V-181H78V772H299V753Z" />
<glyph unicode="\" glyph-name="backslash" horiz-adv-x="366" d="M302 -14H335L63 722H30L302 -14Z" />
<glyph unicode="]" glyph-name="bracketright" horiz-adv-x="340" d="M41 753H82V-162H41V-181H262V772H41V753Z" />
<glyph unicode="^" glyph-name="asciicircum" horiz-adv-x="524" d="M306 467T361 410T478 316L470 302Q405 312 343 328T242 362Q210 345 159 329T54 302L46 316Q107 352 162 409T253 528H271Q306 467 361 410Z" />
<glyph unicode="_" glyph-name="underscore" horiz-adv-x="619" d="M567 -181H52V-70H567V-181Z" />
<glyph unicode="`" glyph-name="grave" horiz-adv-x="304" d="M90 836T114 836Q130 836 145 830T169 812Q181 798 188 782T204 736Q217 696 226 670T254 608L243 599Q212 625 188 642T131 679Q125 683 110 693T85 711T67 729Q50 749 50 774Q50 802 71 820Q90 836
114 836Z" />
<glyph unicode="a" glyph-name="a" horiz-adv-x="531" d="M87 -7T55 27T22 114Q22 159 45 188T101 234T184 267Q238 285 263 300T288 342V431Q288 463 272 488T217 513Q186 513 161 496Q195 484 211 461T228 408Q228 369 201 346T134 322Q95 322 73 346T50 409Q50
439 65 461T112 501Q168 533 272 533Q327 533 367 523T435 483Q455 462 461 431T468 343V75Q468 50 471 41T484 32Q491 32 499 36T514 47L524 30Q481 -7 401 -7Q341 -7 317 13T291 69Q244 -7 151 -7Q87 -7 55 27ZM272 73T288 90V301Q279 286 255 262Q228 236 214
212T200 145Q200 73 251 73Q272 73 288 90Z" />
<glyph unicode="b" glyph-name="b" horiz-adv-x="601" d="M473 533T521 469T569 282Q569 123 505 55T336 -14Q304 -14 283 -12T243 -2Q206 13 166 13Q136 13 110 5T70 -16L56 -6Q63 15 63 49V662Q63 708 51 729T7 750V771Q38 768 69 768Q173 768 243 782V458Q289
533 395 533Q473 533 521 469ZM382 6T382 259Q382 382 364 431T315 481Q286 481 265 461T243 409V18Q266 6 290 6Q382 6 382 259Z" />
<glyph unicode="c" glyph-name="c" horiz-adv-x="503" d="M328 533T362 525T419 503Q447 487 463 460T479 399Q479 357 452 330T383 302Q340 302 316 326T291 392Q291 428 314 455T373 492Q358 504 333 504Q269 504 243 436T217 273Q217 177 253 136T342 95Q415
95 463 162L480 156Q458 86 406 36T271 -14Q162 -14 96 51T30 259Q30 396 100 464T287 533Q328 533 362 525Z" />
<glyph unicode="d" glyph-name="d" horiz-adv-x="609" d="M537 64T549 43T593 22V1Q562 4 531 4Q427 4 357 -10V61Q336 22 308 4T235 -14Q143 -14 87 54T31 263Q31 396 90 464T253 533Q317 533 357 508V662Q357 708 345 729T301 750V771Q332 768 363 768Q467 768
537 782V110Q537 64 549 43ZM314 38T335 58T357 110V487Q335 500 310 500Q263 500 241 441T218 260Q218 137 236 88T285 38Q314 38 335 58Z" />
<glyph unicode="e" glyph-name="e" horiz-adv-x="503" d="M406 95T454 162L471 156Q449 86 397 36T262 -14Q157 -14 94 51T31 259Q31 396 101 464T288 533Q477 533 477 309H219Q218 297 218 273Q218 177 251 136T333 95Q406 95 454 162ZM225 510T215 328H331Q332
408 320 459T281 510Q225 510 215 328Z" />
<glyph unicode="f" glyph-name="f" horiz-adv-x="365" d="M368 782T416 745Q432 733 442 711T453 662Q453 630 430 606T370 581Q328 581 304 603T280 664Q280 694 297 718T349 753Q342 762 322 762Q291 762 275 743Q265 731 261 711T256 652V518H363V498H256V103Q256
57 277 39T342 21V0L313 1Q193 4 158 4Q128 4 20 0V21Q51 21 63 36T76 93V498H16V518H76Q76 605 91 651T147 732Q172 753 212 767T296 782Q368 782 416 745Z" />
<glyph unicode="g" glyph-name="g" horiz-adv-x="570" d="M495 418T480 432T464 473Q464 497 478 525Q434 507 413 474Q450 435 450 373Q450 294 392 254T235 213Q216 213 207 214Q181 196 181 172Q181 140 217 140H314Q416 140 473 106T531 -2Q531 -54 498 -96T395
-163T221 -188Q118 -188 59 -165T0 -100Q0 -71 29 -47T117 -9L127 -25Q100 -58 100 -89Q100 -128 135 -149T235 -171Q301 -171 336 -145T372 -74Q372 -43 349 -25T266 -6H212Q144 -6 108 20T72 90Q72 130 100 160T183 216Q107 226 64 265T20 373Q20 452 78 492T235
533Q340 533 397 489Q416 515 443 530T500 545Q533 545 551 527T569 479Q569 451 554 435T516 418Q495 418 480 432ZM255 231T265 263T276 373Q276 450 266 482T235 515Q215 515 205 483T194 373Q194 296 204 264T235 231Q255 231 265 263Z" />
<glyph unicode="h" glyph-name="h" horiz-adv-x="622" d="M254 458Q299 533 413 533Q493 533 526 493Q541 475 548 445T555 364V93Q555 52 567 37T611 21V0Q503 4 471 4Q437 4 329 0V21Q355 21 365 36T375 93V418Q375 450 364 465T326 481Q297 481 276 461T254
409V93Q254 52 264 37T300 21V0Q200 4 168 4Q134 4 18 0V21Q49 21 61 36T74 93V662Q74 708 62 729T18 750V771Q49 768 80 768Q184 768 254 782V458Z" />
<glyph unicode="i" glyph-name="i" horiz-adv-x="330" d="M213 782T241 760T270 696Q270 654 242 632T161 610Q108 610 80 632T52 696Q52 738 80 760T161 782Q213 782 241 760ZM257 93Q257 52 269 37T313 21V0Q205 4 171 4Q137 4 21 0V21Q52 21 64 36T77 93V410Q77
456 65 477T21 498V519Q53 516 83 516Q187 516 257 530V93Z" />
<glyph unicode="j" glyph-name="j" horiz-adv-x="317" d="M-21 -168Q22 -168 48 -138T74 -42V410Q74 456 62 477T18 498V519Q49 516 80 516Q184 516 254 530V80Q254 -8 238 -56T183 -138Q124 -188 -21 -188V-168ZM205 782T233 760T262 696Q262 654 234 632T153
610Q100 610 72 632T44 696Q44 738 72 760T153 782Q205 782 233 760Z" />
<glyph unicode="k" glyph-name="k" horiz-adv-x="609" d="M573 69T580 56T594 35T611 21V0Q519 4 490 4Q457 4 349 0V21Q378 21 378 40Q378 47 374 55L286 241Q280 252 273 257T254 263V93Q254 52 266 37T310 21V0Q202 4 168 4Q134 4 18 0V21Q49 21 61 36T74 93V662Q74
708 62 729T18 750V771Q49 768 80 768Q184 768 254 782V282Q282 282 297 297L374 369Q409 401 409 434Q409 460 387 478T329 499V519Q386 516 449 516Q547 516 586 519V499Q517 480 438 401L412 375L571 73Q573 69 580 56Z" />
<glyph unicode="l" glyph-name="l" horiz-adv-x="328" d="M254 93Q254 52 266 37T310 21V0Q202 4 168 4Q134 4 18 0V21Q49 21 61 36T74 93V662Q74 708 62 729T18 750V771Q49 768 80 768Q184 768 254 782V93Z" />
<glyph unicode="m" glyph-name="m" horiz-adv-x="916" d="M849 52T861 37T905 21V0Q797 4 765 4Q733 4 633 0V21Q653 21 661 36T669 93V418Q669 450 658 465T620 481Q594 481 573 459T546 407Q548 383 548 364V93Q548 51 558 36T594 21V0Q494 4 464 4Q432 4 332
0V21Q352 21 360 36T368 93V418Q368 450 359 465T329 481Q300 481 279 461T257 409V93Q257 51 265 36T293 21V0Q201 4 171 4Q137 4 21 0V21Q52 21 64 36T77 93V410Q77 456 65 477T21 498V519Q53 516 83 516Q187 516 257 530V458Q299 533 406 533Q486 533 519 493Q534
475 541 446Q566 494 607 513T707 533Q787 533 820 493Q835 475 842 445T849 364V93Q849 52 861 37Z" />
<glyph unicode="n" glyph-name="n" horiz-adv-x="625" d="M496 533T529 493Q544 475 551 445T558 364V93Q558 52 570 37T614 21V0Q506 4 474 4Q440 4 332 0V21Q358 21 368 36T378 93V418Q378 450 367 465T329 481Q300 481 279 461T257 409V93Q257 52 267 37T303
21V0Q203 4 171 4Q137 4 21 0V21Q52 21 64 36T77 93V410Q77 456 65 477T21 498V519Q53 516 83 516Q187 516 257 530V458Q302 533 416 533Q496 533 529 493Z" />
<glyph unicode="o" glyph-name="o" horiz-adv-x="576" d="M411 533T478 469T545 259Q545 114 478 50T288 -14Q165 -14 98 50T31 259Q31 404 98 468T288 533Q411 533 478 469ZM256 513T237 450T218 259Q218 131 237 69T288 6Q320 6 339 68T358 259Q358 387 339
450T288 513Q256 513 237 450Z" />
<glyph unicode="p" glyph-name="p" horiz-adv-x="612" d="M484 533T532 469T580 282Q580 123 516 55T347 -14Q289 -14 254 5V-78Q254 -124 275 -142T340 -160V-181L311 -180Q191 -177 156 -177Q126 -177 18 -181V-160Q49 -160 61 -145T74 -88V409Q74 455 62 476T18
497V518Q49 515 80 515Q184 515 254 529V458Q300 533 406 533Q484 533 532 469ZM344 16T368 75T393 259Q393 382 375 431T326 481Q297 481 276 461T254 409V24Q267 16 289 16Q344 16 368 75Z" />
<glyph unicode="q" glyph-name="q" horiz-adv-x="600" d="M537 -129T549 -144T593 -160V-181Q485 -177 455 -177Q420 -177 300 -180L271 -181V-160Q314 -160 335 -142T357 -78V61Q336 22 308 4T235 -14Q143 -14 87 54T31 263Q31 396 90 464T253 533Q291 533 318
530T368 516Q398 506 432 506Q463 506 489 514T530 535L544 525Q537 504 537 470V-88Q537 -129 549 -144ZM314 38T335 58T357 110V502Q336 513 310 513Q218 513 218 260Q218 137 236 88T285 38Q314 38 335 58Z" />
<glyph unicode="r" glyph-name="r" horiz-adv-x="481" d="M435 533T456 503T478 432Q478 387 453 361T386 334Q343 334 320 353T297 406Q297 465 348 499Q330 499 316 492Q291 481 274 457T257 403V103Q257 56 276 39T343 21V0Q330 0 321 1Q216 4 181 4Q150 4
42 1Q34 0 21 0V21Q52 21 64 36T77 93V410Q77 456 65 477T21 498V519Q53 516 83 516Q187 516 257 530V458Q295 533 386 533Q435 533 456 503Z" />
<glyph unicode="s" glyph-name="s" horiz-adv-x="472" d="M270 533T304 525T357 506Q368 500 375 500Q396 500 400 532H420Q416 480 416 352H396Q388 418 359 463T273 509Q248 509 231 494T214 453Q214 420 236 395T305 332Q307 331 334 309Q390 263 416 228T442
140Q442 96 415 61T342 6T240 -14Q177 -14 137 11Q120 20 109 24T87 28Q68 28 59 -7H39Q43 50 43 193H63Q72 111 107 61T195 11Q220 11 236 25T253 66Q253 94 242 116T214 155T160 206Q118 245 96 268T59 321T43 389Q43 432 69 465T138 515T231 533Q270 533 304
525Z" />
<glyph unicode="t" glyph-name="t" horiz-adv-x="350" d="M252 519H350V499H252V84Q252 64 259 56T282 48Q294 48 309 55T336 77L351 65Q305 -14 209 -14Q140 -14 106 20Q85 41 79 72T72 159V499H-4V519H72V637Q126 637 169 647T252 681V519Z" />
<glyph unicode="u" glyph-name="u" horiz-adv-x="622" d="M548 109Q548 63 560 42T604 21V0Q573 3 542 3Q438 3 368 -11V61Q323 -14 209 -14Q129 -14 96 26Q81 44 74 74T67 155V410Q67 456 55 477T11 498V519Q42 516 73 516Q177 516 247 530V101Q247 69 258 54T296
38Q325 38 346 58T368 110V410Q368 456 356 477T312 498V519Q343 516 374 516Q478 516 548 530V109Z" />
<glyph unicode="v" glyph-name="v" horiz-adv-x="520" d="M501 515T521 519V498Q500 491 483 469T450 401L315 0Q299 2 267 2Q234 2 218 0L44 442Q22 498 -14 498V519Q65 513 164 513Q214 513 294 519V498Q263 498 250 494T236 473Q236 470 238 460L347 157L393
295Q412 353 412 397Q412 444 392 470T339 498V519Q376 515 444 515Q501 515 521 519Z" />
<glyph unicode="w" glyph-name="w" horiz-adv-x="798" d="M781 515T801 519V498Q780 490 763 469T730 401L605 0Q589 2 557 2Q524 2 508 0L389 346L298 0Q282 2 250 2Q217 2 201 0L47 442Q35 477 20 487T-11 498V519Q68 513 167 513Q217 513 297 519V498Q266 498
253 493T239 473Q239 470 241 460L324 183L410 518H411Q443 516 459 516Q479 516 517 518L631 152L674 295Q690 350 690 391Q690 441 668 468T609 498V519Q646 515 724 515Q781 515 801 519Z" />
<glyph unicode="x" glyph-name="x" horiz-adv-x="547" d="M521 48T531 36T556 21V0Q456 4 425 4Q395 4 287 0V21Q301 21 309 26T317 39Q317 48 312 55L214 203L205 192Q168 145 168 99Q168 66 187 45T239 20V0Q178 3 76 3Q36 3 9 0V20Q34 32 55 51T103 102L204
218L51 448Q35 473 24 484T-1 498V519Q115 515 150 515Q176 515 268 519V498Q254 498 246 493T238 480Q238 472 243 464L330 333L347 353Q384 399 384 438Q384 464 368 480T321 499V519Q382 516 454 516Q494 516 521 519V499Q480 481 427 417L341 317L504 71Q521
48 531 36Z" />
<glyph unicode="y" glyph-name="y" horiz-adv-x="529" d="M505 515T525 519V498Q504 491 487 469T454 401L329 29L287 -92Q269 -144 243 -164Q212 -188 150 -188Q100 -188 57 -165T14 -94Q14 -59 41 -38T112 -17Q154 -17 178 -36T202 -91Q202 -115 186 -136T137
-168Q147 -170 171 -170Q240 -170 266 -90L271 -73L38 442Q23 476 9 487T-20 498V519Q60 513 143 513Q208 513 288 519V498Q259 498 244 494T228 476Q228 468 232 460L355 167L397 295Q416 353 416 397Q416 444 396 470T343 498V519Q380 515 448 515Q505 515 525
519Z" />
<glyph unicode="z" glyph-name="z" horiz-adv-x="472" d="M223 15H237Q303 15 352 59T410 206H430Q430 56 434 -4Q351 0 238 0Q138 0 26 -5L250 503H230Q165 503 118 459T63 312H43Q43 462 39 522Q122 518 235 518Q335 518 447 523L223 15Z" />
<glyph unicode="{" glyph-name="braceleft" horiz-adv-x="353" d="M342 763Q311 762 297 748T278 691T272 551Q272 428 210 374T39 299Q146 279 209 224T272 47Q272 -53 277 -97T297 -154T342 -169V-188Q247 -188 194 -167T117 -96T92 47Q92 143 86 193T63 265T16
290H11V308H16Q47 310 63 331T85 403T92 551Q92 640 116 689T194 760T342 782V763Z" />
<glyph unicode="|" glyph-name="bar" horiz-adv-x="274" d="M197 -195H77V858H197V-195Z" />
<glyph unicode="}" glyph-name="braceright" horiz-adv-x="353" d="M11 763Q42 762 56 748T75 691T81 551Q81 428 143 374T314 299Q207 279 144 224T81 47Q81 -53 76 -97T56 -154T11 -169V-188Q106 -188 159 -167T236 -96T261 47Q261 143 267 193T290 265T337
290H342V308H337Q306 310 290 331T268 403T261 551Q261 640 237 689T159 760T11 782V763Z" />
<glyph unicode="~" glyph-name="asciitilde" horiz-adv-x="681" d="M251 405T283 393T363 356Q408 332 439 320T506 308Q586 308 616 386L634 383Q629 327 606 285T548 219T472 195Q433 195 401 207T321 244Q276 268 245 280T178 292Q98 292 68 214L50 217Q55
273 78 315T136 381T212 405Q251 405 283 393Z" />
<glyph unicode="&#xa0;" glyph-name="uni00A0" horiz-adv-x="223" />
<glyph unicode="&#xa1;" glyph-name="exclamdown" horiz-adv-x="295" d="M196 533T221 511T247 447Q247 405 222 383T148 361Q100 361 75 383T49 447Q49 489 74 511T148 533Q196 533 221 511ZM159 262T173 213T214 82Q234 26 243 -7T253 -68Q253 -125 224 -156T148
-188Q100 -188 71 -156T41 -68Q41 -43 50 -11T79 79Q105 152 120 207T138 318H156Q159 262 173 213Z" />
<glyph unicode="&#xa2;" glyph-name="cent" horiz-adv-x="515" d="M460 88T410 39T281 -14V-181H259V-14Q155 -10 93 55T31 259Q31 387 93 455T259 532V708H281V533H288Q329 533 363 525T420 503Q448 487 464 460T480 399Q480 357 453 330T384 302Q341 302 317
326T292 392Q292 428 315 455T374 492Q359 504 334 504Q270 504 244 436T218 273Q218 177 254 136T343 95Q416 95 464 162L481 156Q460 88 410 39Z" />
<glyph unicode="&#xa3;" glyph-name="sterling" horiz-adv-x="699" d="M593 263T630 228T668 137Q668 64 623 25T489 -14Q447 -14 411 -6T320 20Q286 32 247 42Q243 43 228 46T198 50Q170 50 143 40Q124 13 102 0T58 -14Q31 -14 31 6Q31 22 52 36T116 58Q127 85
130 114T134 196V258V297H57V317H134V397H57V417H134V439Q134 736 406 736Q444 736 475 730T526 714Q555 699 571 676T588 622Q588 585 564 560T500 535Q459 535 435 557T410 615Q410 647 427 671T475 707Q452 717 418 717Q378 717 357 694T326 617T317 465V417H422V397H317V351Q317
339 315 317H422V297H311Q301 251 276 214T200 119Q173 91 152 64Q211 118 257 138T345 158Q374 158 394 155T448 145Q468 140 490 137T535 133Q564 133 582 149T601 190Q601 217 584 233T536 256L540 272Q593 263 630 228Z" />
<glyph unicode="&#xa4;" glyph-name="currency" horiz-adv-x="669" d="M621 463L552 394Q571 348 571 300Q571 251 551 206L621 137L498 14L428 83Q382 64 334 64Q285 64 241 83L172 14L49 137L117 205Q98 251 98 300Q98 348 117 394L49 463L172 586L240 517Q285
537 334 537Q381 537 429 517L498 586L621 463ZM297 407T270 376T242 300Q242 256 269 225T336 194Q374 194 401 225T429 300Q429 344 402 375T336 407Q297 407 270 376Z" />
<glyph unicode="&#xa5;" glyph-name="yen" horiz-adv-x="698" d="M639 706T669 709V689Q618 664 563 556L470 372V307H585V287H470V207H585V187H470V106Q470 68 475 51T495 28T541 20V0Q482 3 369 3Q250 3 196 0V20Q228 22 242 28T262 51T267 106V187H152V207H267V287H152V307H258L82
632Q66 661 51 674T24 688V709Q86 703 162 703Q248 703 382 709V688Q342 688 322 684T302 665Q302 658 306 650L449 376L494 466Q541 560 541 615Q541 686 461 689V709Q536 706 592 706Q639 706 669 709Z" />
<glyph unicode="&#xa6;" glyph-name="brokenbar" horiz-adv-x="278" d="M199 384H79V858H199V384ZM199 -195H79V326H199V-195Z" />
<glyph unicode="&#xa7;" glyph-name="section" horiz-adv-x="630" d="M599 241T569 202T469 127Q509 92 527 59T545 -14Q545 -67 512 -106T419 -166T283 -188Q198 -188 146 -162Q117 -147 102 -125T87 -68Q87 -35 111 -11T175 13Q216 13 240 -9T265 -67Q265 -96
250 -120T209 -155Q214 -159 233 -164T274 -169Q326 -169 350 -145T375 -83Q375 -50 364 -29T331 10T263 58L219 87Q147 135 111 164T53 227T32 304Q32 353 62 392T162 467Q122 502 104 535T86 608Q86 661 119 700T212 760T348 782Q433 782 485 756Q514 741 529
719T544 662Q544 629 520 605T456 581Q415 581 391 603T366 661Q366 690 381 714T422 749Q417 753 398 758T357 763Q305 763 281 739T256 677Q256 644 267 623T300 584T368 536L412 507Q484 459 520 430T578 367T599 290Q599 241 569 202ZM415 171T442 149Q455
169 455 204Q455 232 441 254T391 304T281 380Q217 423 189 445Q176 425 176 390Q176 362 190 340T240 290T350 214Q415 171 442 149Z" />
<glyph unicode="&#xa8;" glyph-name="dieresis" horiz-adv-x="512" d="M171 772T197 746T224 685Q224 649 198 624T137 598Q101 598 76 623T50 685Q50 720 75 746T137 772Q171 772 197 746ZM409 772T435 746T462 685Q462 649 436 624T375 598Q339 598 314 623T288
685Q288 720 313 746T375 772Q409 772 435 746Z" />
<glyph unicode="&#xa9;" glyph-name="copyright" horiz-adv-x="872" d="M544 782T635 729T780 584T834 384Q834 276 781 185T636 40T436 -14Q328 -14 237 39T92 184T38 384Q38 492 91 583T236 728T436 782Q544 782 635 729ZM339 750T257 701T126 567T78 384Q78
285 126 201T256 68T436 18Q533 18 615 67T746 201T794 384Q794 483 746 567T616 700T436 750Q339 750 257 701ZM502 658T536 650T594 628Q622 611 638 584T654 524Q654 482 627 455T558 427Q515 427 491 451T466 517Q466 553 489 580T548 617Q538 623 523 627T491
632Q474 632 461 628Q427 617 410 566T392 398Q392 285 428 238T517 190Q590 190 638 287L655 281Q633 211 581 161T446 111Q337 111 271 176T205 384Q205 521 275 589T462 658Q502 658 536 650Z" />
<glyph unicode="&#xaa;" glyph-name="ordfeminine" horiz-adv-x="495" d="M342 722T382 692T423 595V423Q423 413 426 409T438 405Q451 405 459 412L470 397Q417 360 340 360Q299 360 282 372T263 407Q239 383 207 372T141 360Q94 360 66 379T38 439Q38 479 70
501T183 547Q217 557 240 571T263 603V621Q263 665 249 684T205 703Q181 703 164 692Q188 685 201 667T214 628Q214 597 190 579T131 561Q96 561 75 579T53 626Q53 650 69 669T111 699Q140 711 173 716T251 722Q342 722 382 692ZM260 567T252 557T233 534Q205 503
205 459Q205 439 213 427T233 415Q251 415 263 425V574Q260 567 252 557Z" />
<glyph unicode="&#xab;" glyph-name="guillemotleft" horiz-adv-x="614" d="M342 531Q327 466 290 382T221 259Q253 220 290 136T342 -12L328 -16Q248 67 176 131T22 249V269Q102 323 174 387T328 535L342 531ZM558 491Q548 438 520 366T467 259Q491 225 519 153T558
28L544 24Q471 97 409 150T278 249V269Q346 314 407 367T544 495L558 491Z" />
<glyph unicode="&#xac;" glyph-name="logicalnot" horiz-adv-x="632" d="M569 165H533V340H68V370H569V165Z" />
<glyph unicode="&#xad;" glyph-name="uni00AD" horiz-adv-x="469" />
<glyph unicode="&#xae;" glyph-name="registered" horiz-adv-x="656" d="M404 782T468 745T569 643T607 503Q607 427 570 363T468 262T328 224Q252 224 188 261T87 363T49 503Q49 579 86 643T188 744T328 782Q404 782 468 745ZM393 256T447 289T533 379T565 503Q565
570 534 626T448 716T328 750Q263 750 209 717T123 627T91 503Q91 436 122 380T208 290T328 256Q393 256 447 289ZM503 364Q483 347 445 347Q375 347 367 392L354 464Q350 487 342 496T308 508V404Q308 381 312 375T331 367V352L260 353L184 352V367Q199 369 203
375T207 404V623Q207 646 203 652T184 661V676Q200 675 256 675L342 676Q409 676 438 656T468 597Q468 572 444 549T362 517Q412 513 431 500T456 459L473 388Q476 371 486 371Q492 371 497 375L503 364ZM316 661T312 656T308 636V526H312Q339 526 354 543T369
594Q369 626 358 643T326 661Q316 661 312 656Z" />
<glyph unicode="&#xaf;" glyph-name="overscore" horiz-adv-x="452" d="M402 687H50V712H402V687Z" />
<glyph unicode="&#xb0;" glyph-name="degree" horiz-adv-x="297" d="M199 820T234 787T270 700Q270 646 235 613T148 579Q98 579 63 612T27 700Q27 754 62 787T148 820Q199 820 234 787ZM111 803T82 775T52 699Q52 650 81 623T148 596Q186 596 215 623T245 699Q245
747 215 775T148 803Q111 803 82 775Z" />
<glyph unicode="&#xb1;" glyph-name="plusminus" horiz-adv-x="567" d="M533 0H32V30H533V0ZM303 370H535V340H303V105H267V340H34V370H267V606H303V370Z" />
<glyph unicode="&#xb2;" glyph-name="uni00B2" horiz-adv-x="359" d="M235 755T267 736T300 681Q300 647 274 623T190 564Q181 559 164 549T133 529H270Q292 529 300 536T317 563L334 560Q320 482 319 435Q307 438 281 438H21V458L62 491Q121 536 154 574T187
661Q187 684 172 697T130 711Q78 711 47 667L32 675Q81 755 183 755Q235 755 267 736Z" />
<glyph unicode="&#xb3;" glyph-name="uni00B3" horiz-adv-x="334" d="M226 756T261 737T296 684Q296 649 261 625T163 589Q224 593 266 567T309 497Q309 429 224 393T19 348V365Q104 377 151 413T198 505Q198 535 184 555T145 578Q140 576 129 570T108 564Q93
564 93 576Q93 586 104 588T137 590Q162 603 172 623T183 663Q183 686 167 701T123 716Q98 716 76 703T40 668L25 676Q69 756 173 756Q226 756 261 737Z" />
<glyph unicode="&#xb4;" glyph-name="acute" horiz-adv-x="304" d="M254 804T254 775Q254 749 237 729Q228 718 215 708T190 690T173 679Q141 659 117 642T61 599L50 608Q68 644 77 670T100 736Q109 766 116 782T135 812Q144 823 158 829T189 836Q214 836 233
820Q254 804 254 775Z" />
<glyph unicode="&#xb6;" glyph-name="paragraph" horiz-adv-x="790" d="M485 709T561 707L663 706Q721 706 750 708V689Q709 687 696 672T683 621V-75Q683 -113 688 -130T707 -153T754 -161V-181Q684 -178 547 -178Q433 -178 379 -181V-161Q421 -159 442 -150T472
-122T480 -65V-13Q245 -13 138 87T31 360Q31 462 80 541T221 664T439 709Q485 709 561 707ZM475 656T463 615T441 510T429 376Q351 376 280 371T165 360T120 351Q120 347 163 342T278 332T429 327Q431 255 441 191T463 88T481 48V656Q475 656 463 615Z" />
<glyph unicode="&#xb7;" glyph-name="middot" horiz-adv-x="288" d="M192 376T217 354T243 290Q243 248 218 226T144 204Q96 204 71 226T45 290Q45 332 70 354T144 376Q192 376 217 354Z" />
<glyph unicode="&#xb8;" glyph-name="cedilla" horiz-adv-x="348" d="M145 -60Q181 -45 224 -45Q260 -45 279 -61T298 -103Q298 -145 255 -166T140 -188Q86 -188 50 -175L56 -157Q78 -162 104 -162Q129 -162 147 -153T166 -124Q166 -99 138 -99Q118 -99 105 -106L135
0H162L145 -60Z" />
<glyph unicode="&#xb9;" glyph-name="uni00B9" horiz-adv-x="297" d="M220 507Q220 479 235 469T287 458V437Q237 439 160 439Q83 439 33 437V458Q70 458 88 468T107 507V636Q107 665 100 678T77 696T26 701V722Q95 723 138 730T220 753V507Z" />
<glyph unicode="&#xba;" glyph-name="ordmasculine" horiz-adv-x="478" d="M334 722T390 675T446 541Q446 454 390 407T239 360Q144 360 88 407T32 541Q32 628 88 675T239 722Q334 722 390 675ZM199 704T199 541Q199 378 239 378Q279 378 279 541Q279 704 239
704Q199 704 199 541Z" />
<glyph unicode="&#xbb;" glyph-name="guillemotright" horiz-adv-x="614" d="M367 451T439 387T592 269V249Q511 195 439 131T286 -16L272 -12Q287 52 324 136T393 259Q361 298 324 382T272 531L286 535Q367 451 439 387ZM145 421T206 368T336 269V249Q267 204
205 151T70 24L56 28Q66 81 94 153T147 259Q123 293 95 365T56 491L70 495Q145 421 206 368Z" />
<glyph unicode="&#xbc;" glyph-name="onequarter" horiz-adv-x="720" d="M692 811L107 -55L88 -42L673 824L692 811ZM235 507Q235 479 250 469T302 458V437Q252 439 175 439Q98 439 48 437V458Q85 458 103 468T122 507V636Q122 665 115 678T92 696T41 701V722Q110
723 153 730T235 753V507ZM651 118Q641 90 637 15Q625 18 599 18H569V-99H486V18H289V39L548 318H569V87H587Q609 87 617 94T634 121L651 118ZM486 87V228L355 87H486Z" />
<glyph unicode="&#xbd;" glyph-name="onehalf" horiz-adv-x="734" d="M676 811L91 -55L72 -42L657 824L676 811ZM232 507Q232 479 247 469T299 458V437Q249 439 172 439Q95 439 45 437V458Q82 458 100 468T119 507V636Q119 665 112 678T89 696T38 701V722Q107
723 150 730T232 753V507ZM603 318T635 299T668 244Q668 210 642 186T558 127Q549 122 532 112T501 92H638Q660 92 668 99T685 126L702 123Q688 45 687 -2Q675 1 649 1H389V21L430 54Q489 99 522 137T555 224Q555 247 540 260T498 274Q446 274 415 230L400 238Q449
318 551 318Q603 318 635 299Z" />
<glyph unicode="&#xbe;" glyph-name="threequarters" horiz-adv-x="758" d="M730 811L145 -55L126 -42L711 824L730 811ZM246 756T281 737T316 684Q316 649 281 625T183 589Q244 593 286 567T329 497Q329 429 244 393T39 348V365Q124 377 171 413T218 505Q218
535 204 555T165 578Q160 576 149 570T128 564Q113 564 113 576Q113 586 124 588T157 590Q182 603 192 623T203 663Q203 686 187 701T143 716Q118 716 96 703T60 668L45 676Q89 756 193 756Q246 756 281 737ZM696 118Q686 90 682 15Q670 18 644 18H614V-99H531V18H334V39L593
318H614V87H632Q654 87 662 94T679 121L696 118ZM531 87V228L400 87H531Z" />
<glyph unicode="&#xbf;" glyph-name="questiondown" horiz-adv-x="536" d="M360 534T385 512T411 448Q411 406 386 384T312 362Q264 362 239 384T213 448Q213 490 238 512T312 534Q360 534 385 512ZM322 185Q253 151 230 105T206 -9Q206 -90 236 -129T317 -168Q345
-168 366 -163T396 -149Q363 -137 347 -116T331 -61Q331 -25 357 -1T427 23Q463 23 486 0T509 -57Q509 -91 492 -113T445 -153Q417 -169 377 -178T287 -188Q210 -188 151 -167T60 -104T27 -8Q27 67 101 119T302 194V325H322V185Z" />
<glyph unicode="&#xc0;" glyph-name="Agrave" horiz-adv-x="692" d="M653 52T668 37T699 20V0Q627 3 517 3Q403 3 349 0V20Q387 22 403 29T419 56Q419 74 407 104L348 268H146L129 223Q96 138 96 93Q96 52 119 37T187 20V0Q112 3 56 3Q9 3 -21 0V20Q4 24 26 51T71
137L293 708Q325 706 346 706Q366 706 398 708L640 84Q653 52 668 37ZM341 288L250 538L154 288H341ZM271 931T283 919T316 883Q360 828 412 784L405 772Q342 791 271 802Q242 807 225 811T192 823Q174 832 164 848T154 882Q154 896 160 908Q169 926 186 936T223
946Q238 946 254 939Q271 931 283 919Z" />
<glyph unicode="&#xc1;" glyph-name="Aacute" horiz-adv-x="692" d="M653 52T668 37T699 20V0Q627 3 517 3Q403 3 349 0V20Q387 22 403 29T419 56Q419 74 407 104L348 268H146L129 223Q96 138 96 93Q96 52 119 37T187 20V0Q112 3 56 3Q9 3 -21 0V20Q4 24 26 51T71
137L293 708Q325 706 346 706Q366 706 398 708L640 84Q653 52 668 37ZM341 288L250 538L154 288H341ZM438 946T453 946Q472 946 489 936T516 908Q522 896 522 882Q522 864 512 848T484 823Q468 815 451 811T405 802Q334 791 271 772L264 784Q316 828 360 883Q381
907 393 919T422 939Q438 946 453 946Z" />
<glyph unicode="&#xc2;" glyph-name="Acircumflex" horiz-adv-x="692" d="M653 52T668 37T699 20V0Q627 3 517 3Q403 3 349 0V20Q387 22 403 29T419 56Q419 74 407 104L348 268H146L129 223Q96 138 96 93Q96 52 119 37T187 20V0Q112 3 56 3Q9 3 -21 0V20Q4 24
26 51T71 137L293 708Q325 706 346 706Q366 706 398 708L640 84Q653 52 668 37ZM341 288L250 538L154 288H341ZM390 908T448 862T571 784L566 769Q498 779 431 796T325 830Q292 813 236 796T124 769L119 784Q183 814 240 860T336 956H354Q390 908 448 862Z" />
<glyph unicode="&#xc3;" glyph-name="Atilde" horiz-adv-x="692" d="M653 52T668 37T699 20V0Q627 3 517 3Q403 3 349 0V20Q387 22 403 29T419 56Q419 74 407 104L348 268H146L129 223Q96 138 96 93Q96 52 119 37T187 20V0Q112 3 56 3Q9 3 -21 0V20Q4 24 26 51T71
137L293 708Q325 706 346 706Q366 706 398 708L640 84Q653 52 668 37ZM341 288L250 538L154 288H341ZM290 938T317 929T375 902Q407 886 426 879T473 872Q530 872 570 925L584 918Q565 840 526 803T436 765Q398 765 372 774T311 801Q282 817 262 824T214 832Q158
832 117 778L103 785Q122 863 162 900T252 938Q290 938 317 929Z" />
<glyph unicode="&#xc4;" glyph-name="Adieresis" horiz-adv-x="692" d="M653 52T668 37T699 20V0Q627 3 517 3Q403 3 349 0V20Q387 22 403 29T419 56Q419 74 407 104L348 268H146L129 223Q96 138 96 93Q96 52 119 37T187 20V0Q112 3 56 3Q9 3 -21 0V20Q4 24 26
51T71 137L293 708Q325 706 346 706Q366 706 398 708L640 84Q653 52 668 37ZM341 288L250 538L154 288H341ZM250 936T276 910T303 849Q303 813 277 788T216 762Q180 762 155 787T129 849Q129 884 154 910T216 936Q250 936 276 910ZM508 936T534 910T561 849Q561
813 535 788T474 762Q438 762 413 787T387 849Q387 884 412 910T474 936Q508 936 534 910Z" />
<glyph unicode="&#xc5;" glyph-name="Aring" horiz-adv-x="692" d="M653 52T668 37T699 20V0Q627 3 517 3Q403 3 349 0V20Q387 22 403 29T419 56Q419 74 407 104L348 268H146L129 223Q96 138 96 93Q96 52 119 37T187 20V0Q112 3 56 3Q9 3 -21 0V20Q4 24 26 51T71
137L293 708Q325 706 346 706Q366 706 398 708L640 84Q653 52 668 37ZM341 288L250 538L154 288H341ZM393 945T427 917T462 844Q462 798 428 770T345 742Q297 742 263 770T229 844Q229 889 263 917T345 945Q393 945 427 917ZM311 924T284 902T257 843Q257 805 283
784T345 763Q380 763 407 784T434 843Q434 880 407 902T345 924Q311 924 284 902Z" />
<glyph unicode="&#xc6;" glyph-name="AE" horiz-adv-x="912" d="M862 58T869 0Q801 3 640 3Q427 3 320 0V20Q352 22 366 28T386 51T391 106V346H229L90 104Q72 73 72 55Q72 38 89 30T141 20V0Q111 3 50 3Q7 3 -17 0V20Q0 21 16 35T52 84L384 660Q378 675 364 680T320
688V708L411 706L449 772H473L435 706Q515 705 640 705Q787 705 849 708Q842 625 842 560Q842 514 845 488H822Q807 593 769 639T678 685H665Q634 685 620 680T600 657T594 602V366H634Q666 366 685 385T712 428T730 488H753Q750 449 750 400V356Q750 309 756 224H733Q723
280 702 313T634 346H594V106Q594 68 599 51T619 29T665 23H698Q726 23 756 44T810 114T842 240H865Q862 204 862 148Q862 58 869 0ZM391 366V602Q391 620 390 628L240 366H391Z" />
<glyph unicode="&#xc7;" glyph-name="Ccedilla" horiz-adv-x="717" d="M474 722T516 705T598 657Q608 648 617 648Q637 648 643 708H666Q662 637 662 458H639Q632 538 613 584T547 661Q500 691 454 691Q350 691 308 591T266 352Q266 213 308 113T454 13Q500 13
547 43Q594 72 613 121T639 260H662Q662 73 666 0H643Q640 32 635 45T619 59Q611 59 598 51Q553 19 512 3T413 -14Q300 -14 215 29T83 153T36 348Q36 458 84 543T218 675T414 722Q474 722 516 705ZM412 -60Q452 -45 501 -45Q542 -45 563 -61T585 -103Q585 -145
534 -166T397 -188Q336 -188 297 -175L303 -157Q331 -162 361 -162Q398 -162 425 -153T453 -124Q453 -99 405 -99Q385 -99 372 -106L404 5H431L412 -60Z" />
<glyph unicode="&#xc8;" glyph-name="Egrave" horiz-adv-x="650" d="M600 66T607 0Q539 3 378 3Q144 3 28 0V20Q60 22 74 28T94 51T99 106V602Q99 640 94 657T74 680T28 688V708Q144 705 378 705Q525 705 587 708Q580 614 580 540Q580 494 583 468H560Q542 584
493 634T376 685H363Q336 685 324 681T307 664T302 622V366H312Q364 366 401 407T448 498H471Q468 456 468 404V356Q468 305 474 214H451Q442 271 405 308T312 346H302V86Q302 57 306 45T323 28T363 23H396Q454 23 506 79T580 260H603Q600 224 600 168Q600 66 607
0ZM246 931T258 919T291 883Q335 828 387 784L380 772Q317 791 246 802Q217 807 200 811T167 823Q149 832 139 848T129 882Q129 896 135 908Q144 926 161 936T198 946Q213 946 229 939Q246 931 258 919Z" />
<glyph unicode="&#xc9;" glyph-name="Eacute" horiz-adv-x="650" d="M600 66T607 0Q539 3 378 3Q144 3 28 0V20Q60 22 74 28T94 51T99 106V602Q99 640 94 657T74 680T28 688V708Q144 705 378 705Q525 705 587 708Q580 614 580 540Q580 494 583 468H560Q542 584
493 634T376 685H363Q336 685 324 681T307 664T302 622V366H312Q364 366 401 407T448 498H471Q468 456 468 404V356Q468 305 474 214H451Q442 271 405 308T312 346H302V86Q302 57 306 45T323 28T363 23H396Q454 23 506 79T580 260H603Q600 224 600 168Q600 66 607
0ZM413 946T428 946Q447 946 464 936T491 908Q497 896 497 882Q497 864 487 848T459 823Q443 815 426 811T380 802Q309 791 246 772L239 784Q291 828 335 883Q356 907 368 919T397 939Q413 946 428 946Z" />
<glyph unicode="&#xca;" glyph-name="Ecircumflex" horiz-adv-x="650" d="M600 66T607 0Q539 3 378 3Q144 3 28 0V20Q60 22 74 28T94 51T99 106V602Q99 640 94 657T74 680T28 688V708Q144 705 378 705Q525 705 587 708Q580 614 580 540Q580 494 583 468H560Q542
584 493 634T376 685H363Q336 685 324 681T307 664T302 622V366H312Q364 366 401 407T448 498H471Q468 456 468 404V356Q468 305 474 214H451Q442 271 405 308T312 346H302V86Q302 57 306 45T323 28T363 23H396Q454 23 506 79T580 260H603Q600 224 600 168Q600
66 607 0ZM365 908T423 862T546 784L541 769Q473 779 406 796T300 830Q267 813 211 796T99 769L94 784Q158 814 215 860T311 956H329Q365 908 423 862Z" />
<glyph unicode="&#xcb;" glyph-name="Edieresis" horiz-adv-x="650" d="M600 66T607 0Q539 3 378 3Q144 3 28 0V20Q60 22 74 28T94 51T99 106V602Q99 640 94 657T74 680T28 688V708Q144 705 378 705Q525 705 587 708Q580 614 580 540Q580 494 583 468H560Q542
584 493 634T376 685H363Q336 685 324 681T307 664T302 622V366H312Q364 366 401 407T448 498H471Q468 456 468 404V356Q468 305 474 214H451Q442 271 405 308T312 346H302V86Q302 57 306 45T323 28T363 23H396Q454 23 506 79T580 260H603Q600 224 600 168Q600
66 607 0ZM225 936T251 910T278 849Q278 813 252 788T191 762Q155 762 130 787T104 849Q104 884 129 910T191 936Q225 936 251 910ZM483 936T509 910T536 849Q536 813 510 788T449 762Q413 762 388 787T362 849Q362 884 387 910T449 936Q483 936 509 910Z" />
<glyph unicode="&#xcc;" glyph-name="Igrave" horiz-adv-x="401" d="M373 688Q341 686 327 680T307 657T302 602V106Q302 68 307 51T327 28T373 20V0Q315 3 206 3Q85 3 28 0V20Q60 22 74 28T94 51T99 106V602Q99 640 94 657T74 680T28 688V708Q85 705 206 705Q314
705 373 708V688ZM132 931T144 919T177 883Q221 828 273 784L266 772Q203 791 132 802Q103 807 86 811T53 823Q35 832 25 848T15 882Q15 896 21 908Q30 926 47 936T84 946Q99 946 115 939Q132 931 144 919Z" />
<glyph unicode="&#xcd;" glyph-name="Iacute" horiz-adv-x="401" d="M373 688Q341 686 327 680T307 657T302 602V106Q302 68 307 51T327 28T373 20V0Q315 3 206 3Q85 3 28 0V20Q60 22 74 28T94 51T99 106V602Q99 640 94 657T74 680T28 688V708Q85 705 206 705Q314
705 373 708V688ZM299 946T314 946Q333 946 350 936T377 908Q383 896 383 882Q383 864 373 848T345 823Q329 815 312 811T266 802Q195 791 132 772L125 784Q177 828 221 883Q242 907 254 919T283 939Q299 946 314 946Z" />
<glyph unicode="&#xce;" glyph-name="Icircumflex" horiz-adv-x="401" d="M373 688Q341 686 327 680T307 657T302 602V106Q302 68 307 51T327 28T373 20V0Q315 3 206 3Q85 3 28 0V20Q60 22 74 28T94 51T99 106V602Q99 640 94 657T74 680T28 688V708Q85 705 206
705Q314 705 373 708V688ZM251 908T309 862T432 784L427 769Q359 779 292 796T186 830Q153 813 97 796T-15 769L-20 784Q44 814 101 860T197 956H215Q251 908 309 862Z" />
<glyph unicode="&#xcf;" glyph-name="Idieresis" horiz-adv-x="401" d="M373 688Q341 686 327 680T307 657T302 602V106Q302 68 307 51T327 28T373 20V0Q315 3 206 3Q85 3 28 0V20Q60 22 74 28T94 51T99 106V602Q99 640 94 657T74 680T28 688V708Q85 705 206 705Q314
705 373 708V688ZM111 936T137 910T164 849Q164 813 138 788T77 762Q41 762 16 787T-10 849Q-10 884 15 910T77 936Q111 936 137 910ZM369 936T395 910T422 849Q422 813 396 788T335 762Q299 762 274 787T248 849Q248 884 273 910T335 936Q369 936 395 910Z" />
<glyph unicode="&#xd0;" glyph-name="Eth" horiz-adv-x="811" d="M568 708T671 620T774 362Q774 253 724 172T578 45T352 0L290 1Q230 3 202 3Q85 3 28 0V20Q60 22 74 28T94 51T99 106V602Q99 640 94 657T74 680T28 688V708Q74 705 164 705H200L244 706Q328 708
361 708Q568 708 671 620ZM345 690T330 683T308 658T302 604V104Q302 68 308 50T329 25T377 18Q476 18 520 103T564 358Q564 527 519 608T376 690Q345 690 330 683ZM412 346H8V366H412V346Z" />
<glyph unicode="&#xd1;" glyph-name="Ntilde" horiz-adv-x="732" d="M708 688Q677 681 662 667T642 622T637 532V0Q617 2 604 2Q593 2 567 0L124 484V196Q124 122 130 90T156 42T225 20V0Q184 3 113 3Q60 3 30 0V20Q61 27 76 41T96 86T101 176V602Q101 640 96
657T76 680T30 688V708Q60 705 113 705Q167 705 205 708L614 276V512Q614 586 608 618T582 666T513 688V708Q554 705 625 705Q678 705 708 708V688ZM327 938T354 929T412 902Q444 886 463 879T510 872Q567 872 607 925L621 918Q602 840 563 803T473 765Q435 765
409 774T348 801Q319 817 299 824T251 832Q195 832 154 778L140 785Q159 863 199 900T289 938Q327 938 354 929Z" />
<glyph unicode="&#xd2;" glyph-name="Ograve" horiz-adv-x="827" d="M527 722T612 679T744 555T791 360Q791 250 743 165T609 33T413 -14Q300 -14 215 29T83 153T36 348Q36 458 84 543T218 675T414 722Q527 722 612 679ZM361 704T324 660T266 535T246 352Q246
248 269 169T331 47T417 4Q466 4 503 48T561 173T581 356Q581 460 558 539T496 661T410 704Q361 704 324 660ZM338 931T350 919T383 883Q427 828 479 784L472 772Q409 791 338 802Q309 807 292 811T259 823Q241 832 231 848T221 882Q221 896 227 908Q236 926 253
936T290 946Q305 946 321 939Q338 931 350 919Z" />
<glyph unicode="&#xd3;" glyph-name="Oacute" horiz-adv-x="827" d="M527 722T612 679T744 555T791 360Q791 250 743 165T609 33T413 -14Q300 -14 215 29T83 153T36 348Q36 458 84 543T218 675T414 722Q527 722 612 679ZM361 704T324 660T266 535T246 352Q246
248 269 169T331 47T417 4Q466 4 503 48T561 173T581 356Q581 460 558 539T496 661T410 704Q361 704 324 660ZM505 946T520 946Q539 946 556 936T583 908Q589 896 589 882Q589 864 579 848T551 823Q535 815 518 811T472 802Q401 791 338 772L331 784Q383 828 427
883Q448 907 460 919T489 939Q505 946 520 946Z" />
<glyph unicode="&#xd4;" glyph-name="Ocircumflex" horiz-adv-x="827" d="M527 722T612 679T744 555T791 360Q791 250 743 165T609 33T413 -14Q300 -14 215 29T83 153T36 348Q36 458 84 543T218 675T414 722Q527 722 612 679ZM361 704T324 660T266 535T246 352Q246
248 269 169T331 47T417 4Q466 4 503 48T561 173T581 356Q581 460 558 539T496 661T410 704Q361 704 324 660ZM457 908T515 862T638 784L633 769Q565 779 498 796T392 830Q359 813 303 796T191 769L186 784Q250 814 307 860T403 956H421Q457 908 515 862Z" />
<glyph unicode="&#xd5;" glyph-name="Otilde" horiz-adv-x="827" d="M527 722T612 679T744 555T791 360Q791 250 743 165T609 33T413 -14Q300 -14 215 29T83 153T36 348Q36 458 84 543T218 675T414 722Q527 722 612 679ZM361 704T324 660T266 535T246 352Q246
248 269 169T331 47T417 4Q466 4 503 48T561 173T581 356Q581 460 558 539T496 661T410 704Q361 704 324 660ZM357 938T384 929T442 902Q474 886 493 879T540 872Q597 872 637 925L651 918Q632 840 593 803T503 765Q465 765 439 774T378 801Q349 817 329 824T281
832Q225 832 184 778L170 785Q189 863 229 900T319 938Q357 938 384 929Z" />
<glyph unicode="&#xd6;" glyph-name="Odieresis" horiz-adv-x="827" d="M527 722T612 679T744 555T791 360Q791 250 743 165T609 33T413 -14Q300 -14 215 29T83 153T36 348Q36 458 84 543T218 675T414 722Q527 722 612 679ZM361 704T324 660T266 535T246 352Q246
248 269 169T331 47T417 4Q466 4 503 48T561 173T581 356Q581 460 558 539T496 661T410 704Q361 704 324 660ZM317 936T343 910T370 849Q370 813 344 788T283 762Q247 762 222 787T196 849Q196 884 221 910T283 936Q317 936 343 910ZM575 936T601 910T628 849Q628
813 602 788T541 762Q505 762 480 787T454 849Q454 884 479 910T541 936Q575 936 601 910Z" />
<glyph unicode="&#xd7;" glyph-name="multiply" horiz-adv-x="482" d="M242 377L415 550L437 528L264 356L437 183L415 161L242 334L68 160L46 182L220 355L45 530L67 552L242 377Z" />
<glyph unicode="&#xd8;" glyph-name="Oslash" horiz-adv-x="827" d="M706 626T748 547T791 360Q791 250 743 165T609 33T413 -14Q293 -14 205 34L120 -83L99 -69L183 47Q112 94 74 170T36 348Q36 458 84 543T218 675T414 722Q522 722 607 682L676 783L695 770L628
671Q706 626 748 547ZM361 704T324 660T266 535T246 352Q246 245 272 159L540 589Q517 644 483 674T410 704Q361 704 324 660ZM466 4T503 48T561 173T581 356Q581 475 551 562L282 129Q306 69 341 37T417 4Q466 4 503 48Z" />
<glyph unicode="&#xd9;" glyph-name="Ugrave" horiz-adv-x="693" d="M681 688Q650 681 635 667T615 622T610 532V291Q610 147 569 79Q542 34 490 10T354 -14Q233 -14 166 34Q117 69 101 128T84 288V602Q84 640 79 657T60 680T13 688V708Q70 705 189 705Q307 705
368 708V688Q332 686 316 680T293 657T287 602V194Q287 98 317 60T412 21Q507 21 547 88T587 280V512Q587 586 581 618T555 666T486 688V708Q527 705 598 705Q651 705 681 708V688ZM287 931T299 919T332 883Q376 828 428 784L421 772Q358 791 287 802Q258 807 241
811T208 823Q190 832 180 848T170 882Q170 896 176 908Q185 926 202 936T239 946Q254 946 270 939Q287 931 299 919Z" />
<glyph unicode="&#xda;" glyph-name="Uacute" horiz-adv-x="693" d="M681 688Q650 681 635 667T615 622T610 532V291Q610 147 569 79Q542 34 490 10T354 -14Q233 -14 166 34Q117 69 101 128T84 288V602Q84 640 79 657T60 680T13 688V708Q70 705 189 705Q307 705
368 708V688Q332 686 316 680T293 657T287 602V194Q287 98 317 60T412 21Q507 21 547 88T587 280V512Q587 586 581 618T555 666T486 688V708Q527 705 598 705Q651 705 681 708V688ZM454 946T469 946Q488 946 505 936T532 908Q538 896 538 882Q538 864 528 848T500
823Q484 815 467 811T421 802Q350 791 287 772L280 784Q332 828 376 883Q397 907 409 919T438 939Q454 946 469 946Z" />
<glyph unicode="&#xdb;" glyph-name="Ucircumflex" horiz-adv-x="693" d="M681 688Q650 681 635 667T615 622T610 532V291Q610 147 569 79Q542 34 490 10T354 -14Q233 -14 166 34Q117 69 101 128T84 288V602Q84 640 79 657T60 680T13 688V708Q70 705 189 705Q307
705 368 708V688Q332 686 316 680T293 657T287 602V194Q287 98 317 60T412 21Q507 21 547 88T587 280V512Q587 586 581 618T555 666T486 688V708Q527 705 598 705Q651 705 681 708V688ZM406 908T464 862T587 784L582 769Q514 779 447 796T341 830Q308 813 252 796T140
769L135 784Q199 814 256 860T352 956H370Q406 908 464 862Z" />
<glyph unicode="&#xdc;" glyph-name="Udieresis" horiz-adv-x="693" d="M681 688Q650 681 635 667T615 622T610 532V291Q610 147 569 79Q542 34 490 10T354 -14Q233 -14 166 34Q117 69 101 128T84 288V602Q84 640 79 657T60 680T13 688V708Q70 705 189 705Q307
705 368 708V688Q332 686 316 680T293 657T287 602V194Q287 98 317 60T412 21Q507 21 547 88T587 280V512Q587 586 581 618T555 666T486 688V708Q527 705 598 705Q651 705 681 708V688ZM266 936T292 910T319 849Q319 813 293 788T232 762Q196 762 171 787T145 849Q145
884 170 910T232 936Q266 936 292 910ZM524 936T550 910T577 849Q577 813 551 788T490 762Q454 762 429 787T403 849Q403 884 428 910T490 936Q524 936 550 910Z" />
<glyph unicode="&#xdd;" glyph-name="Yacute" horiz-adv-x="644" d="M606 706T636 709V689Q585 664 530 556L437 372V106Q437 68 442 51T462 28T508 20V0Q450 3 336 3Q217 3 163 0V20Q195 22 209 28T229 51T234 106V290L49 632Q33 661 18 674T-9 688V709Q53 703
129 703Q215 703 349 709V688Q309 688 289 684T269 665Q269 658 273 650L416 376L461 466Q508 560 508 615Q508 686 428 689V709Q503 706 559 706Q606 706 636 709ZM441 946T456 946Q475 946 492 936T519 908Q525 896 525 882Q525 864 515 848T487 823Q471 815
454 811T408 802Q337 791 274 772L267 784Q319 828 363 883Q384 907 396 919T425 939Q441 946 456 946Z" />
<glyph unicode="&#xde;" glyph-name="Thorn" horiz-adv-x="648" d="M302 152V106Q302 68 307 51T327 28T373 20V0Q315 3 206 3Q85 3 28 0V20Q60 22 74 28T94 51T99 106V602Q99 640 94 657T74 680T28 688V708Q85 705 206 705Q314 705 373 708V688Q341 686 327 680T307
657T302 602V573H334Q487 573 561 527T635 383Q635 280 562 216T312 152H302ZM302 554V172Q372 172 398 225T425 372Q425 464 399 509T309 554H302Z" />
<glyph unicode="&#xdf;" glyph-name="germandbls" horiz-adv-x="705" d="M428 782T481 762T561 708T588 631Q588 559 521 506T348 433Q516 414 602 347T689 183Q689 121 655 76T563 9T440 -14Q286 -14 286 100Q286 144 308 170T370 197Q406 197 428 174T450 115Q450
78 428 51T375 10Q387 4 404 4Q453 4 476 50T500 171Q500 256 473 307T412 380T331 420Q309 409 297 409Q289 409 283 413T277 425Q277 433 283 438T299 443Q315 443 331 436Q380 468 399 509T418 616Q418 767 335 767Q297 767 280 745T259 676T254 533V-11Q182
3 94 3Q72 3 18 0V21Q49 21 61 36T74 93V512Q74 644 145 713T355 782Q428 782 481 762Z" />
<glyph unicode="&#xe0;" glyph-name="agrave" horiz-adv-x="531" d="M87 -7T55 27T22 114Q22 159 45 188T101 234T184 267Q238 285 263 300T288 342V431Q288 463 272 488T217 513Q186 513 161 496Q195 484 211 461T228 408Q228 369 201 346T134 322Q95 322 73
346T50 409Q50 439 65 461T112 501Q168 533 272 533Q327 533 367 523T435 483Q455 462 461 431T468 343V75Q468 50 471 41T484 32Q491 32 499 36T514 47L524 30Q481 -7 401 -7Q341 -7 317 13T291 69Q244 -7 151 -7Q87 -7 55 27ZM272 73T288 90V301Q279 286 255
262Q228 236 214 212T200 145Q200 73 251 73Q272 73 288 90ZM161 836T185 836Q201 836 216 830T240 812Q252 798 259 782T275 736Q288 696 297 670T325 608L314 599Q283 625 259 642T202 679Q196 683 181 693T156 711T138 729Q121 749 121 774Q121 802 142 820Q161
836 185 836Z" />
<glyph unicode="&#xe1;" glyph-name="aacute" horiz-adv-x="531" d="M87 -7T55 27T22 114Q22 159 45 188T101 234T184 267Q238 285 263 300T288 342V431Q288 463 272 488T217 513Q186 513 161 496Q195 484 211 461T228 408Q228 369 201 346T134 322Q95 322 73
346T50 409Q50 439 65 461T112 501Q168 533 272 533Q327 533 367 523T435 483Q455 462 461 431T468 343V75Q468 50 471 41T484 32Q491 32 499 36T514 47L524 30Q481 -7 401 -7Q341 -7 317 13T291 69Q244 -7 151 -7Q87 -7 55 27ZM272 73T288 90V301Q279 286 255
262Q228 236 214 212T200 145Q200 73 251 73Q272 73 288 90ZM401 804T401 775Q401 749 384 729Q375 718 362 708T337 690T320 679Q288 659 264 642T208 599L197 608Q215 644 224 670T247 736Q256 766 263 782T282 812Q291 823 305 829T336 836Q361 836 380 820Q401
804 401 775Z" />
<glyph unicode="&#xe2;" glyph-name="acircumflex" horiz-adv-x="531" d="M87 -7T55 27T22 114Q22 159 45 188T101 234T184 267Q238 285 263 300T288 342V431Q288 463 272 488T217 513Q186 513 161 496Q195 484 211 461T228 408Q228 369 201 346T134 322Q95 322
73 346T50 409Q50 439 65 461T112 501Q168 533 272 533Q327 533 367 523T435 483Q455 462 461 431T468 343V75Q468 50 471 41T484 32Q491 32 499 36T514 47L524 30Q481 -7 401 -7Q341 -7 317 13T291 69Q244 -7 151 -7Q87 -7 55 27ZM272 73T288 90V301Q279 286 255
262Q228 236 214 212T200 145Q200 73 251 73Q272 73 288 90ZM310 771T359 714T465 620L457 606Q398 616 341 632T249 666Q220 649 174 633T81 606L73 620Q128 656 177 713T260 832H278Q310 771 359 714Z" />
<glyph unicode="&#xe3;" glyph-name="atilde" horiz-adv-x="531" d="M87 -7T55 27T22 114Q22 159 45 188T101 234T184 267Q238 285 263 300T288 342V431Q288 463 272 488T217 513Q186 513 161 496Q195 484 211 461T228 408Q228 369 201 346T134 322Q95 322 73
346T50 409Q50 439 65 461T112 501Q168 533 272 533Q327 533 367 523T435 483Q455 462 461 431T468 343V75Q468 50 471 41T484 32Q491 32 499 36T514 47L524 30Q481 -7 401 -7Q341 -7 317 13T291 69Q244 -7 151 -7Q87 -7 55 27ZM272 73T288 90V301Q279 286 255
262Q228 236 214 212T200 145Q200 73 251 73Q272 73 288 90ZM225 798T246 789T295 762Q320 747 336 740T375 732Q420 732 452 785L466 778Q450 695 416 655T338 615Q307 615 286 624T236 651Q213 667 196 674T156 682Q112 682 79 628L65 635Q81 718 115 758T194
798Q225 798 246 789Z" />
<glyph unicode="&#xe4;" glyph-name="adieresis" horiz-adv-x="531" d="M87 -7T55 27T22 114Q22 159 45 188T101 234T184 267Q238 285 263 300T288 342V431Q288 463 272 488T217 513Q186 513 161 496Q195 484 211 461T228 408Q228 369 201 346T134 322Q95 322
73 346T50 409Q50 439 65 461T112 501Q168 533 272 533Q327 533 367 523T435 483Q455 462 461 431T468 343V75Q468 50 471 41T484 32Q491 32 499 36T514 47L524 30Q481 -7 401 -7Q341 -7 317 13T291 69Q244 -7 151 -7Q87 -7 55 27ZM272 73T288 90V301Q279 286 255
262Q228 236 214 212T200 145Q200 73 251 73Q272 73 288 90ZM185 772T211 746T238 685Q238 649 212 624T151 598Q115 598 90 623T64 685Q64 720 89 746T151 772Q185 772 211 746ZM423 772T449 746T476 685Q476 649 450 624T389 598Q353 598 328 623T302 685Q302
720 327 746T389 772Q423 772 449 746Z" />
<glyph unicode="&#xe5;" glyph-name="aring" horiz-adv-x="531" d="M87 -7T55 27T22 114Q22 159 45 188T101 234T184 267Q238 285 263 300T288 342V431Q288 463 272 488T217 513Q186 513 161 496Q195 484 211 461T228 408Q228 369 201 346T134 322Q95 322 73 346T50
409Q50 439 65 461T112 501Q168 533 272 533Q327 533 367 523T435 483Q455 462 461 431T468 343V75Q468 50 471 41T484 32Q491 32 499 36T514 47L524 30Q481 -7 401 -7Q341 -7 317 13T291 69Q244 -7 151 -7Q87 -7 55 27ZM272 73T288 90V301Q279 286 255 262Q228
236 214 212T200 145Q200 73 251 73Q272 73 288 90ZM317 801T351 773T386 700Q386 654 352 626T269 598Q221 598 187 626T153 700Q153 745 187 773T269 801Q317 801 351 773ZM235 780T208 758T181 699Q181 661 207 640T269 619Q304 619 331 640T358 699Q358 736
331 758T269 780Q235 780 208 758Z" />
<glyph unicode="&#xe6;" glyph-name="ae" horiz-adv-x="738" d="M645 95T689 162L706 156Q685 86 635 36T507 -14Q442 -14 393 13T316 100Q282 43 242 18T151 -7Q87 -7 55 27T22 114Q22 159 45 188T101 234T184 267Q238 285 263 300T288 342V431Q288 463 272 488T217
513Q186 513 161 496Q195 484 211 461T228 408Q228 369 201 346T134 322Q95 322 73 346T50 409Q50 439 65 461T112 501Q168 533 272 533Q362 533 410 504Q465 533 533 533Q620 533 666 480T712 309H474Q473 297 473 273Q473 177 503 136T578 95Q645 95 689 162ZM502
510T488 467T470 328H566Q567 408 557 459T526 510Q502 510 488 467ZM265 73T279 83T307 119Q286 180 286 259Q286 273 288 299Q273 280 257 265Q228 236 214 212T200 145Q200 107 213 90T248 73Q265 73 279 83Z" />
<glyph unicode="&#xe7;" glyph-name="ccedilla" horiz-adv-x="503" d="M328 533T362 525T419 503Q447 487 463 460T479 399Q479 357 452 330T383 302Q340 302 316 326T291 392Q291 428 314 455T373 492Q358 504 333 504Q269 504 243 436T217 273Q217 177 253 136T342
95Q415 95 463 162L480 156Q458 86 406 36T271 -14Q162 -14 96 51T30 259Q30 396 100 464T287 533Q328 533 362 525ZM243 -60Q279 -45 322 -45Q358 -45 377 -61T396 -103Q396 -145 353 -166T238 -188Q184 -188 148 -175L154 -157Q176 -162 202 -162Q227 -162 245
-153T264 -124Q264 -99 236 -99Q216 -99 203 -106L233 0H260L243 -60Z" />
<glyph unicode="&#xe8;" glyph-name="egrave" horiz-adv-x="503" d="M406 95T454 162L471 156Q449 86 397 36T262 -14Q157 -14 94 51T31 259Q31 396 101 464T288 533Q477 533 477 309H219Q218 297 218 273Q218 177 251 136T333 95Q406 95 454 162ZM225 510T215
328H331Q332 408 320 459T281 510Q225 510 215 328ZM171 836T195 836Q211 836 226 830T250 812Q262 798 269 782T285 736Q298 696 307 670T335 608L324 599Q293 625 269 642T212 679Q206 683 191 693T166 711T148 729Q131 749 131 774Q131 802 152 820Q171 836
195 836Z" />
<glyph unicode="&#xe9;" glyph-name="eacute" horiz-adv-x="503" d="M406 95T454 162L471 156Q449 86 397 36T262 -14Q157 -14 94 51T31 259Q31 396 101 464T288 533Q477 533 477 309H219Q218 297 218 273Q218 177 251 136T333 95Q406 95 454 162ZM225 510T215
328H331Q332 408 320 459T281 510Q225 510 215 328ZM411 804T411 775Q411 749 394 729Q385 718 372 708T347 690T330 679Q298 659 274 642T218 599L207 608Q225 644 234 670T257 736Q266 766 273 782T292 812Q301 823 315 829T346 836Q371 836 390 820Q411 804
411 775Z" />
<glyph unicode="&#xea;" glyph-name="ecircumflex" horiz-adv-x="503" d="M406 95T454 162L471 156Q449 86 397 36T262 -14Q157 -14 94 51T31 259Q31 396 101 464T288 533Q477 533 477 309H219Q218 297 218 273Q218 177 251 136T333 95Q406 95 454 162ZM225 510T215
328H331Q332 408 320 459T281 510Q225 510 215 328ZM320 771T369 714T475 620L467 606Q408 616 351 632T259 666Q230 649 184 633T91 606L83 620Q138 656 187 713T270 832H288Q320 771 369 714Z" />
<glyph unicode="&#xeb;" glyph-name="edieresis" horiz-adv-x="503" d="M406 95T454 162L471 156Q449 86 397 36T262 -14Q157 -14 94 51T31 259Q31 396 101 464T288 533Q477 533 477 309H219Q218 297 218 273Q218 177 251 136T333 95Q406 95 454 162ZM225 510T215
328H331Q332 408 320 459T281 510Q225 510 215 328ZM195 772T221 746T248 685Q248 649 222 624T161 598Q125 598 100 623T74 685Q74 720 99 746T161 772Q195 772 221 746ZM433 772T459 746T486 685Q486 649 460 624T399 598Q363 598 338 623T312 685Q312 720 337
746T399 772Q433 772 459 746Z" />
<glyph unicode="&#xec;" glyph-name="igrave" horiz-adv-x="330" d="M257 93Q257 52 269 37T313 21V0Q205 4 171 4Q137 4 21 0V21Q52 21 64 36T77 93V410Q77 456 65 477T21 498V519Q53 516 83 516Q187 516 257 530V93ZM60 836T84 836Q100 836 115 830T139 812Q151
798 158 782T174 736Q187 696 196 670T224 608L213 599Q182 625 158 642T101 679Q95 683 80 693T55 711T37 729Q20 749 20 774Q20 802 41 820Q60 836 84 836Z" />
<glyph unicode="&#xed;" glyph-name="iacute" horiz-adv-x="330" d="M257 93Q257 52 269 37T313 21V0Q205 4 171 4Q137 4 21 0V21Q52 21 64 36T77 93V410Q77 456 65 477T21 498V519Q53 516 83 516Q187 516 257 530V93ZM300 804T300 775Q300 749 283 729Q274 718
261 708T236 690T219 679Q187 659 163 642T107 599L96 608Q114 644 123 670T146 736Q155 766 162 782T181 812Q190 823 204 829T235 836Q260 836 279 820Q300 804 300 775Z" />
<glyph unicode="&#xee;" glyph-name="icircumflex" horiz-adv-x="330" d="M257 93Q257 52 269 37T313 21V0Q205 4 171 4Q137 4 21 0V21Q52 21 64 36T77 93V410Q77 456 65 477T21 498V519Q53 516 83 516Q187 516 257 530V93ZM209 771T258 714T364 620L356 606Q297
616 240 632T148 666Q119 649 73 633T-20 606L-28 620Q27 656 76 713T159 832H177Q209 771 258 714Z" />
<glyph unicode="&#xef;" glyph-name="idieresis" horiz-adv-x="330" d="M257 93Q257 52 269 37T313 21V0Q205 4 171 4Q137 4 21 0V21Q52 21 64 36T77 93V410Q77 456 65 477T21 498V519Q53 516 83 516Q187 516 257 530V93ZM84 772T110 746T137 685Q137 649 111
624T50 598Q14 598 -11 623T-37 685Q-37 720 -12 746T50 772Q84 772 110 746ZM322 772T348 746T375 685Q375 649 349 624T288 598Q252 598 227 623T201 685Q201 720 226 746T288 772Q322 772 348 746Z" />
<glyph unicode="&#xf0;" glyph-name="eth" horiz-adv-x="575" d="M431 620T487 523T543 306Q543 144 476 64T289 -16Q167 -16 100 45T32 247Q32 398 97 465T265 533Q306 533 336 520Q313 600 269 656L120 584L111 602L255 672Q206 728 128 765L136 782Q234 751
314 701L458 771L467 753L333 688Q431 620 487 523ZM359 4T359 298Q359 424 340 503Q323 508 311 508Q264 508 242 447T219 260Q219 131 238 68T289 4Q359 4 359 298Z" />
<glyph unicode="&#xf1;" glyph-name="ntilde" horiz-adv-x="625" d="M496 533T529 493Q544 475 551 445T558 364V93Q558 52 570 37T614 21V0Q506 4 474 4Q440 4 332 0V21Q358 21 368 36T378 93V418Q378 450 367 465T329 481Q300 481 279 461T257 409V93Q257 52
267 37T303 21V0Q203 4 171 4Q137 4 21 0V21Q52 21 64 36T77 93V410Q77 456 65 477T21 498V519Q53 516 83 516Q187 516 257 530V458Q302 533 416 533Q496 533 529 493ZM274 798T295 789T344 762Q369 747 385 740T424 732Q469 732 501 785L515 778Q499 695 465 655T387
615Q356 615 335 624T285 651Q262 667 245 674T205 682Q161 682 128 628L114 635Q130 718 164 758T243 798Q274 798 295 789Z" />
<glyph unicode="&#xf2;" glyph-name="ograve" horiz-adv-x="576" d="M411 533T478 469T545 259Q545 114 478 50T288 -14Q165 -14 98 50T31 259Q31 404 98 468T288 533Q411 533 478 469ZM256 513T237 450T218 259Q218 131 237 69T288 6Q320 6 339 68T358 259Q358
387 339 450T288 513Q256 513 237 450ZM180 836T204 836Q220 836 235 830T259 812Q271 798 278 782T294 736Q307 696 316 670T344 608L333 599Q302 625 278 642T221 679Q215 683 200 693T175 711T157 729Q140 749 140 774Q140 802 161 820Q180 836 204 836Z" />
<glyph unicode="&#xf3;" glyph-name="oacute" horiz-adv-x="576" d="M411 533T478 469T545 259Q545 114 478 50T288 -14Q165 -14 98 50T31 259Q31 404 98 468T288 533Q411 533 478 469ZM256 513T237 450T218 259Q218 131 237 69T288 6Q320 6 339 68T358 259Q358
387 339 450T288 513Q256 513 237 450ZM420 804T420 775Q420 749 403 729Q394 718 381 708T356 690T339 679Q307 659 283 642T227 599L216 608Q234 644 243 670T266 736Q275 766 282 782T301 812Q310 823 324 829T355 836Q380 836 399 820Q420 804 420 775Z" />
<glyph unicode="&#xf4;" glyph-name="ocircumflex" horiz-adv-x="576" d="M411 533T478 469T545 259Q545 114 478 50T288 -14Q165 -14 98 50T31 259Q31 404 98 468T288 533Q411 533 478 469ZM256 513T237 450T218 259Q218 131 237 69T288 6Q320 6 339 68T358 259Q358
387 339 450T288 513Q256 513 237 450ZM329 771T378 714T484 620L476 606Q417 616 360 632T268 666Q239 649 193 633T100 606L92 620Q147 656 196 713T279 832H297Q329 771 378 714Z" />
<glyph unicode="&#xf5;" glyph-name="otilde" horiz-adv-x="576" d="M411 533T478 469T545 259Q545 114 478 50T288 -14Q165 -14 98 50T31 259Q31 404 98 468T288 533Q411 533 478 469ZM256 513T237 450T218 259Q218 131 237 69T288 6Q320 6 339 68T358 259Q358
387 339 450T288 513Q256 513 237 450ZM244 798T265 789T314 762Q339 747 355 740T394 732Q439 732 471 785L485 778Q469 695 435 655T357 615Q326 615 305 624T255 651Q232 667 215 674T175 682Q131 682 98 628L84 635Q100 718 134 758T213 798Q244 798 265 789Z"
/>
<glyph unicode="&#xf6;" glyph-name="odieresis" horiz-adv-x="576" d="M411 533T478 469T545 259Q545 114 478 50T288 -14Q165 -14 98 50T31 259Q31 404 98 468T288 533Q411 533 478 469ZM256 513T237 450T218 259Q218 131 237 69T288 6Q320 6 339 68T358 259Q358
387 339 450T288 513Q256 513 237 450ZM204 772T230 746T257 685Q257 649 231 624T170 598Q134 598 109 623T83 685Q83 720 108 746T170 772Q204 772 230 746ZM442 772T468 746T495 685Q495 649 469 624T408 598Q372 598 347 623T321 685Q321 720 346 746T408 772Q442
772 468 746Z" />
<glyph unicode="&#xf7;" glyph-name="divide" horiz-adv-x="623" d="M336 554T352 538T369 499Q369 476 353 460T313 444Q290 444 274 460T258 499Q258 522 274 538T313 554Q336 554 352 538ZM565 340H64V370H565V340ZM336 266T352 250T369 211Q369 188 353 172T313
155Q290 155 274 171T258 211Q258 234 274 250T313 266Q336 266 352 250Z" />
<glyph unicode="&#xf8;" glyph-name="oslash" horiz-adv-x="576" d="M545 421T545 259Q545 114 478 50T288 -14Q198 -14 140 18L76 -73L57 -60L120 31Q31 96 31 259Q31 404 98 468T288 533Q379 533 436 500L500 592L519 579L456 488Q545 421 545 259ZM256 513T237
450T218 259Q218 206 221 165L350 395Q342 455 326 484T288 513Q256 513 237 450ZM320 6T339 68T358 259Q358 318 354 355L226 124Q234 64 250 35T288 6Q320 6 339 68Z" />
<glyph unicode="&#xf9;" glyph-name="ugrave" horiz-adv-x="622" d="M548 109Q548 63 560 42T604 21V0Q573 3 542 3Q438 3 368 -11V61Q323 -14 209 -14Q129 -14 96 26Q81 44 74 74T67 155V410Q67 456 55 477T11 498V519Q42 516 73 516Q177 516 247 530V101Q247
69 258 54T296 38Q325 38 346 58T368 110V410Q368 456 356 477T312 498V519Q343 516 374 516Q478 516 548 530V109ZM187 836T211 836Q227 836 242 830T266 812Q278 798 285 782T301 736Q314 696 323 670T351 608L340 599Q309 625 285 642T228 679Q222 683 207 693T182
711T164 729Q147 749 147 774Q147 802 168 820Q187 836 211 836Z" />
<glyph unicode="&#xfa;" glyph-name="uacute" horiz-adv-x="622" d="M548 109Q548 63 560 42T604 21V0Q573 3 542 3Q438 3 368 -11V61Q323 -14 209 -14Q129 -14 96 26Q81 44 74 74T67 155V410Q67 456 55 477T11 498V519Q42 516 73 516Q177 516 247 530V101Q247
69 258 54T296 38Q325 38 346 58T368 110V410Q368 456 356 477T312 498V519Q343 516 374 516Q478 516 548 530V109ZM427 804T427 775Q427 749 410 729Q401 718 388 708T363 690T346 679Q314 659 290 642T234 599L223 608Q241 644 250 670T273 736Q282 766 289 782T308
812Q317 823 331 829T362 836Q387 836 406 820Q427 804 427 775Z" />
<glyph unicode="&#xfb;" glyph-name="ucircumflex" horiz-adv-x="622" d="M548 109Q548 63 560 42T604 21V0Q573 3 542 3Q438 3 368 -11V61Q323 -14 209 -14Q129 -14 96 26Q81 44 74 74T67 155V410Q67 456 55 477T11 498V519Q42 516 73 516Q177 516 247 530V101Q247
69 258 54T296 38Q325 38 346 58T368 110V410Q368 456 356 477T312 498V519Q343 516 374 516Q478 516 548 530V109ZM336 771T385 714T491 620L483 606Q424 616 367 632T275 666Q246 649 200 633T107 606L99 620Q154 656 203 713T286 832H304Q336 771 385 714Z"
/>
<glyph unicode="&#xfc;" glyph-name="udieresis" horiz-adv-x="622" d="M548 109Q548 63 560 42T604 21V0Q573 3 542 3Q438 3 368 -11V61Q323 -14 209 -14Q129 -14 96 26Q81 44 74 74T67 155V410Q67 456 55 477T11 498V519Q42 516 73 516Q177 516 247 530V101Q247
69 258 54T296 38Q325 38 346 58T368 110V410Q368 456 356 477T312 498V519Q343 516 374 516Q478 516 548 530V109ZM211 772T237 746T264 685Q264 649 238 624T177 598Q141 598 116 623T90 685Q90 720 115 746T177 772Q211 772 237 746ZM449 772T475 746T502 685Q502
649 476 624T415 598Q379 598 354 623T328 685Q328 720 353 746T415 772Q449 772 475 746Z" />
<glyph unicode="&#xfd;" glyph-name="yacute" horiz-adv-x="529" d="M505 515T525 519V498Q504 491 487 469T454 401L329 29L287 -92Q269 -144 243 -164Q212 -188 150 -188Q100 -188 57 -165T14 -94Q14 -59 41 -38T112 -17Q154 -17 178 -36T202 -91Q202 -115 186
-136T137 -168Q147 -170 171 -170Q240 -170 266 -90L271 -73L38 442Q23 476 9 487T-20 498V519Q60 513 143 513Q208 513 288 519V498Q259 498 244 494T228 476Q228 468 232 460L355 167L397 295Q416 353 416 397Q416 444 396 470T343 498V519Q380 515 448 515Q505
515 525 519ZM392 804T392 775Q392 749 375 729Q366 718 353 708T328 690T311 679Q279 659 255 642T199 599L188 608Q206 644 215 670T238 736Q247 766 254 782T273 812Q282 823 296 829T327 836Q352 836 371 820Q392 804 392 775Z" />
<glyph unicode="&#xfe;" glyph-name="thorn" horiz-adv-x="601" d="M473 533T521 469T569 282Q569 123 505 55T336 -14Q278 -14 243 5V-78Q243 -124 264 -142T329 -160V-181L300 -180Q180 -177 145 -177Q115 -177 7 -181V-160Q38 -160 50 -145T63 -88V662Q63 708
51 729T7 750V771Q38 768 69 768Q173 768 243 782V458Q289 533 395 533Q473 533 521 469ZM333 16T357 75T382 259Q382 382 364 431T315 481Q286 481 265 461T243 409V24Q256 16 278 16Q333 16 357 75Z" />
<glyph unicode="&#xff;" glyph-name="ydieresis" horiz-adv-x="529" d="M505 515T525 519V498Q504 491 487 469T454 401L329 29L287 -92Q269 -144 243 -164Q212 -188 150 -188Q100 -188 57 -165T14 -94Q14 -59 41 -38T112 -17Q154 -17 178 -36T202 -91Q202 -115
186 -136T137 -168Q147 -170 171 -170Q240 -170 266 -90L271 -73L38 442Q23 476 9 487T-20 498V519Q60 513 143 513Q208 513 288 519V498Q259 498 244 494T228 476Q228 468 232 460L355 167L397 295Q416 353 416 397Q416 444 396 470T343 498V519Q380 515 448 515Q505
515 525 519ZM176 772T202 746T229 685Q229 649 203 624T142 598Q106 598 81 623T55 685Q55 720 80 746T142 772Q176 772 202 746ZM414 772T440 746T467 685Q467 649 441 624T380 598Q344 598 319 623T293 685Q293 720 318 746T380 772Q414 772 440 746Z" />
<glyph unicode="&#x2013;" glyph-name="endash" horiz-adv-x="623" d="M569 202H54V341H569V202Z" />
<glyph unicode="&#x2014;" glyph-name="emdash" horiz-adv-x="917" d="M863 202H54V341H863V202Z" />
<glyph unicode="&#x2018;" glyph-name="quoteleft" horiz-adv-x="265" d="M87 435T62 472Q51 487 44 512T37 567Q37 619 64 663T143 731L152 713Q126 701 106 679T77 631Q72 617 72 598Q72 583 74 576Q100 607 147 607Q187 607 211 585T235 521Q235 482 209 459T141
435Q87 435 62 472Z" />
<glyph unicode="&#x2019;" glyph-name="quoteright" horiz-adv-x="258" d="M174 722T199 685Q210 670 217 645T224 590Q224 538 197 494T118 426L109 444Q135 456 155 478T184 526Q189 540 189 559Q189 574 187 581Q161 550 114 550Q74 550 50 572T26 636Q26 675
52 698T120 722Q174 722 199 685Z" />
<glyph unicode="&#x201a;" glyph-name="quotesinglbase" horiz-adv-x="278" d="M189 158T214 121Q225 106 232 81T239 26Q239 -26 212 -70T133 -138L124 -120Q150 -108 170 -86T199 -38Q204 -24 204 -5Q204 10 202 17Q176 -14 129 -14Q89 -14 65 8T41 72Q41 111
67 134T135 158Q189 158 214 121Z" />
<glyph unicode="&#x201c;" glyph-name="quotedblleft" horiz-adv-x="495" d="M317 434T292 471Q281 486 274 511T267 566Q267 618 294 662T373 730L382 712Q356 700 336 678T307 630Q302 616 302 597Q302 582 304 575Q330 606 377 606Q417 606 441 584T465 520Q465
481 439 458T371 434Q317 434 292 471ZM87 434T62 471Q51 486 44 511T37 566Q37 618 64 662T143 730L152 712Q126 700 106 678T77 630Q72 616 72 597Q72 582 74 575Q100 606 147 606Q187 606 211 584T235 520Q235 481 209 458T141 434Q87 434 62 471Z" />
<glyph unicode="&#x201d;" glyph-name="quotedblright" horiz-adv-x="488" d="M174 722T199 685Q210 670 217 645T224 590Q224 538 197 494T118 426L109 444Q135 456 155 478T184 526Q189 540 189 559Q189 574 187 581Q161 550 114 550Q74 550 50 572T26 636Q26
675 52 698T120 722Q174 722 199 685ZM404 722T429 685Q440 670 447 645T454 590Q454 538 427 494T348 426L339 444Q365 456 385 478T414 526Q419 540 419 559Q419 574 417 581Q391 550 344 550Q304 550 280 572T256 636Q256 675 282 698T350 722Q404 722 429 685Z"
/>
<glyph unicode="&#x201e;" glyph-name="quotedblbase" horiz-adv-x="508" d="M189 158T214 121Q225 106 232 81T239 26Q239 -26 212 -70T133 -138L124 -120Q150 -108 170 -86T199 -38Q204 -24 204 -5Q204 10 202 17Q176 -14 129 -14Q89 -14 65 8T41 72Q41 111
67 134T135 158Q189 158 214 121ZM419 158T444 121Q455 106 462 81T469 26Q469 -26 442 -70T363 -138L354 -120Q380 -108 400 -86T429 -38Q434 -24 434 -5Q434 10 432 17Q406 -14 359 -14Q319 -14 295 8T271 72Q271 111 297 134T365 158Q419 158 444 121Z" />
<glyph unicode="&#x2022;" glyph-name="bullet" horiz-adv-x="515" d="M308 455T350 430T418 363T443 269Q443 218 418 176T351 109T257 84Q206 84 164 108T97 175T72 269Q72 320 96 362T163 430T257 455Q308 455 350 430Z" />
<glyph unicode="&#x2039;" glyph-name="guilsinglleft" horiz-adv-x="385" d="M342 531Q327 466 290 382T221 259Q253 220 290 136T342 -12L328 -16Q248 67 176 131T22 249V269Q102 323 174 387T328 535L342 531Z" />
<glyph unicode="&#x203a;" glyph-name="guilsinglright" horiz-adv-x="386" d="M139 451T211 387T364 269V249Q283 195 211 131T58 -16L44 -12Q59 52 96 136T165 259Q133 298 96 382T44 531L58 535Q139 451 211 387Z" />
</font>
</defs>
</svg>
