<?xml version="1.0" standalone="no"?>
<!DOCTYPE svg PUBLIC "-//W3C//DTD SVG 1.1//EN" "http://www.w3.org/Graphics/SVG/1.1/DTD/svg11.dtd">
<svg xmlns="http://www.w3.org/2000/svg">
<defs >
<font id="PlayfairDisplay" horiz-adv-x="603" ><font-face
    font-family="Playfair Display"
    units-per-em="1000"
    panose-1="0 0 8 0 0 0 0 0 0 0"
    ascent="1082"
    descent="-251"
    alphabetic="0" />
<glyph unicode=" " glyph-name="space" horiz-adv-x="233" />
<glyph unicode="!" glyph-name="exclam" horiz-adv-x="288" d="M178 782T202 756T226 684Q226 650 220 612T197 494Q177 403 166 336T153 196H135Q133 268 122 335T91 494Q75 573 69 611T62 684Q62 729 85 755T144 782Q178 782 202 756ZM183 140T206 120T229 63Q229
27 206 7T144 -14Q105 -14 82 6T59 63Q59 99 82 119T144 140Q183 140 206 120Z" />
<glyph unicode="&quot;" glyph-name="quotedbl" horiz-adv-x="369" d="M132 730T150 712T168 664Q168 640 163 619T144 564Q125 517 112 468H98Q88 503 68 557Q54 593 48 615T42 663Q42 693 60 711T105 730Q132 730 150 712ZM293 730T311 712T329 664Q329 640
324 619T305 564Q286 517 273 468H259Q249 503 229 557Q215 593 209 615T203 663Q203 693 221 711T266 730Q293 730 311 712Z" />
<glyph unicode="#" glyph-name="numbersign" horiz-adv-x="620" d="M430 434L398 267H545L541 247H394L366 101H346L374 247H207L179 101H159L187 247H40L44 267H191L223 434H77L80 454H227L256 602H276L247 454H414L443 602H463L434 454H581L578 434H430ZM410
434H243L211 267H378L410 434Z" />
<glyph unicode="$" glyph-name="dollar" horiz-adv-x="574" d="M538 101T487 53T353 -9V-132H333V-12Q305 -14 290 -14Q267 -14 256 -13V-132H236V-10Q204 -5 184 2T137 22Q107 37 95 37Q86 37 81 27T73 -7H50Q54 56 54 263H77Q86 143 123 84T236 12V306L233 308Q175
345 138 375T78 445T55 538Q55 616 106 662T236 718V840H256V720Q264 721 279 721Q312 721 333 717V840H353V713Q388 705 425 682Q436 676 444 672T459 668Q468 668 473 678T481 712H504Q499 645 499 484H476Q465 567 437 620T353 691V416Q367 408 369 406Q426
370 461 340T517 271T538 181Q538 101 487 53ZM272 699T256 695V483Q281 464 333 429V696Q315 699 295 699Q272 699 256 695ZM175 575T188 552T236 499V690Q206 679 191 657T175 605Q175 575 188 552ZM314 8T333 12V237Q299 263 256 292V9Q266 8 286 8Q314 8 333
12ZM421 39T421 111Q421 141 407 165T353 221V17Q421 39 421 111Z" />
<glyph unicode="%" glyph-name="percent" horiz-adv-x="728" d="M671 811L86 -55L67 -42L652 824L671 811ZM269 761T313 718T358 598Q358 548 337 510T279 451T196 430Q123 430 78 473T33 593Q33 642 54 680T112 740T196 761Q269 761 313 718ZM129 743T129 594Q129
522 147 485T198 448Q262 448 262 596Q262 669 245 706T194 743Q129 743 129 594ZM605 317T649 274T694 154Q694 104 673 66T615 7T532 -14Q459 -14 414 29T369 149Q369 198 390 236T448 296T532 317Q605 317 649 274ZM465 299T465 150Q465 78 483 41T534 4Q598
4 598 152Q598 225 581 262T530 299Q465 299 465 150Z" />
<glyph unicode="&amp;" glyph-name="ampersand" horiz-adv-x="898" d="M882 507T831 466T679 403L661 397Q706 377 730 333T754 231Q754 161 711 106T590 18T409 -14Q299 -14 216 16T87 102T41 235Q41 303 77 349T158 420T244 454Q131 499 131 580Q131 641 190
675T330 710Q367 710 391 705T434 689Q461 676 478 656T495 608Q495 579 473 561T418 542Q386 542 366 558T345 604Q345 629 363 649T409 675Q400 683 382 688T343 693Q288 693 253 659T218 562Q218 504 257 460Q294 468 313 468Q331 468 340 461T350 441Q350 431
342 426T322 420Q307 420 293 427T258 446Q207 420 180 382T152 284Q152 187 229 139T444 90Q513 90 576 110T679 170T719 264Q719 356 643 391L579 373Q523 357 523 357Q439 338 400 317T361 260Q361 224 394 202T469 179Q480 179 492 182T509 189Q485 197 472
214T459 255Q459 286 481 303T539 321Q575 321 595 303T616 253Q616 208 576 185T474 162Q410 162 368 195T325 290Q325 365 382 409T549 474L592 485Q657 500 698 514Q775 533 812 555T849 613Q849 652 815 678T736 704Q717 704 707 699Q730 690 743 673T756 636Q756
606 734 589T676 572Q641 572 620 589T598 638Q598 677 632 699T723 722Q795 722 838 685T882 581Q882 507 831 466Z" />
<glyph unicode="&apos;" glyph-name="quotesingle" horiz-adv-x="209" d="M132 730T150 712T168 664Q168 640 163 619T144 564Q125 517 112 468H98Q88 503 68 557Q54 593 48 615T42 663Q42 693 60 711T105 730Q132 730 150 712Z" />
<glyph unicode="(" glyph-name="parenleft" horiz-adv-x="318" d="M162 716T99 594T35 312Q35 152 98 30T285 -182L300 -170Q233 -64 203 50T173 312Q173 458 203 574T300 794L285 806Q162 716 99 594Z" />
<glyph unicode=")" glyph-name="parenright" horiz-adv-x="318" d="M156 716T219 594T283 312Q283 152 220 30T33 -182L18 -170Q85 -64 115 50T145 312Q145 458 115 574T18 794L33 806Q156 716 219 594Z" />
<glyph unicode="*" glyph-name="asterisk" horiz-adv-x="481" d="M431 466T431 439Q431 426 423 413Q411 388 385 388Q370 388 353 398Q338 406 325 420T286 464Q253 502 245 511Q253 487 263 462Q278 420 284 400T290 361Q290 333 276 320T241 307Q221 307 207
320T193 361Q193 379 199 400T219 459L238 512Q221 494 197 464Q179 443 162 425T130 397Q115 388 98 388Q73 388 58 412Q51 426 51 437Q51 463 81 481Q96 490 115 494T174 506Q219 513 235 517Q215 521 174 528Q137 534 116 539T80 554Q51 572 51 598Q51 611 58
623Q72 648 97 648Q112 648 129 638Q145 628 161 612T201 566Q213 551 237 523L217 580Q204 618 198 638T192 675Q192 703 206 716T241 729Q261 729 275 716T289 675Q289 658 284 639T265 586Q261 575 256 561T244 525L287 574Q311 603 324 617T352 639Q367 648
384 648Q397 648 407 641T423 624Q431 611 431 598Q431 571 401 555Q386 546 367 542T307 530Q260 522 248 519Q264 515 307 508Q350 500 368 496T401 482Q431 466 431 439Z" />
<glyph unicode="+" glyph-name="plus" horiz-adv-x="574" d="M305 370H537V340H305V105H269V340H36V370H269V606H305V370Z" />
<glyph unicode="," glyph-name="comma" horiz-adv-x="271" d="M180 140T202 105Q212 90 218 68T224 22Q224 -30 198 -72T119 -138L110 -120Q139 -108 160 -83T186 -32Q189 -20 189 -9Q189 1 186 10Q164 -14 128 -14Q93 -14 71 6T49 63Q49 97 72 118T131 140Q180
140 202 105Z" />
<glyph unicode="-" glyph-name="hyphen" horiz-adv-x="481" d="M421 229H60V312H421V229Z" />
<glyph unicode="." glyph-name="period" horiz-adv-x="270" d="M174 140T197 120T220 63Q220 27 197 7T135 -14Q96 -14 73 6T50 63Q50 99 73 119T135 140Q174 140 197 120Z" />
<glyph unicode="/" glyph-name="slash" horiz-adv-x="368" d="M65 -14H32L304 722H337L65 -14Z" />
<glyph unicode="0" glyph-name="zero" horiz-adv-x="645" d="M407 531T469 498T565 405T600 267Q600 187 565 123T465 23T317 -14Q239 -14 177 19T80 112T45 251Q45 330 80 394T180 494T328 531Q407 531 469 498ZM283 513T255 482T212 393T196 254Q196 127 232
66T326 4Q362 4 389 35T433 125T449 264Q449 391 413 452T319 513Q283 513 255 482Z" />
<glyph unicode="1" glyph-name="one" horiz-adv-x="383" d="M282 97Q282 54 298 38T354 21V0Q246 4 216 4Q183 4 72 1L44 0V21Q91 21 114 39T138 103V347Q138 395 130 417T101 447T40 455V477Q127 479 183 490T282 528V97Z" />
<glyph unicode="2" glyph-name="two" horiz-adv-x="523" d="M352 531T397 498T442 404Q442 363 419 328T363 266T275 199Q203 149 174 119H390Q417 119 430 123T449 136T457 164H478Q478 46 482 -5Q460 0 333 0H42V19Q55 33 93 67Q151 120 189 161T256 257T285
371Q285 424 262 448T192 473Q150 473 118 454T58 396L41 406Q115 531 275 531Q352 531 397 498Z" />
<glyph unicode="3" glyph-name="three" horiz-adv-x="488" d="M321 531T369 500T417 416Q417 359 362 314T214 251Q319 255 386 215T453 99Q453 26 390 -31T229 -120T29 -151V-131Q95 -129 158 -102T263 -23T304 98Q304 157 276 195T199 237Q185 230 172 226T148
221Q129 221 129 235Q129 246 138 251T161 257Q167 257 177 256T196 253Q273 307 273 387Q273 432 250 453T184 475Q144 475 111 455T54 397L36 406Q67 463 116 497T246 531Q321 531 369 500Z" />
<glyph unicode="4" glyph-name="four" horiz-adv-x="528" d="M485 34T397 36V-141H281V36H8V57L381 531H397V139H405Q432 139 445 143T464 156T472 184H493Q493 78 497 31Q485 34 397 36ZM281 139V372L100 139H281Z" />
<glyph unicode="5" glyph-name="five" horiz-adv-x="459" d="M385 438T389 387Q368 392 250 392H96L80 221Q138 261 231 261Q327 261 376 217T426 103Q426 29 368 -28T219 -117T30 -148V-130Q93 -129 150 -103T242 -25T277 97Q277 160 248 193T162 227Q135 227
114 220T72 198L58 207L90 520Q110 516 144 516H309Q338 516 349 524T364 555H385Q385 438 389 387Z" />
<glyph unicode="6" glyph-name="six" horiz-adv-x="561" d="M389 440T433 414T504 339T531 224Q531 150 498 96T407 14T282 -14Q172 -14 110 61T47 271Q47 410 109 507T263 656T446 723L450 703Q386 683 338 651T253 552T204 374Q225 408 259 424T335 440Q389
440 433 414ZM330 6T355 57T380 215Q380 317 357 364T295 411Q269 411 242 392T200 335Q198 291 198 265Q198 128 225 67T292 6Q330 6 355 57Z" />
<glyph unicode="7" glyph-name="seven" horiz-adv-x="455" d="M454 495Q442 467 405 399Q365 327 340 273T297 150T278 6L280 -28Q283 -54 283 -75Q283 -106 264 -127T210 -148Q174 -148 156 -124T137 -60Q137 2 164 66T228 186T326 321Q338 338 352 356T381 395H115Q88
395 75 391T56 378T48 350H27Q27 470 23 521Q45 516 172 516H454V495Z" />
<glyph unicode="8" glyph-name="eight" horiz-adv-x="561" d="M409 367T440 337T496 265T520 175Q520 120 489 77T401 10T275 -14Q212 -14 159 5T75 64T43 157Q43 222 87 270T206 351Q144 404 110 451T76 559Q76 611 105 648T182 703T288 722Q374 722 429 684T484
582Q484 533 450 495T347 420Q409 367 440 337ZM247 704T228 682T208 621Q208 571 239 528T331 433Q350 460 359 498T368 574Q368 635 345 669T280 704Q247 704 228 682ZM327 4T354 33T381 112Q381 157 359 195T307 262T221 338Q167 281 167 175Q167 99 193 52T280
4Q327 4 354 33Z" />
<glyph unicode="9" glyph-name="nine" horiz-adv-x="553" d="M388 531T450 459T513 255Q513 130 451 43T299 -92T120 -152L116 -132Q176 -114 221 -87T302 -6T353 138Q332 107 298 92T225 77Q171 77 127 103T56 179T29 294Q29 368 62 421T153 503T278 531Q388
531 450 459ZM290 106T316 123T358 178Q362 211 362 260Q362 393 334 452T267 511Q230 511 205 460T180 302Q180 201 203 154T265 106Q290 106 316 123Z" />
<glyph unicode=":" glyph-name="colon" horiz-adv-x="290" d="M184 531T207 511T230 454Q230 418 207 398T145 377Q106 377 83 397T60 454Q60 490 83 510T145 531Q184 531 207 511ZM184 140T207 120T230 63Q230 27 207 7T145 -14Q106 -14 83 6T60 63Q60 99 83
119T145 140Q184 140 207 120Z" />
<glyph unicode=";" glyph-name="semicolon" horiz-adv-x="296" d="M192 140T214 105Q224 90 230 68T236 22Q236 -30 210 -72T131 -138L122 -120Q151 -108 172 -83T198 -32Q201 -20 201 -9Q201 1 198 10Q176 -14 140 -14Q105 -14 83 6T61 63Q61 97 84 118T143 140Q192
140 214 105ZM188 531T211 511T234 454Q234 418 211 398T149 377Q110 377 87 397T64 454Q64 490 87 510T149 531Q188 531 211 511Z" />
<glyph unicode="&lt;" glyph-name="less" horiz-adv-x="602" d="M532 546L123 355L532 164L515 128L28 355L515 582L532 546Z" />
<glyph unicode="=" glyph-name="equal" horiz-adv-x="635" d="M568 410H67V440H568V410ZM568 270H67V300H568V270Z" />
<glyph unicode="&gt;" glyph-name="greater" horiz-adv-x="602" d="M70 546L479 355L70 164L87 128L574 355L87 582L70 546Z" />
<glyph unicode="?" glyph-name="question" horiz-adv-x="508" d="M345 782T411 734T477 602Q477 520 409 463T222 380V234H202V389Q280 423 307 469T334 583Q334 674 301 718T211 762Q183 762 160 756T124 736Q180 719 180 663Q180 632 158 612T101 591Q70 591
50 611T30 660Q30 689 45 709T87 747Q146 782 237 782Q345 782 411 734ZM252 140T275 120T298 63Q298 27 275 7T213 -14Q174 -14 151 6T128 63Q128 99 151 119T213 140Q252 140 275 120Z" />
<glyph unicode="@" glyph-name="at" horiz-adv-x="884" d="M477 26T477 95Q477 111 483 139Q456 79 421 53T341 26Q287 26 256 59T225 156Q225 227 259 302T348 428T464 478Q495 478 515 462T542 418L551 464Q630 464 677 478L598 117Q592 89 592 80Q592 58 609
58Q617 58 622 60Q667 73 716 117T798 232T832 394Q832 525 749 587T535 650Q413 650 305 581T131 395T65 145Q65 -2 148 -72T371 -143Q487 -143 577 -89L584 -102Q545 -129 490 -145T370 -161Q220 -161 133 -86T45 143Q45 277 110 398T288 593T534 668Q676 668
764 600T852 393Q852 286 807 203T692 73T556 26Q477 26 477 95ZM425 74T452 112T501 222L534 380Q533 406 522 424T489 443Q457 443 426 401T374 292T353 157Q353 112 363 93T394 74Q425 74 452 112Z" />
<glyph unicode="A" glyph-name="A" horiz-adv-x="667" d="M624 51T641 36T674 20V0Q614 3 522 3Q420 3 370 0V20Q408 22 424 29T440 56Q440 74 428 104L368 268H150L124 199Q96 127 96 88Q96 51 118 37T185 20V0Q117 3 61 3Q15 3 -15 0V20Q34 29 71 125L299 710Q310
709 334 709Q358 709 368 710L611 84Q624 51 641 36ZM361 288L262 558L158 288H361Z" />
<glyph unicode="B" glyph-name="B" horiz-adv-x="672" d="M520 362T581 312T642 194Q642 101 569 51T366 0Q337 0 317 1Q251 3 188 3Q85 3 34 0V20Q67 22 82 28T103 51T109 106V602Q109 640 104 657T83 680T34 688V708Q85 705 186 705L297 706Q317 707 343 707Q463
707 526 664T590 550Q590 492 540 442T390 374V372Q520 362 581 312ZM303 688T291 681T273 656T268 602V376H311Q376 376 402 420T428 539Q428 614 405 651T330 688Q303 688 291 681ZM476 23T476 198Q476 277 436 318T310 359H268V106Q268 70 273 53T292 30T337
23Q476 23 476 198Z" />
<glyph unicode="C" glyph-name="C" horiz-adv-x="705" d="M457 722T499 705T581 657Q592 648 600 648Q620 648 626 708H649Q645 640 645 466H622Q613 540 598 579T547 647Q522 671 489 683T420 696Q319 696 270 598T221 352Q221 206 272 108T424 10Q458 10 491
22T548 59Q585 87 599 129T622 252H645Q645 71 649 0H626Q623 32 618 45T602 59Q594 59 581 51Q536 19 495 3T396 -14Q290 -14 211 29T87 153T43 348Q43 458 88 543T213 675T397 722Q457 722 499 705Z" />
<glyph unicode="D" glyph-name="D" horiz-adv-x="776" d="M538 708T635 620T732 362Q732 253 685 172T548 45T334 0L272 1Q214 3 188 3Q85 3 34 0V20Q67 22 82 28T103 51T109 106V602Q109 640 104 657T83 680T34 688V708Q76 705 155 705H186L226 706Q308 708 343
708Q538 708 635 620ZM311 690T296 683T274 658T268 604V104Q268 68 274 50T295 25T343 18Q464 18 515 102T566 358Q566 529 514 609T342 690Q311 690 296 683Z" />
<glyph unicode="E" glyph-name="E" horiz-adv-x="634" d="M582 60T589 0Q521 3 360 3Q142 3 34 0V20Q67 22 82 28T103 51T109 106V602Q109 640 104 657T83 680T34 688V708Q142 705 360 705Q507 705 569 708Q562 625 562 560Q562 516 565 492H542Q527 599 488 642T378
685H337Q306 685 292 680T273 661T268 614V366H300Q353 366 380 405T419 498H442Q439 456 439 404V356Q439 305 445 214H422Q401 346 300 346H268V94Q268 62 273 48T292 28T337 23H386Q457 23 500 71T562 236H585Q582 203 582 152Q582 60 589 0Z" />
<glyph unicode="F" glyph-name="F" horiz-adv-x="592" d="M562 623T562 556Q562 509 565 480H542Q522 593 482 639T370 685H337Q306 685 292 680T273 661T268 614V362H303Q356 362 383 401T422 494H445Q442 452 442 400V352Q442 301 448 210H425Q404 342 303 342H268V112Q268
72 276 54T306 29T375 22V0Q252 3 192 3Q142 3 66 1L34 0V20Q67 22 82 28T103 51T109 106V602Q109 640 104 657T83 680T34 688V708Q142 705 360 705Q507 705 569 708Q562 623 562 556Z" />
<glyph unicode="G" glyph-name="G" horiz-adv-x="735" d="M467 722T509 705T593 657Q605 648 613 648Q623 648 629 662T638 708H661Q657 640 657 466H634Q626 534 611 576T559 647Q535 670 500 683T428 696Q358 696 312 649T243 523T221 352Q221 6 413 6Q457 6
484 26Q497 35 502 47T508 78V176Q508 223 500 244T472 274T407 284V304Q469 301 578 301Q667 301 712 304V284Q692 282 683 276T671 253T667 198V0H647Q646 21 639 39T618 57Q601 57 564 36Q477 -14 400 -14Q227 -14 135 80T43 346Q43 458 89 543T218 675T405
722Q467 722 509 705Z" />
<glyph unicode="H" glyph-name="H" horiz-adv-x="800" d="M733 686T718 680T698 657T692 602V106Q692 68 697 51T718 28T767 20V0Q718 3 615 3Q514 3 458 0V20Q491 22 506 28T527 51T533 106V346H268V106Q268 68 273 51T294 28T343 20V0Q289 3 192 3Q85 3 34 0V20Q67
22 82 28T103 51T109 106V602Q109 640 104 657T83 680T34 688V708Q85 705 192 705Q289 705 343 708V688Q309 686 294 680T274 657T268 602V366H533V602Q533 640 528 657T507 680T458 688V708Q514 705 615 705Q718 705 767 708V688Q733 686 718 680Z" />
<glyph unicode="I" glyph-name="I" horiz-adv-x="376" d="M343 688Q309 686 294 680T274 657T268 602V106Q268 68 273 51T294 28T343 20V0Q289 3 192 3Q85 3 34 0V20Q67 22 82 28T103 51T109 106V602Q109 640 104 657T83 680T34 688V708Q85 705 192 705Q289 705
343 708V688Z" />
<glyph unicode="J" glyph-name="J" horiz-adv-x="364" d="M-23 -168Q19 -164 46 -144T88 -76T103 54V602Q103 640 98 657T77 680T28 688V708Q78 705 179 705Q282 705 337 708V688Q303 686 288 680T268 657T262 602V236V175Q262 34 245 -25Q224 -98 156 -143T-23
-188V-168Z" />
<glyph unicode="K" glyph-name="K" horiz-adv-x="714" d="M667 58T683 44T724 20V0Q654 3 568 3Q502 3 441 0V20Q469 22 481 26T494 40Q494 48 483 65L338 300Q318 332 305 343T268 356V106Q268 68 273 51T294 28T343 20V0Q289 3 192 3Q85 3 34 0V20Q67 22 82
28T103 51T109 106V602Q109 640 104 657T83 680T34 688V708Q85 705 192 705Q289 705 343 708V688Q309 686 294 680T274 657T268 602V377Q308 379 341 401T416 471L475 542Q521 595 521 635Q521 659 502 673T447 689V708Q520 705 595 705Q653 705 689 708V689Q609
670 544 593L419 444L652 81Q667 58 683 44Z" />
<glyph unicode="L" glyph-name="L" horiz-adv-x="611" d="M349 688Q313 686 297 680T274 657T268 602V94Q268 62 273 48T290 28T331 23H380Q448 23 497 84T562 246H585Q582 212 582 158Q582 62 589 0Q521 3 360 3Q142 3 34 0V20Q67 22 82 28T103 51T109 106V602Q109
640 104 657T83 680T34 688V708Q85 705 192 705Q294 705 349 708V688Z" />
<glyph unicode="M" glyph-name="M" horiz-adv-x="927" d="M860 686T845 680T825 657T819 602V106Q819 68 824 51T845 28T894 20V0Q839 3 737 3Q630 3 579 0V20Q615 22 631 28T654 51T660 106V629L419 -1H403L133 643V164Q133 105 139 78T165 38T230 20V0Q191 3
122 3Q67 3 35 0V20Q68 25 83 37T104 75T110 152V602Q110 640 105 657T84 680T35 688V708Q67 705 122 705Q214 705 280 708L482 221L666 705H737Q839 705 894 708V688Q860 686 845 680Z" />
<glyph unicode="N" glyph-name="N" horiz-adv-x="722" d="M693 688Q660 683 645 671T624 633T618 556V-2L594 -1L567 -2L133 548V164Q133 105 139 78T165 38T230 20V0Q191 3 122 3Q67 3 35 0V20Q68 25 83 37T104 75T110 152V602Q110 640 105 657T84 680T35 688V708Q67
705 122 705Q172 705 208 708L595 231V544Q595 603 589 630T563 670T498 688V708Q537 705 606 705Q662 705 693 708V688Z" />
<glyph unicode="O" glyph-name="O" horiz-adv-x="793" d="M503 722T582 679T706 555T750 360Q750 250 705 165T580 33T396 -14Q290 -14 211 29T87 153T43 348Q43 458 88 543T213 675T397 722Q503 722 582 679ZM338 704T296 660T232 535T209 352Q209 248 234 169T303
47T400 4Q455 4 497 48T561 173T584 356Q584 460 559 539T490 661T393 704Q338 704 296 660Z" />
<glyph unicode="P" glyph-name="P" horiz-adv-x="641" d="M268 286V112Q268 72 276 54T306 29T375 22V0Q252 3 192 3Q142 3 66 1L34 0V20Q67 22 82 28T103 51T109 106V602Q109 640 104 657T83 680T34 688V708Q85 705 186 705L297 706Q317 707 343 707Q478 707
549 654T620 510Q620 455 592 405T498 320T321 286H268ZM303 688T291 681T273 656T268 602V306H311Q392 306 423 358T454 499Q454 596 426 642T330 688Q303 688 291 681Z" />
<glyph unicode="Q" glyph-name="Q" horiz-adv-x="793" d="M782 7Q765 -106 713 -149Q691 -167 658 -177T584 -188Q530 -188 478 -171T348 -120Q329 -112 307 -103T256 -82L232 -75Q213 -85 191 -90T148 -96Q127 -96 114 -90T101 -70Q101 -43 156 -43Q193 -43 232
-57Q266 -47 304 -30Q311 -27 325 -22T350 -12Q257 -3 188 42T81 166T43 348Q43 458 88 543T213 675T397 722Q503 722 582 679T706 555T750 360Q750 254 708 171T590 39T417 -13Q393 -16 374 -22T329 -39Q297 -53 267 -62L348 -69Q475 -80 531 -80Q568 -80 606
-75Q668 -68 704 -49T764 12L782 7ZM209 248T234 169T303 47T400 4Q455 4 497 48T561 173T584 356Q584 460 559 539T490 661T393 704Q338 704 296 660T232 535T209 352Q209 248 234 169Z" />
<glyph unicode="R" glyph-name="R" horiz-adv-x="692" d="M712 44Q685 13 654 0T579 -14Q521 -14 488 10T444 94L426 194Q413 267 395 301T333 336H268V106Q268 68 273 51T294 28T343 20V0Q289 3 192 3Q85 3 34 0V20Q67 22 82 28T103 51T109 106V602Q109 640 104
657T83 680T34 688V708Q85 705 186 705L297 706Q317 707 343 707Q481 707 550 662T620 533Q620 462 568 408T396 340Q486 332 530 301T587 208L610 105Q618 65 628 49T658 33Q670 34 678 39T698 56L712 44ZM303 688T291 681T273 656T268 602V356H311Q393 356 423
399T454 522Q454 604 425 646T330 688Q303 688 291 681Z" />
<glyph unicode="S" glyph-name="S" horiz-adv-x="584" d="M336 721T367 711T430 682Q441 676 449 672T464 668Q473 668 478 678T486 712H509Q504 645 504 484H481Q477 538 457 587T399 666T311 697Q262 697 232 670T201 595Q201 560 216 534T258 487T341 428L373
406Q432 367 466 338T521 271T543 181Q543 117 510 74T421 8T295 -14Q239 -14 202 -4T134 23Q112 37 100 37Q91 37 86 27T78 -7H55Q59 56 59 263H82Q89 151 132 82T264 12Q318 12 353 41T388 124Q388 180 352 220T238 310Q178 349 142 378T83 446T60 538Q60 598
90 639T172 701T284 721Q336 721 367 711Z" />
<glyph unicode="T" glyph-name="T" horiz-adv-x="668" d="M635 613T635 538Q635 491 638 462H615Q591 585 550 635T436 685H413V114Q413 72 421 53T451 28T520 20V0Q394 3 330 3Q267 3 147 0V20Q194 21 215 27T245 53T254 114V685H232Q184 685 151 664T93 595T52
462H29Q32 491 32 538Q32 613 25 708Q116 705 334 705Q552 705 642 708Q635 613 635 538Z" />
<glyph unicode="U" glyph-name="U" horiz-adv-x="689" d="M671 688Q638 683 623 671T602 633T596 556V291Q596 148 555 79Q528 35 477 11T352 -14Q236 -14 172 36Q126 73 110 129T94 288V602Q94 640 89 657T68 680T19 688V708Q70 705 175 705Q279 705 334 708V688Q298
686 282 680T259 657T253 602V225Q253 120 283 71T391 21Q491 21 532 88T573 280V544Q573 602 566 630T539 670T476 688V708Q514 705 584 705Q640 705 671 708V688Z" />
<glyph unicode="V" glyph-name="V" horiz-adv-x="668" d="M648 705T678 708V688Q653 679 629 650T586 569L375 -2Q364 -1 340 -1Q317 -1 306 -2L51 624Q38 657 21 672T-12 688V708Q48 705 140 705Q243 705 292 708V688Q254 686 238 679T222 651Q222 634 234 604L410
156L533 488Q561 565 561 610Q561 650 540 668T477 688V708Q545 705 602 705Q648 705 678 708Z" />
<glyph unicode="W" glyph-name="W" horiz-adv-x="968" d="M944 705T974 708V688Q949 678 926 650T886 569L710 -2Q699 -1 675 -1Q651 -1 640 -2L493 444L345 -2Q334 -1 310 -1Q286 -1 275 -2L51 624Q39 657 22 672T-12 688V708Q48 705 137 705Q221 705 260 708V688Q225
683 225 649Q225 633 234 604L380 181L481 479L430 634Q420 663 407 674T375 688V708Q431 705 518 705Q616 705 662 708V688Q626 687 610 680T594 651Q594 633 604 604L741 186L836 488Q859 563 859 604Q859 647 838 666T773 688V708Q841 705 897 705Q944 705 974
708Z" />
<glyph unicode="X" glyph-name="X" horiz-adv-x="691" d="M659 42T671 32T703 21V0Q599 4 566 4Q534 4 426 1Q418 0 405 0V21Q441 21 456 24T471 38Q471 45 464 55L296 302L216 193Q170 131 170 88Q170 57 192 40T255 20V0Q198 3 97 3Q37 3 5 0V20Q74 42 150 142L283
321L67 638Q47 668 35 677T3 688V709Q15 709 23 708Q119 705 146 705Q233 705 299 709V688Q265 688 250 684T235 669Q235 661 243 650L392 432L466 532Q513 594 513 633Q513 658 494 672T440 688V708Q497 705 566 705Q626 705 658 708V688Q626 679 594 651T532
583L405 413L639 71Q659 42 671 32Z" />
<glyph unicode="Y" glyph-name="Y" horiz-adv-x="623" d="M587 706T617 709V689Q571 670 521 573L403 339V106Q403 68 408 51T429 28T478 20V0Q424 3 324 3Q217 3 169 0V20Q202 22 217 28T238 51T244 106V275L51 632Q20 688 -7 688V709Q37 704 111 704Q204 704
299 709V688Q264 688 244 682T223 658Q223 649 230 636L382 343L460 499Q499 578 499 623Q499 657 478 672T416 689V709Q484 706 541 706Q587 706 617 709Z" />
<glyph unicode="Z" glyph-name="Z" horiz-adv-x="602" d="M557 688L215 23H319Q397 23 457 75T530 240H553Q550 206 550 152Q550 60 557 0Q483 3 308 3Q122 3 39 0V20L382 685H274Q192 685 140 638T74 480H51Q54 509 54 556Q54 623 47 708Q113 705 272 705Q469
705 557 708V688Z" />
<glyph unicode="[" glyph-name="bracketleft" horiz-adv-x="322" d="M285 753H228V-162H285V-181H84V772H285V753Z" />
<glyph unicode="\" glyph-name="backslash" horiz-adv-x="368" d="M303 -14H336L64 722H31L303 -14Z" />
<glyph unicode="]" glyph-name="bracketright" horiz-adv-x="322" d="M37 753H94V-162H37V-181H238V772H37V753Z" />
<glyph unicode="^" glyph-name="asciicircum" horiz-adv-x="529" d="M304 469T357 414T472 324L464 310Q401 325 341 348T244 394Q214 371 165 348T64 310L56 324Q118 358 171 413T255 528H273Q304 469 357 414Z" />
<glyph unicode="_" glyph-name="underscore" horiz-adv-x="608" d="M549 -173H59V-85H549V-173Z" />
<glyph unicode="`" glyph-name="grave" horiz-adv-x="296" d="M83 830T103 830Q116 830 129 824T151 806Q162 793 169 778T190 731Q219 657 246 608L235 599Q189 642 129 684Q110 698 94 711T66 738Q51 758 51 778Q51 802 69 817Q83 830 103 830Z" />
<glyph unicode="a" glyph-name="a" horiz-adv-x="518" d="M92 -7T61 26T29 113Q29 158 52 187T109 233T195 267Q250 286 275 301T301 344V422Q301 464 282 487T221 511Q173 511 148 487Q176 477 191 457T207 410Q207 376 184 356T128 336Q93 336 74 358T55 413Q55
441 68 460T110 497Q137 513 176 522T263 531Q312 531 348 521T408 487Q430 465 437 433T445 346V74Q445 50 449 40T467 30Q482 30 503 47L513 30Q468 -7 403 -7Q348 -7 326 15T303 74Q253 -7 156 -7Q92 -7 61 26ZM272 57T301 98V303Q289 283 250 259Q211 234 191
209T171 137Q171 96 188 77T233 57Q272 57 301 98Z" />
<glyph unicode="b" glyph-name="b" horiz-adv-x="586" d="M448 531T498 465T548 272Q548 125 484 56T319 -14Q250 -14 207 21Q171 24 135 13T78 -16L63 -7Q70 18 70 49V662Q70 708 56 729T6 750V771Q37 768 68 768Q155 768 214 782V436Q235 482 275 506T367 531Q448
531 498 465ZM343 7T370 69T397 258Q397 381 374 434T308 488Q276 488 250 465T214 401V34Q247 7 288 7Q343 7 370 69Z" />
<glyph unicode="c" glyph-name="c" horiz-adv-x="496" d="M321 531T354 523T409 501Q435 485 449 461T464 407Q464 372 442 350T385 327Q350 327 329 347T308 401Q308 431 327 453T374 483Q366 494 350 500T314 507Q254 507 221 442T187 270Q187 163 225 116T320
69Q354 69 388 87T451 150L468 144Q448 79 398 33T269 -14Q166 -14 101 54T36 256Q36 344 68 406T156 499T284 531Q321 531 354 523Z" />
<glyph unicode="d" glyph-name="d" horiz-adv-x="598" d="M516 64T530 43T580 22V1Q549 4 518 4Q429 4 372 -10V76Q338 -14 242 -14Q148 -14 93 54T38 261Q38 349 66 409T145 500T261 531Q334 531 372 493V663Q372 709 358 730T308 751V772Q340 769 370 769Q457
769 516 783V110Q516 64 530 43ZM316 29T341 53T372 118V468Q347 502 299 502Q246 502 217 441T189 259Q188 137 212 83T283 29Q316 29 341 53Z" />
<glyph unicode="e" glyph-name="e" horiz-adv-x="504" d="M400 68T450 148L468 142Q448 77 397 32T268 -14Q162 -14 100 53T37 253Q37 388 104 459T282 531Q470 531 470 309H189Q188 294 188 262Q188 196 206 152T254 88T318 68Q400 68 450 148ZM240 510T217 466T187
328H344Q346 407 329 458T276 510Q240 510 217 466Z" />
<glyph unicode="f" glyph-name="f" horiz-adv-x="352" d="M350 782T395 749Q410 737 419 718T429 674Q429 646 409 626T358 605Q324 605 303 624T282 676Q282 702 297 722T341 750Q338 756 329 760T305 764Q267 764 251 738Q240 723 236 694T232 607V516H339V496H232V103Q232
57 255 39T326 21V0L298 1Q187 4 154 4Q124 4 24 0V21Q60 21 74 36T88 93V496H20V516H88Q88 603 102 650T151 732Q173 754 210 768T288 782Q350 782 395 749Z" />
<glyph unicode="g" glyph-name="g" horiz-adv-x="553" d="M478 421T464 434T450 473Q450 497 462 522Q438 512 423 500T396 468Q427 431 427 372Q427 293 373 253T228 213H210Q169 189 169 160Q169 128 209 128H318Q406 128 458 96T511 -4Q511 -55 479 -96T380
-163T218 -188Q121 -188 63 -164T4 -93Q4 -62 32 -38T115 1L124 -15Q88 -45 88 -84Q88 -126 126 -148T231 -171Q301 -171 344 -143T388 -64Q388 -31 364 -12T278 7H216Q152 7 116 28T80 94Q80 131 106 160T185 216Q113 225 71 264T29 372Q29 451 83 491T228 531Q328
531 381 484Q400 511 428 527T485 543Q515 543 532 526T550 480Q550 452 535 437T498 421Q478 421 464 434ZM256 231T270 263T285 372Q285 449 271 481T228 513Q200 513 186 481T171 372Q171 295 185 263T228 231Q256 231 270 263Z" />
<glyph unicode="h" glyph-name="h" horiz-adv-x="608" d="M227 438Q272 531 390 531Q468 531 500 492Q517 473 524 443T532 362V93Q532 52 546 37T596 21V0Q492 4 464 4Q430 4 334 0V21Q364 21 376 36T388 93V404Q388 445 375 466T326 487Q284 487 256 455T227
372V93Q227 52 239 37T281 21V0Q185 4 157 4Q123 4 19 0V21Q54 21 68 36T83 93V662Q83 708 69 729T19 750V771Q51 768 81 768Q168 768 227 782V438Z" />
<glyph unicode="i" glyph-name="i" horiz-adv-x="315" d="M196 775T220 755T245 698Q245 662 221 642T154 621Q112 621 88 641T63 698Q63 734 87 754T154 775Q196 775 220 755ZM232 93Q232 52 246 37T296 21V0Q196 4 163 4Q132 4 24 0V21Q60 21 74 36T88 93V408Q88
454 74 475T24 496V517Q56 514 86 514Q175 514 232 528V93Z" />
<glyph unicode="j" glyph-name="j" horiz-adv-x="297" d="M-23 -170Q27 -168 55 -130T84 -18V408Q84 454 70 475T20 496V517Q52 514 82 514Q169 514 228 528V94Q228 10 212 -44T156 -134Q97 -188 -23 -188V-170ZM187 775T211 755T236 698Q236 662 212 642T145
621Q103 621 79 641T54 698Q54 734 78 754T145 775Q187 775 211 755Z" />
<glyph unicode="k" glyph-name="k" horiz-adv-x="585" d="M548 49T558 38T584 21V0Q504 4 479 4Q446 4 350 0V21Q364 21 372 26T380 40Q380 45 375 55L276 234Q266 251 255 257T227 265V93Q227 52 240 37T287 21V0Q187 4 157 4Q123 4 19 0V21Q54 21 68 36T83 93V663Q83
709 69 730T19 751V772Q51 769 81 769Q168 769 227 783V284Q247 286 261 292T287 310L363 384Q396 417 396 445Q396 468 375 481T319 497V517Q374 514 436 514Q519 514 553 517V497Q494 484 428 420L364 354L532 73Q548 49 558 38Z" />
<glyph unicode="l" glyph-name="l" horiz-adv-x="311" d="M228 93Q228 52 242 37T292 21V0Q188 4 158 4Q124 4 20 0V21Q55 21 69 36T84 93V663Q84 709 70 730T20 751V772Q52 769 82 769Q169 769 228 783V93Z" />
<glyph unicode="m" glyph-name="m" horiz-adv-x="905" d="M828 52T842 37T892 21V0Q792 4 760 4Q732 4 636 0V21Q663 21 673 36T684 93V404Q684 446 672 466T624 487Q587 487 560 456T527 380V362V93Q527 52 539 37T585 21V0Q489 4 459 4Q431 4 335 0V21Q362 21
372 36T383 93V404Q383 446 372 466T329 487Q289 487 261 454T232 371V93Q232 52 242 37T280 21V0Q192 4 162 4Q132 4 24 0V21Q60 21 74 36T88 93V408Q88 454 74 475T24 496V517Q56 514 86 514Q175 514 232 528V438Q276 531 387 531Q463 531 497 492Q516 472 522
432Q548 486 590 508T688 531Q764 531 798 492Q814 474 821 443T828 362V93Q828 52 842 37Z" />
<glyph unicode="n" glyph-name="n" horiz-adv-x="614" d="M472 531T506 492Q523 473 530 443T537 362V93Q537 52 551 37T601 21V0Q501 4 469 4Q439 4 339 0V21Q369 21 381 36T393 93V404Q393 445 380 466T331 487Q290 487 261 454T232 371V93Q232 52 244 37T286
21V0Q194 4 162 4Q132 4 24 0V21Q60 21 74 36T88 93V408Q88 454 74 475T24 496V517Q56 514 86 514Q175 514 232 528V438Q277 531 396 531Q472 531 506 492Z" />
<glyph unicode="o" glyph-name="o" horiz-adv-x="565" d="M397 531T462 466T527 258Q527 116 462 51T282 -14Q168 -14 103 51T37 258Q37 400 102 465T282 531Q397 531 462 466ZM239 511T214 449T188 258Q188 130 213 68T282 6Q326 6 351 67T376 258Q376 387 351
449T282 511Q239 511 214 449Z" />
<glyph unicode="p" glyph-name="p" horiz-adv-x="600" d="M435 531T475 503T539 419T562 282Q562 139 500 63T330 -14Q300 -14 274 -6T228 18V-82Q228 -126 250 -143T318 -160V-181L291 -180Q180 -177 150 -177Q120 -177 24 -181V-160Q57 -160 70 -146T84 -92V408Q84
454 70 475T20 496V517Q52 514 82 514Q169 514 228 528V436Q249 482 289 506T383 531Q435 531 475 503ZM355 13T383 76T411 262Q411 384 389 436T324 488Q290 488 264 465T228 401V40Q252 13 291 13Q355 13 383 76Z" />
<glyph unicode="q" glyph-name="q" horiz-adv-x="585" d="M515 -131T528 -145T575 -160V-181Q479 -177 449 -177Q419 -177 308 -180L281 -181V-160Q327 -160 349 -143T371 -82V77Q354 32 321 9T242 -14Q151 -14 94 55T37 261Q37 393 96 462T256 531Q298 531 327
522T380 490Q415 489 451 501T507 533L522 525Q515 500 515 468V-92Q515 -131 528 -145ZM314 29T338 51T371 112V480Q342 510 294 510Q188 510 188 259Q188 136 213 83T284 29Q314 29 338 51Z" />
<glyph unicode="r" glyph-name="r" horiz-adv-x="467" d="M413 531T436 504T459 439Q459 402 438 379T381 355Q347 355 327 372T307 419Q307 467 351 497Q347 498 339 498Q329 498 323 496Q285 490 259 450T232 368V103Q232 57 254 39T326 21V0Q312 0 303 1Q201
4 167 4Q140 4 44 1Q36 0 24 0V21Q60 21 74 36T88 93V408Q88 454 74 475T24 496V517Q56 514 86 514Q175 514 232 528V435Q251 478 287 504T368 531Q413 531 436 504Z" />
<glyph unicode="s" glyph-name="s" horiz-adv-x="462" d="M260 531T292 522T341 500Q351 493 359 493Q368 493 374 502T383 530H404Q400 479 400 354H379Q370 420 340 464T251 509Q221 509 202 492T182 445Q182 411 205 387T277 327L306 306Q367 260 396 224T425
134Q425 90 400 56T331 4T236 -14Q181 -14 142 7Q110 23 96 28Q86 31 79 22T67 -7H46Q50 50 50 193H71Q91 9 206 9Q235 9 255 26T276 80Q276 108 264 130T232 169T175 216Q130 252 107 274T67 326T50 393Q50 457 100 494T222 531Q260 531 292 522Z" />
<glyph unicode="t" glyph-name="t" horiz-adv-x="352" d="M227 517H345V497H227V93Q227 63 237 51T271 38Q314 38 339 98L356 89Q318 -14 219 -14Q153 -14 119 20Q98 41 91 72T83 159V497H-1V517H83V649Q166 649 227 681V517Z" />
<glyph unicode="u" glyph-name="u" horiz-adv-x="606" d="M522 109Q522 63 536 42T586 21V0Q555 3 524 3Q437 3 378 -11V79Q332 -14 217 -14Q142 -14 108 25Q92 44 85 74T77 155V408Q77 454 63 475T13 496V517Q44 514 75 514Q162 514 221 528V114Q221 72 233 51T281
30Q321 30 349 63T378 146V408Q378 454 364 475T314 496V517Q346 514 376 514Q463 514 522 528V109Z" />
<glyph unicode="v" glyph-name="v" horiz-adv-x="508" d="M481 514T507 517V497Q486 491 470 472T438 411L292 -2Q281 -1 259 -1Q238 -1 227 -2L49 440Q35 474 21 485T-9 496V517Q61 512 133 512Q196 512 263 517V496Q229 496 215 492T200 467Q200 459 205 442L319
139L391 337Q407 384 407 418Q407 491 334 497V517Q380 514 430 514Q481 514 507 517Z" />
<glyph unicode="w" glyph-name="w" horiz-adv-x="787" d="M762 514T787 517V497Q766 491 749 472T719 411L586 -2Q575 -1 553 -1Q532 -1 521 -2L385 369L274 -2Q264 -1 242 -1Q220 -1 209 -2L51 440Q39 475 24 485T-7 496V517Q58 511 135 511Q185 511 265 517V496Q232
496 218 491T203 467Q203 454 208 440L298 157L407 518L444 517L480 518L610 136L673 337Q687 384 687 413Q687 491 608 497V517Q655 514 711 514Q762 514 787 517Z" />
<glyph unicode="x" glyph-name="x" horiz-adv-x="536" d="M496 48T508 36T536 21V0Q456 4 429 4Q399 4 299 0V21Q314 21 323 26T333 41Q333 47 328 55L224 210L189 166Q156 123 156 86Q156 58 175 41T228 20V0Q170 3 84 3Q43 3 14 0V20Q37 28 58 46T105 97L212
228L65 446Q46 473 35 483T9 496V517Q97 513 128 513Q154 513 246 517V496Q231 496 222 491T212 476Q212 468 217 462L311 322L349 372Q384 418 384 449Q384 470 369 482T323 497V517Q381 514 436 514Q478 514 507 517V497Q465 483 415 420L323 305L480 71Q496
48 508 36Z" />
<glyph unicode="y" glyph-name="y" horiz-adv-x="519" d="M486 514T513 517V497Q492 491 476 472T444 411L265 -92Q245 -144 221 -163Q192 -188 134 -188Q92 -188 59 -168T25 -108Q25 -77 47 -59T105 -40Q139 -40 159 -56T180 -103Q180 -124 167 -141T130 -168Q137
-169 153 -169Q215 -169 244 -90L260 -42L48 440Q32 474 17 485T-14 496V517Q52 511 123 511Q182 511 262 517V496Q230 496 215 492T199 468Q199 457 206 440L328 145L397 337Q413 384 413 417Q413 490 339 497V517Q386 514 436 514Q486 514 513 517Z" />
<glyph unicode="z" glyph-name="z" horiz-adv-x="474" d="M194 15H246Q310 15 354 57T406 194H427Q427 52 431 -4Q350 0 239 0Q141 0 31 -5L281 502H225Q82 502 69 323H48Q48 465 44 521Q125 517 236 517Q334 517 444 522L194 15Z" />
<glyph unicode="{" glyph-name="braceleft" horiz-adv-x="333" d="M316 763Q284 762 269 748T248 691T242 551Q242 428 189 374T45 299Q136 279 189 224T242 47Q242 -53 248 -97T268 -154T316 -169V-188Q233 -188 187 -168T119 -96T98 47Q98 143 92 193T69 265T22
290H17V308H22Q53 310 69 331T91 403T98 551Q98 640 119 689T187 760T316 782V763Z" />
<glyph unicode="|" glyph-name="bar" horiz-adv-x="253" d="M171 -195H83V858H171V-195Z" />
<glyph unicode="}" glyph-name="braceright" horiz-adv-x="333" d="M17 763Q49 762 64 748T85 691T91 551Q91 428 144 374T288 299Q197 279 144 224T91 47Q91 -53 85 -97T65 -154T17 -169V-188Q100 -188 146 -168T214 -96T235 47Q235 143 241 193T264 265T311
290H316V308H311Q280 310 264 331T242 403T235 551Q235 640 214 689T146 760T17 782V763Z" />
<glyph unicode="~" glyph-name="asciitilde" horiz-adv-x="668" d="M250 389T282 378T357 343Q401 321 429 311T491 300Q566 300 593 370L611 366Q604 296 560 254T457 211Q421 211 390 222T315 256Q272 278 242 289T179 300Q106 300 77 230L60 234Q67 304 110
346T213 389Q250 389 282 378Z" />
<glyph unicode="&#xa0;" glyph-name="uni00A0" horiz-adv-x="233" />
<glyph unicode="&#xa1;" glyph-name="exclamdown" horiz-adv-x="277" d="M178 531T201 511T224 454Q224 418 201 398T139 377Q100 377 77 397T54 454Q54 490 77 510T139 531Q178 531 201 511ZM149 257T160 200T192 59Q206 0 213 -34T220 -94Q220 -140 198 -164T138
-188Q102 -188 79 -164T56 -94Q56 -69 62 -36T84 57Q105 142 116 199T129 318H147Q149 257 160 200Z" />
<glyph unicode="&#xa2;" glyph-name="cent" horiz-adv-x="499" d="M445 81T398 35T275 -14V-181H253V-14Q154 -10 93 58T32 256Q32 379 93 450T253 530V708H275V531H280Q317 531 350 523T405 501Q431 485 445 461T460 407Q460 372 438 350T381 327Q346 327 325
347T304 401Q304 431 323 453T370 483Q362 494 346 500T310 507Q250 507 217 442T183 270Q183 163 221 116T316 69Q350 69 384 87T447 150L464 144Q445 81 398 35Z" />
<glyph unicode="&#xa3;" glyph-name="sterling" horiz-adv-x="660" d="M554 243T591 209T629 121Q629 60 591 23T478 -14Q440 -14 407 -4T326 26Q283 45 252 54Q224 62 203 62Q175 62 148 52Q127 20 103 3T55 -14Q33 -14 33 2Q33 18 57 36T120 64Q130 93 132 126T135
226V258V297H58V317H135V397H58V417H135V439Q135 736 387 736Q458 736 496 712Q546 682 546 635Q546 604 526 584T474 563Q442 563 422 581T402 629Q402 655 415 674T454 703Q446 710 430 714T395 719Q347 719 323 691T290 610T282 465V417H403V397H282V337Q282
323 281 317H403V297H279Q272 247 250 208T182 108L157 74Q200 110 236 124T307 138Q333 138 354 134T408 121Q439 113 459 109T503 105Q534 105 552 121T570 162Q570 192 551 210T497 236L501 252Q554 243 591 209Z" />
<glyph unicode="&#xa4;" glyph-name="currency" horiz-adv-x="615" d="M557 463L497 404Q525 356 525 300Q525 243 497 196L556 137L471 52L412 111Q364 83 308 83Q251 83 204 111L146 52L60 137L118 195Q90 246 90 300Q90 356 119 404L60 463L145 548L204 489Q250
518 308 518Q364 518 412 489L472 548L557 463ZM261 425T227 388T193 300Q193 249 227 213T309 176Q340 176 366 193T408 238T424 300Q424 333 409 362T367 408T309 425Q261 425 227 388Z" />
<glyph unicode="&#xa5;" glyph-name="yen" horiz-adv-x="678" d="M619 706T649 709V689Q603 670 553 573L435 339V303H559V283H435V203H559V183H435V106Q435 68 440 51T461 28T510 20V0Q456 3 356 3Q249 3 201 0V20Q234 22 249 28T270 51T276 106V183H150V203H276V275L272
283H150V303H261L83 632Q52 688 25 688V709Q69 704 143 704Q236 704 331 709V688Q296 688 276 682T255 658Q255 649 262 636L414 343L492 499Q531 578 531 623Q531 657 510 672T448 689V709Q516 706 573 706Q619 706 649 709Z" />
<glyph unicode="&#xa6;" glyph-name="brokenbar" horiz-adv-x="256" d="M172 384H84V858H172V384ZM172 -195H84V326H172V-195Z" />
<glyph unicode="&#xa7;" glyph-name="section" horiz-adv-x="581" d="M547 237T518 197T422 121Q460 88 478 54T497 -21Q497 -71 469 -109T388 -167T269 -188Q202 -188 151 -166Q85 -134 85 -73Q85 -44 105 -24T159 -3Q193 -3 214 -22T235 -72Q235 -97 222 -117T184
-146Q190 -156 213 -162T262 -169Q316 -169 341 -143T367 -78Q367 -45 352 -20T313 24T241 76L207 99Q143 142 109 171T55 232T36 307Q36 357 64 398T160 474Q122 507 104 540T86 615Q86 665 114 703T194 761T313 782Q383 782 431 760Q497 728 497 667Q497 638
477 618T423 597Q389 597 368 616T347 666Q347 691 360 711T398 740Q392 751 369 757T320 763Q266 763 241 737T216 672Q216 638 231 613T270 569T344 516L376 495Q440 452 474 423T528 362T547 287Q547 237 518 197ZM422 152T430 171T439 215Q439 244 423 269T373
320T277 388Q205 436 178 458Q161 442 153 423T144 379Q144 350 160 325T210 274T306 206Q378 158 405 136Q422 152 430 171Z" />
<glyph unicode="&#xa8;" glyph-name="dieresis" horiz-adv-x="478" d="M155 760T178 738T201 685Q201 654 178 632T125 610Q94 610 72 632T50 685Q50 715 72 737T125 760Q155 760 178 738ZM383 760T405 738T428 685Q428 654 406 632T353 610Q321 610 299 632T277
685Q277 715 299 737T353 760Q383 760 405 738Z" />
<glyph unicode="&#xa9;" glyph-name="copyright" horiz-adv-x="881" d="M548 782T639 729T784 584T838 384Q838 276 785 185T640 40T440 -14Q332 -14 241 39T96 184T42 384Q42 492 95 583T240 728T440 782Q548 782 639 729ZM343 750T261 701T130 567T82 384Q82
285 130 201T260 68T440 18Q537 18 619 67T750 201T798 384Q798 483 750 567T620 700T440 750Q343 750 261 701ZM501 657T534 648T590 625Q614 609 628 586T643 533Q643 498 621 476T564 453Q529 453 508 473T487 528Q487 558 505 579T553 609Q543 620 524 627T483
634Q454 634 430 616Q399 598 383 547T366 395Q366 279 403 228T498 176Q581 176 629 276L647 269Q627 204 577 158T448 112Q344 112 280 179T215 382Q215 470 246 532T334 625T463 657Q501 657 534 648Z" />
<glyph unicode="&#xaa;" glyph-name="ordfeminine" horiz-adv-x="482" d="M321 722T357 692T393 595V427Q393 413 397 407T412 401Q428 401 441 412L452 397Q404 360 338 360Q299 360 283 372T265 407Q217 360 145 360Q102 360 74 380T46 439Q46 478 78 500T185
547Q265 573 265 603V621Q265 664 250 683T203 703Q171 703 148 688Q169 682 180 666T192 631Q192 604 173 589T125 573Q95 573 77 588T59 630Q59 653 73 670T113 699Q163 722 241 722Q321 722 357 692ZM258 558T224 534Q201 517 190 499T179 458Q179 435 189 421T217
407Q243 407 265 426V573Q258 558 224 534Z" />
<glyph unicode="&#xab;" glyph-name="guillemotleft" horiz-adv-x="569" d="M317 527Q294 450 255 376T175 260Q215 219 254 144T317 -10L302 -15Q240 71 174 136T26 252V265Q106 315 172 381T302 533L317 527ZM516 503Q496 432 462 365T393 260Q428 222 462 154T516
14L501 9Q445 87 384 147T250 252V265Q324 310 384 370T501 509L516 503Z" />
<glyph unicode="&#xac;" glyph-name="logicalnot" horiz-adv-x="642" d="M575 165H539V340H74V370H575V165Z" />
<glyph unicode="&#xad;" glyph-name="uni00AD" horiz-adv-x="481" />
<glyph unicode="&#xae;" glyph-name="registered" horiz-adv-x="665" d="M408 782T472 745T573 643T611 503Q611 427 574 363T472 262T332 224Q256 224 192 261T91 363T53 503Q53 579 90 643T192 744T332 782Q408 782 472 745ZM397 256T451 289T537 379T569 503Q569
570 538 626T452 716T332 750Q267 750 213 717T127 627T95 503Q95 436 126 380T212 290T332 256Q397 256 451 289ZM501 364Q486 346 449 346Q417 346 401 356T380 389L365 462Q361 480 356 488T339 501T302 507V404Q302 381 306 375T325 367V352L262 353L196 352V367Q211
369 215 375T219 404V623Q219 646 215 652T196 661V676Q210 675 258 675L344 676Q466 676 466 597Q466 570 443 548T363 515Q409 511 427 498T452 457L467 392Q470 379 473 374T482 368Q488 368 493 374L501 364ZM312 661T307 656T302 633V524H314Q382 524 382
591Q382 626 369 643T328 661Q312 661 307 656Z" />
<glyph unicode="&#xaf;" glyph-name="overscore" horiz-adv-x="436" d="M386 687H50V712H386V687Z" />
<glyph unicode="&#xb0;" glyph-name="degree" horiz-adv-x="311" d="M206 820T241 787T277 700Q277 646 242 613T155 579Q105 579 70 612T34 700Q34 754 69 787T155 820Q206 820 241 787ZM118 803T89 775T59 699Q59 650 88 623T155 596Q193 596 222 623T252 699Q252
747 222 775T155 803Q118 803 89 775Z" />
<glyph unicode="&#xb1;" glyph-name="plusminus" horiz-adv-x="579" d="M541 0H40V30H541V0ZM306 370H538V340H306V105H270V340H37V370H270V606H306V370Z" />
<glyph unicode="&#xb2;" glyph-name="uni00B2" horiz-adv-x="351" d="M229 755T259 736T290 681Q290 645 264 619T184 556Q139 527 125 515H260Q282 515 290 522T307 549L324 546Q310 478 309 435Q297 438 271 438H27V458Q46 474 68 490Q129 537 163 575T197 663Q197
688 181 701T136 715Q80 715 49 667L34 675Q54 710 89 732T179 755Q229 755 259 736Z" />
<glyph unicode="&#xb3;" glyph-name="uni00B3" horiz-adv-x="330" d="M221 756T253 737T285 684Q285 649 254 625T168 589Q224 591 263 566T302 498Q302 452 262 420T157 369T24 348V365Q107 373 159 410T211 503Q211 534 195 555T150 578Q145 575 134 570T114
564Q98 564 98 576Q98 586 109 588T142 590Q169 603 180 623T192 663Q192 688 175 703T129 718Q102 718 79 705T41 668L26 676Q70 756 171 756Q221 756 253 737Z" />
<glyph unicode="&#xb4;" glyph-name="acute" horiz-adv-x="296" d="M245 804T245 779Q245 758 230 738Q219 725 203 712T167 684Q107 642 61 599L50 608Q77 657 106 731Q119 762 126 777T145 806Q164 830 192 830Q213 830 227 817Q245 804 245 779Z" />
<glyph unicode="&#xb6;" glyph-name="paragraph" horiz-adv-x="732" d="M460 709T526 707L616 706Q667 706 692 708V689Q649 687 635 672T621 621V-75Q621 -113 626 -130T647 -153T696 -161V-181Q634 -178 521 -178Q412 -178 361 -181V-161Q403 -159 424 -150T454
-122T462 -65V-13Q237 -13 135 87T33 360Q33 462 79 541T213 664T421 709Q460 709 526 707ZM458 656T448 615T429 508T419 372Q344 372 276 368T165 359T122 351Q122 346 214 339T419 331Q420 258 428 193T447 88T463 48V656Q458 656 448 615Z" />
<glyph unicode="&#xb7;" glyph-name="middot" horiz-adv-x="278" d="M178 358T201 338T224 281Q224 245 201 225T139 204Q100 204 77 224T54 281Q54 317 77 337T139 358Q178 358 201 338Z" />
<glyph unicode="&#xb8;" glyph-name="cedilla" horiz-adv-x="327" d="M137 -65Q168 -53 208 -53Q241 -53 259 -67T277 -107Q277 -147 237 -167T137 -188Q84 -188 50 -176L55 -158Q87 -162 99 -162Q128 -162 150 -152T172 -121Q172 -95 139 -95Q116 -95 99 -102L131
2H158L137 -65Z" />
<glyph unicode="&#xb9;" glyph-name="uni00B9" horiz-adv-x="283" d="M203 507Q203 479 218 469T270 458V437Q226 439 155 439Q84 439 36 437V458Q73 458 91 468T110 507V636Q110 665 103 678T80 696T29 701V722Q91 723 130 730T203 753V507Z" />
<glyph unicode="&#xba;" glyph-name="ordmasculine" horiz-adv-x="468" d="M319 722T374 675T429 541Q429 455 374 408T234 360Q149 360 94 407T39 541Q39 627 94 674T234 722Q319 722 374 675ZM206 704T190 664T173 541Q173 458 189 418T234 378Q262 378 279
418T296 541Q296 624 279 664T234 704Q206 704 190 664Z" />
<glyph unicode="&#xbb;" glyph-name="guillemotright" horiz-adv-x="569" d="M329 448T395 382T543 264V252Q462 201 396 135T268 -16L252 -10Q275 67 314 141T394 257Q354 298 315 373T252 527L268 532Q329 448 395 382ZM126 429T186 369T320 264V252Q247 207
186 147T68 8L53 14Q73 85 107 152T176 257Q141 295 107 363T53 503L68 508Q126 429 186 369Z" />
<glyph unicode="&#xbc;" glyph-name="onequarter" horiz-adv-x="709" d="M682 811L97 -55L78 -42L663 824L682 811ZM218 507Q218 479 233 469T285 458V437Q241 439 170 439Q99 439 51 437V458Q88 458 106 468T125 507V636Q125 665 118 678T95 696T44 701V722Q106
723 145 730T218 753V507ZM639 107Q628 72 625 15Q613 18 587 18H561V-99H488V18H293V39L540 312H561V76H575Q597 76 605 83T622 110L639 107ZM488 76V231L348 76H488Z" />
<glyph unicode="&#xbd;" glyph-name="onehalf" horiz-adv-x="720" d="M666 811L81 -55L62 -42L647 824L666 811ZM220 507Q220 479 235 469T287 458V437Q243 439 172 439Q101 439 53 437V458Q90 458 108 468T127 507V636Q127 665 120 678T97 696T46 701V722Q108
723 147 730T220 753V507ZM591 318T621 299T652 244Q652 208 626 182T546 119Q501 90 487 78H622Q644 78 652 85T669 112L686 109Q672 41 671 -2Q659 1 633 1H389V21Q408 37 430 53Q491 100 525 138T559 226Q559 251 543 264T498 278Q442 278 411 230L396 238Q416
273 451 295T541 318Q591 318 621 299Z" />
<glyph unicode="&#xbe;" glyph-name="threequarters" horiz-adv-x="752" d="M724 811L139 -55L120 -42L705 824L724 811ZM242 756T274 737T306 684Q306 649 275 625T189 589Q245 591 284 566T323 498Q323 452 283 420T178 369T45 348V365Q128 373 180 410T232
503Q232 534 216 555T171 578Q166 575 155 570T135 564Q119 564 119 576Q119 586 130 588T163 590Q190 603 201 623T213 663Q213 688 196 703T150 718Q123 718 100 705T62 668L47 676Q91 756 192 756Q242 756 274 737ZM685 107Q674 72 671 15Q659 18 633 18H607V-99H534V18H339V39L586
312H607V76H621Q643 76 651 83T668 110L685 107ZM534 76V231L394 76H534Z" />
<glyph unicode="&#xbf;" glyph-name="questiondown" horiz-adv-x="503" d="M332 532T355 512T378 455Q378 419 355 399T293 378Q254 378 231 398T208 455Q208 491 231 511T293 532Q332 532 355 512ZM304 185Q226 152 199 106T172 -5Q172 -88 204 -128T294 -168Q322
-168 345 -163T381 -146Q325 -129 325 -73Q325 -41 347 -21T405 -1Q436 -1 455 -21T475 -70Q475 -124 418 -155Q361 -188 269 -188Q160 -188 95 -141T29 -12Q29 65 97 118T284 194V323H304V185Z" />
<glyph unicode="&#xc0;" glyph-name="Agrave" horiz-adv-x="667" d="M624 51T641 36T674 20V0Q614 3 522 3Q420 3 370 0V20Q408 22 424 29T440 56Q440 74 428 104L368 268H150L124 199Q96 127 96 88Q96 51 118 37T185 20V0Q117 3 61 3Q15 3 -15 0V20Q34 29 71
125L299 710Q310 709 334 709Q358 709 368 710L611 84Q624 51 641 36ZM361 288L262 558L158 288H361ZM253 925T266 914T301 879Q351 825 400 784L393 772Q345 790 308 800T263 812Q240 817 220 823T185 838Q169 847 160 860T151 889Q151 902 157 912Q164 926 177
934T207 942Q224 942 238 934Q253 925 266 914Z" />
<glyph unicode="&#xc1;" glyph-name="Aacute" horiz-adv-x="667" d="M624 51T641 36T674 20V0Q614 3 522 3Q420 3 370 0V20Q408 22 424 29T440 56Q440 74 428 104L368 268H150L124 199Q96 127 96 88Q96 51 118 37T185 20V0Q117 3 61 3Q15 3 -15 0V20Q34 29 71
125L299 710Q310 709 334 709Q358 709 368 710L611 84Q624 51 641 36ZM361 288L262 558L158 288H361ZM436 942T453 942Q469 942 482 934T503 912Q509 902 509 889Q509 874 500 861T475 838Q460 830 440 824T397 812Q390 810 353 800T267 772L260 784Q309 825 359
879Q381 902 394 913T422 934Q436 942 453 942Z" />
<glyph unicode="&#xc2;" glyph-name="Acircumflex" horiz-adv-x="667" d="M624 51T641 36T674 20V0Q614 3 522 3Q420 3 370 0V20Q408 22 424 29T440 56Q440 74 428 104L368 268H150L124 199Q96 127 96 88Q96 51 118 37T185 20V0Q117 3 61 3Q15 3 -15 0V20Q34 29
71 125L299 710Q310 709 334 709Q358 709 368 710L611 84Q624 51 641 36ZM361 288L262 558L158 288H361ZM374 895T428 853T547 784L542 769Q477 781 414 799T313 834Q282 817 230 799T124 769L119 784Q183 811 237 853T324 940H342Q374 895 428 853Z" />
<glyph unicode="&#xc3;" glyph-name="Atilde" horiz-adv-x="667" d="M624 51T641 36T674 20V0Q614 3 522 3Q420 3 370 0V20Q408 22 424 29T440 56Q440 74 428 104L368 268H150L124 199Q96 127 96 88Q96 51 118 37T185 20V0Q117 3 61 3Q15 3 -15 0V20Q34 29 71
125L299 710Q310 709 334 709Q358 709 368 710L611 84Q624 51 641 36ZM361 288L262 558L158 288H361ZM278 924T303 914T360 886Q388 869 409 861T455 853Q508 853 538 907L552 902Q539 836 503 802T419 768Q386 768 362 777T305 806Q276 823 255 831T208 839Q157
839 125 784L111 789Q125 855 161 889T245 924Q278 924 303 914Z" />
<glyph unicode="&#xc4;" glyph-name="Adieresis" horiz-adv-x="667" d="M624 51T641 36T674 20V0Q614 3 522 3Q420 3 370 0V20Q408 22 424 29T440 56Q440 74 428 104L368 268H150L124 199Q96 127 96 88Q96 51 118 37T185 20V0Q117 3 61 3Q15 3 -15 0V20Q34 29
71 125L299 710Q310 709 334 709Q358 709 368 710L611 84Q624 51 641 36ZM361 288L262 558L158 288H361ZM243 917T266 894T289 841Q289 811 266 789T213 766Q182 766 160 788T138 841Q138 871 160 894T213 917Q243 917 266 894ZM483 917T505 894T528 841Q528 810
506 788T453 766Q422 766 400 788T377 841Q377 871 399 894T453 917Q483 917 505 894Z" />
<glyph unicode="&#xc5;" glyph-name="Aring" horiz-adv-x="667" d="M624 51T641 36T674 20V0Q614 3 522 3Q420 3 370 0V20Q408 22 424 29T440 56Q440 74 428 104L368 268H150L124 199Q96 127 96 88Q96 51 118 37T185 20V0Q117 3 61 3Q15 3 -15 0V20Q34 29 71 125L299
710Q310 709 334 709Q358 709 368 710L611 84Q624 51 641 36ZM361 288L262 558L158 288H361ZM378 937T410 911T442 840Q442 796 410 769T333 742Q288 742 257 769T225 840Q225 884 256 910T333 937Q378 937 410 911ZM302 916T278 895T253 839Q253 803 277 783T333
763Q365 763 389 783T414 839Q414 874 390 895T333 916Q302 916 278 895Z" />
<glyph unicode="&#xc6;" glyph-name="AE" horiz-adv-x="889" d="M837 64T844 0Q778 3 623 3Q432 3 335 0V20Q365 22 378 28T397 51T402 106V346H235L93 104Q75 73 75 55Q75 38 92 30T144 20V0Q114 3 53 3Q10 3 -14 0V20Q3 21 19 35T55 84L395 661Q389 676 374
681T327 688V708Q385 706 421 706L460 772H484L445 706Q516 705 623 705Q764 705 824 708Q817 632 817 572Q817 528 820 504H797Q785 604 754 644T669 685H636Q603 685 588 680T567 657T561 602V366H614Q645 366 663 385T686 423T701 484H724Q721 446 721 399V356Q721
311 727 228H704Q695 285 678 315T614 346H561V106Q561 68 566 51T587 29T636 23H685Q740 23 773 69T817 224H840Q837 191 837 140Q837 64 844 0ZM402 366V602Q402 622 401 630L246 366H402Z" />
<glyph unicode="&#xc7;" glyph-name="Ccedilla" horiz-adv-x="705" d="M457 722T499 705T581 657Q592 648 600 648Q620 648 626 708H649Q645 640 645 466H622Q613 540 598 579T547 647Q522 671 489 683T420 696Q319 696 270 598T221 352Q221 206 272 108T424 10Q458
10 491 22T548 59Q585 87 599 129T622 252H645Q645 71 649 0H626Q623 32 618 45T602 59Q594 59 581 51Q536 19 495 3T396 -14Q290 -14 211 29T87 153T43 348Q43 458 88 543T213 675T397 722Q457 722 499 705ZM391 -65Q425 -53 468 -53Q504 -53 523 -67T543 -107Q543
-147 498 -167T385 -188Q328 -188 292 -176L297 -158Q333 -162 347 -162Q384 -162 411 -152T438 -121Q438 -95 392 -95Q368 -95 353 -102L386 5H413L391 -65Z" />
<glyph unicode="&#xc8;" glyph-name="Egrave" horiz-adv-x="634" d="M582 60T589 0Q521 3 360 3Q142 3 34 0V20Q67 22 82 28T103 51T109 106V602Q109 640 104 657T83 680T34 688V708Q142 705 360 705Q507 705 569 708Q562 625 562 560Q562 516 565 492H542Q527
599 488 642T378 685H337Q306 685 292 680T273 661T268 614V366H300Q353 366 380 405T419 498H442Q439 456 439 404V356Q439 305 445 214H422Q401 346 300 346H268V94Q268 62 273 48T292 28T337 23H386Q457 23 500 71T562 236H585Q582 203 582 152Q582 60 589 0ZM234
925T247 914T282 879Q332 825 381 784L374 772Q326 790 289 800T244 812Q221 817 201 823T166 838Q150 847 141 860T132 889Q132 902 138 912Q145 926 158 934T188 942Q205 942 219 934Q234 925 247 914Z" />
<glyph unicode="&#xc9;" glyph-name="Eacute" horiz-adv-x="634" d="M582 60T589 0Q521 3 360 3Q142 3 34 0V20Q67 22 82 28T103 51T109 106V602Q109 640 104 657T83 680T34 688V708Q142 705 360 705Q507 705 569 708Q562 625 562 560Q562 516 565 492H542Q527
599 488 642T378 685H337Q306 685 292 680T273 661T268 614V366H300Q353 366 380 405T419 498H442Q439 456 439 404V356Q439 305 445 214H422Q401 346 300 346H268V94Q268 62 273 48T292 28T337 23H386Q457 23 500 71T562 236H585Q582 203 582 152Q582 60 589 0ZM417
942T434 942Q450 942 463 934T484 912Q490 902 490 889Q490 874 481 861T456 838Q441 830 421 824T378 812Q371 810 334 800T248 772L241 784Q290 825 340 879Q362 902 375 913T403 934Q417 942 434 942Z" />
<glyph unicode="&#xca;" glyph-name="Ecircumflex" horiz-adv-x="634" d="M582 60T589 0Q521 3 360 3Q142 3 34 0V20Q67 22 82 28T103 51T109 106V602Q109 640 104 657T83 680T34 688V708Q142 705 360 705Q507 705 569 708Q562 625 562 560Q562 516 565 492H542Q527
599 488 642T378 685H337Q306 685 292 680T273 661T268 614V366H300Q353 366 380 405T419 498H442Q439 456 439 404V356Q439 305 445 214H422Q401 346 300 346H268V94Q268 62 273 48T292 28T337 23H386Q457 23 500 71T562 236H585Q582 203 582 152Q582 60 589 0ZM355
895T409 853T528 784L523 769Q458 781 395 799T294 834Q263 817 211 799T105 769L100 784Q164 811 218 853T305 940H323Q355 895 409 853Z" />
<glyph unicode="&#xcb;" glyph-name="Edieresis" horiz-adv-x="634" d="M582 60T589 0Q521 3 360 3Q142 3 34 0V20Q67 22 82 28T103 51T109 106V602Q109 640 104 657T83 680T34 688V708Q142 705 360 705Q507 705 569 708Q562 625 562 560Q562 516 565 492H542Q527
599 488 642T378 685H337Q306 685 292 680T273 661T268 614V366H300Q353 366 380 405T419 498H442Q439 456 439 404V356Q439 305 445 214H422Q401 346 300 346H268V94Q268 62 273 48T292 28T337 23H386Q457 23 500 71T562 236H585Q582 203 582 152Q582 60 589 0ZM224
917T247 894T270 841Q270 811 247 789T194 766Q163 766 141 788T119 841Q119 871 141 894T194 917Q224 917 247 894ZM464 917T486 894T509 841Q509 810 487 788T434 766Q403 766 381 788T358 841Q358 871 380 894T434 917Q464 917 486 894Z" />
<glyph unicode="&#xcc;" glyph-name="Igrave" horiz-adv-x="376" d="M343 688Q309 686 294 680T274 657T268 602V106Q268 68 273 51T294 28T343 20V0Q289 3 192 3Q85 3 34 0V20Q67 22 82 28T103 51T109 106V602Q109 640 104 657T83 680T34 688V708Q85 705 192
705Q289 705 343 708V688ZM112 925T125 914T160 879Q210 825 259 784L252 772Q204 790 167 800T122 812Q99 817 79 823T44 838Q28 847 19 860T10 889Q10 902 16 912Q23 926 36 934T66 942Q83 942 97 934Q112 925 125 914Z" />
<glyph unicode="&#xcd;" glyph-name="Iacute" horiz-adv-x="376" d="M343 688Q309 686 294 680T274 657T268 602V106Q268 68 273 51T294 28T343 20V0Q289 3 192 3Q85 3 34 0V20Q67 22 82 28T103 51T109 106V602Q109 640 104 657T83 680T34 688V708Q85 705 192
705Q289 705 343 708V688ZM295 942T312 942Q328 942 341 934T362 912Q368 902 368 889Q368 874 359 861T334 838Q319 830 299 824T256 812Q249 810 212 800T126 772L119 784Q168 825 218 879Q240 902 253 913T281 934Q295 942 312 942Z" />
<glyph unicode="&#xce;" glyph-name="Icircumflex" horiz-adv-x="376" d="M343 688Q309 686 294 680T274 657T268 602V106Q268 68 273 51T294 28T343 20V0Q289 3 192 3Q85 3 34 0V20Q67 22 82 28T103 51T109 106V602Q109 640 104 657T83 680T34 688V708Q85 705
192 705Q289 705 343 708V688ZM233 895T287 853T406 784L401 769Q336 781 273 799T172 834Q141 817 89 799T-17 769L-22 784Q42 811 96 853T183 940H201Q233 895 287 853Z" />
<glyph unicode="&#xcf;" glyph-name="Idieresis" horiz-adv-x="376" d="M343 688Q309 686 294 680T274 657T268 602V106Q268 68 273 51T294 28T343 20V0Q289 3 192 3Q85 3 34 0V20Q67 22 82 28T103 51T109 106V602Q109 640 104 657T83 680T34 688V708Q85 705 192
705Q289 705 343 708V688ZM102 917T125 894T148 841Q148 811 125 789T72 766Q41 766 19 788T-3 841Q-3 871 19 894T72 917Q102 917 125 894ZM342 917T364 894T387 841Q387 810 365 788T312 766Q281 766 259 788T236 841Q236 871 258 894T312 917Q342 917 364 894Z"
/>
<glyph unicode="&#xd0;" glyph-name="Eth" horiz-adv-x="776" d="M538 708T635 620T732 362Q732 253 685 172T548 45T334 0L272 1Q214 3 188 3Q85 3 34 0V20Q67 22 82 28T103 51T109 106V602Q109 640 104 657T83 680T34 688V708Q76 705 155 705H186L226 706Q308
708 343 708Q538 708 635 620ZM311 690T296 683T274 658T268 604V104Q268 68 274 50T295 25T343 18Q464 18 515 102T566 358Q566 529 514 609T342 690Q311 690 296 683ZM392 346H8V366H392V346Z" />
<glyph unicode="&#xd1;" glyph-name="Ntilde" horiz-adv-x="722" d="M693 688Q660 683 645 671T624 633T618 556V-2L594 -1L567 -2L133 548V164Q133 105 139 78T165 38T230 20V0Q191 3 122 3Q67 3 35 0V20Q68 25 83 37T104 75T110 152V602Q110 640 105 657T84
680T35 688V708Q67 705 122 705Q172 705 208 708L595 231V544Q595 603 589 630T563 670T498 688V708Q537 705 606 705Q662 705 693 708V688ZM324 924T349 914T406 886Q434 869 455 861T501 853Q554 853 584 907L598 902Q585 836 549 802T465 768Q432 768 408 777T351
806Q322 823 301 831T254 839Q203 839 171 784L157 789Q171 855 207 889T291 924Q324 924 349 914Z" />
<glyph unicode="&#xd2;" glyph-name="Ograve" horiz-adv-x="793" d="M503 722T582 679T706 555T750 360Q750 250 705 165T580 33T396 -14Q290 -14 211 29T87 153T43 348Q43 458 88 543T213 675T397 722Q503 722 582 679ZM338 704T296 660T232 535T209 352Q209
248 234 169T303 47T400 4Q455 4 497 48T561 173T584 356Q584 460 559 539T490 661T393 704Q338 704 296 660ZM315 925T328 914T363 879Q413 825 462 784L455 772Q407 790 370 800T325 812Q302 817 282 823T247 838Q231 847 222 860T213 889Q213 902 219 912Q226
926 239 934T269 942Q286 942 300 934Q315 925 328 914Z" />
<glyph unicode="&#xd3;" glyph-name="Oacute" horiz-adv-x="793" d="M503 722T582 679T706 555T750 360Q750 250 705 165T580 33T396 -14Q290 -14 211 29T87 153T43 348Q43 458 88 543T213 675T397 722Q503 722 582 679ZM338 704T296 660T232 535T209 352Q209
248 234 169T303 47T400 4Q455 4 497 48T561 173T584 356Q584 460 559 539T490 661T393 704Q338 704 296 660ZM498 942T515 942Q531 942 544 934T565 912Q571 902 571 889Q571 874 562 861T537 838Q522 830 502 824T459 812Q452 810 415 800T329 772L322 784Q371
825 421 879Q443 902 456 913T484 934Q498 942 515 942Z" />
<glyph unicode="&#xd4;" glyph-name="Ocircumflex" horiz-adv-x="793" d="M503 722T582 679T706 555T750 360Q750 250 705 165T580 33T396 -14Q290 -14 211 29T87 153T43 348Q43 458 88 543T213 675T397 722Q503 722 582 679ZM338 704T296 660T232 535T209 352Q209
248 234 169T303 47T400 4Q455 4 497 48T561 173T584 356Q584 460 559 539T490 661T393 704Q338 704 296 660ZM436 895T490 853T609 784L604 769Q539 781 476 799T375 834Q344 817 292 799T186 769L181 784Q245 811 299 853T386 940H404Q436 895 490 853Z" />
<glyph unicode="&#xd5;" glyph-name="Otilde" horiz-adv-x="793" d="M503 722T582 679T706 555T750 360Q750 250 705 165T580 33T396 -14Q290 -14 211 29T87 153T43 348Q43 458 88 543T213 675T397 722Q503 722 582 679ZM338 704T296 660T232 535T209 352Q209
248 234 169T303 47T400 4Q455 4 497 48T561 173T584 356Q584 460 559 539T490 661T393 704Q338 704 296 660ZM340 924T365 914T422 886Q450 869 471 861T517 853Q570 853 600 907L614 902Q601 836 565 802T481 768Q448 768 424 777T367 806Q338 823 317 831T270
839Q219 839 187 784L173 789Q187 855 223 889T307 924Q340 924 365 914Z" />
<glyph unicode="&#xd6;" glyph-name="Odieresis" horiz-adv-x="793" d="M503 722T582 679T706 555T750 360Q750 250 705 165T580 33T396 -14Q290 -14 211 29T87 153T43 348Q43 458 88 543T213 675T397 722Q503 722 582 679ZM338 704T296 660T232 535T209 352Q209
248 234 169T303 47T400 4Q455 4 497 48T561 173T584 356Q584 460 559 539T490 661T393 704Q338 704 296 660ZM305 917T328 894T351 841Q351 811 328 789T275 766Q244 766 222 788T200 841Q200 871 222 894T275 917Q305 917 328 894ZM545 917T567 894T590 841Q590
810 568 788T515 766Q484 766 462 788T439 841Q439 871 461 894T515 917Q545 917 567 894Z" />
<glyph unicode="&#xd7;" glyph-name="multiply" horiz-adv-x="493" d="M248 377L421 550L443 528L270 356L443 183L421 161L248 334L74 160L52 182L226 355L51 530L73 552L248 377Z" />
<glyph unicode="&#xd8;" glyph-name="Oslash" horiz-adv-x="793" d="M677 615T713 539T750 360Q750 250 705 165T580 33T396 -14Q278 -14 193 39L110 -79L89 -65L172 53Q110 100 77 175T43 348Q43 458 88 543T213 675T397 722Q507 722 591 674L663 779L682 766L611
661Q677 615 713 539ZM338 704T296 660T232 535T209 352Q209 231 244 142L534 598Q508 649 472 676T393 704Q338 704 296 660ZM455 4T497 48T561 173T584 356Q584 483 546 573L256 115Q282 62 319 33T400 4Q455 4 497 48Z" />
<glyph unicode="&#xd9;" glyph-name="Ugrave" horiz-adv-x="689" d="M671 688Q638 683 623 671T602 633T596 556V291Q596 148 555 79Q528 35 477 11T352 -14Q236 -14 172 36Q126 73 110 129T94 288V602Q94 640 89 657T68 680T19 688V708Q70 705 175 705Q279 705
334 708V688Q298 686 282 680T259 657T253 602V225Q253 120 283 71T391 21Q491 21 532 88T573 280V544Q573 602 566 630T539 670T476 688V708Q514 705 584 705Q640 705 671 708V688ZM277 925T290 914T325 879Q375 825 424 784L417 772Q369 790 332 800T287 812Q264
817 244 823T209 838Q193 847 184 860T175 889Q175 902 181 912Q188 926 201 934T231 942Q248 942 262 934Q277 925 290 914Z" />
<glyph unicode="&#xda;" glyph-name="Uacute" horiz-adv-x="689" d="M671 688Q638 683 623 671T602 633T596 556V291Q596 148 555 79Q528 35 477 11T352 -14Q236 -14 172 36Q126 73 110 129T94 288V602Q94 640 89 657T68 680T19 688V708Q70 705 175 705Q279 705
334 708V688Q298 686 282 680T259 657T253 602V225Q253 120 283 71T391 21Q491 21 532 88T573 280V544Q573 602 566 630T539 670T476 688V708Q514 705 584 705Q640 705 671 708V688ZM460 942T477 942Q493 942 506 934T527 912Q533 902 533 889Q533 874 524 861T499
838Q484 830 464 824T421 812Q414 810 377 800T291 772L284 784Q333 825 383 879Q405 902 418 913T446 934Q460 942 477 942Z" />
<glyph unicode="&#xdb;" glyph-name="Ucircumflex" horiz-adv-x="689" d="M671 688Q638 683 623 671T602 633T596 556V291Q596 148 555 79Q528 35 477 11T352 -14Q236 -14 172 36Q126 73 110 129T94 288V602Q94 640 89 657T68 680T19 688V708Q70 705 175 705Q279
705 334 708V688Q298 686 282 680T259 657T253 602V225Q253 120 283 71T391 21Q491 21 532 88T573 280V544Q573 602 566 630T539 670T476 688V708Q514 705 584 705Q640 705 671 708V688ZM398 895T452 853T571 784L566 769Q501 781 438 799T337 834Q306 817 254
799T148 769L143 784Q207 811 261 853T348 940H366Q398 895 452 853Z" />
<glyph unicode="&#xdc;" glyph-name="Udieresis" horiz-adv-x="689" d="M671 688Q638 683 623 671T602 633T596 556V291Q596 148 555 79Q528 35 477 11T352 -14Q236 -14 172 36Q126 73 110 129T94 288V602Q94 640 89 657T68 680T19 688V708Q70 705 175 705Q279
705 334 708V688Q298 686 282 680T259 657T253 602V225Q253 120 283 71T391 21Q491 21 532 88T573 280V544Q573 602 566 630T539 670T476 688V708Q514 705 584 705Q640 705 671 708V688ZM267 917T290 894T313 841Q313 811 290 789T237 766Q206 766 184 788T162
841Q162 871 184 894T237 917Q267 917 290 894ZM507 917T529 894T552 841Q552 810 530 788T477 766Q446 766 424 788T401 841Q401 871 423 894T477 917Q507 917 529 894Z" />
<glyph unicode="&#xdd;" glyph-name="Yacute" horiz-adv-x="623" d="M587 706T617 709V689Q571 670 521 573L403 339V106Q403 68 408 51T429 28T478 20V0Q424 3 324 3Q217 3 169 0V20Q202 22 217 28T238 51T244 106V275L51 632Q20 688 -7 688V709Q37 704 111 704Q204
704 299 709V688Q264 688 244 682T223 658Q223 649 230 636L382 343L460 499Q499 578 499 623Q499 657 478 672T416 689V709Q484 706 541 706Q587 706 617 709ZM433 942T450 942Q466 942 479 934T500 912Q506 902 506 889Q506 874 497 861T472 838Q457 830 437
824T394 812Q387 810 350 800T264 772L257 784Q306 825 356 879Q378 902 391 913T419 934Q433 942 450 942Z" />
<glyph unicode="&#xde;" glyph-name="Thorn" horiz-adv-x="621" d="M268 146V106Q268 68 273 51T294 28T343 20V0Q289 3 192 3Q85 3 34 0V20Q67 22 82 28T103 51T109 106V602Q109 640 104 657T83 680T34 688V708Q85 705 192 705Q289 705 343 708V688Q309 686 294
680T274 657T268 602V566Q293 567 324 567Q462 567 531 518T601 375Q601 276 533 211T302 146H268ZM268 548V166H292Q373 166 404 219T435 366Q435 458 404 503T299 548H268Z" />
<glyph unicode="&#xdf;" glyph-name="germandbls" horiz-adv-x="657" d="M431 782T486 741T541 634Q541 586 511 545T432 474T329 433Q423 420 490 384T594 296T630 180Q630 120 600 76T518 9T408 -14Q347 -14 307 11T267 89Q267 125 286 147T338 169Q369 169
388 150T408 100Q408 70 390 48T345 16Q358 3 384 3Q429 3 455 46T481 165Q481 272 433 334T313 422Q293 409 278 409Q270 409 264 413T258 425Q258 434 264 439T281 444Q296 444 314 436Q364 471 383 514T403 624Q403 767 314 767Q283 767 264 749T236 687T227
569V-11Q170 3 83 3Q61 3 19 0V21Q55 21 69 38T83 99V522Q83 653 146 717T331 782Q431 782 486 741Z" />
<glyph unicode="&#xe0;" glyph-name="agrave" horiz-adv-x="518" d="M92 -7T61 26T29 113Q29 158 52 187T109 233T195 267Q250 286 275 301T301 344V422Q301 464 282 487T221 511Q173 511 148 487Q176 477 191 457T207 410Q207 376 184 356T128 336Q93 336 74
358T55 413Q55 441 68 460T110 497Q137 513 176 522T263 531Q312 531 348 521T408 487Q430 465 437 433T445 346V74Q445 50 449 40T467 30Q482 30 503 47L513 30Q468 -7 403 -7Q348 -7 326 15T303 74Q253 -7 156 -7Q92 -7 61 26ZM272 57T301 98V303Q289 283 250
259Q211 234 191 209T171 137Q171 96 188 77T233 57Q272 57 301 98ZM149 830T169 830Q182 830 195 824T217 806Q228 793 235 778T256 731Q285 657 312 608L301 599Q255 642 195 684Q176 698 160 711T132 738Q117 758 117 778Q117 802 135 817Q149 830 169 830Z"
/>
<glyph unicode="&#xe1;" glyph-name="aacute" horiz-adv-x="518" d="M92 -7T61 26T29 113Q29 158 52 187T109 233T195 267Q250 286 275 301T301 344V422Q301 464 282 487T221 511Q173 511 148 487Q176 477 191 457T207 410Q207 376 184 356T128 336Q93 336 74
358T55 413Q55 441 68 460T110 497Q137 513 176 522T263 531Q312 531 348 521T408 487Q430 465 437 433T445 346V74Q445 50 449 40T467 30Q482 30 503 47L513 30Q468 -7 403 -7Q348 -7 326 15T303 74Q253 -7 156 -7Q92 -7 61 26ZM272 57T301 98V303Q289 283 250
259Q211 234 191 209T171 137Q171 96 188 77T233 57Q272 57 301 98ZM387 804T387 779Q387 758 372 738Q361 725 345 712T309 684Q249 642 203 599L192 608Q219 657 248 731Q261 762 268 777T287 806Q306 830 334 830Q355 830 369 817Q387 804 387 779Z" />
<glyph unicode="&#xe2;" glyph-name="acircumflex" horiz-adv-x="518" d="M92 -7T61 26T29 113Q29 158 52 187T109 233T195 267Q250 286 275 301T301 344V422Q301 464 282 487T221 511Q173 511 148 487Q176 477 191 457T207 410Q207 376 184 356T128 336Q93 336
74 358T55 413Q55 441 68 460T110 497Q137 513 176 522T263 531Q312 531 348 521T408 487Q430 465 437 433T445 346V74Q445 50 449 40T467 30Q482 30 503 47L513 30Q468 -7 403 -7Q348 -7 326 15T303 74Q253 -7 156 -7Q92 -7 61 26ZM272 57T301 98V303Q289 283
250 259Q211 234 191 209T171 137Q171 96 188 77T233 57Q272 57 301 98ZM296 764T344 711T448 624L440 610Q382 624 328 644T240 686Q213 665 170 644T80 610L72 624Q128 657 175 709T251 820H269Q296 764 344 711Z" />
<glyph unicode="&#xe3;" glyph-name="atilde" horiz-adv-x="518" d="M92 -7T61 26T29 113Q29 158 52 187T109 233T195 267Q250 286 275 301T301 344V422Q301 464 282 487T221 511Q173 511 148 487Q176 477 191 457T207 410Q207 376 184 356T128 336Q93 336 74
358T55 413Q55 441 68 460T110 497Q137 513 176 522T263 531Q312 531 348 521T408 487Q430 465 437 433T445 346V74Q445 50 449 40T467 30Q482 30 503 47L513 30Q468 -7 403 -7Q348 -7 326 15T303 74Q253 -7 156 -7Q92 -7 61 26ZM272 57T301 98V303Q289 283 250
259Q211 234 191 209T171 137Q171 96 188 77T233 57Q272 57 301 98ZM214 786T234 777T279 750Q303 734 318 727T354 720Q399 720 431 773L445 766Q429 695 396 661T321 627Q293 627 273 636T225 663Q204 679 188 686T151 694Q107 694 74 640L60 647Q76 718 109
752T185 786Q214 786 234 777Z" />
<glyph unicode="&#xe4;" glyph-name="adieresis" horiz-adv-x="518" d="M92 -7T61 26T29 113Q29 158 52 187T109 233T195 267Q250 286 275 301T301 344V422Q301 464 282 487T221 511Q173 511 148 487Q176 477 191 457T207 410Q207 376 184 356T128 336Q93 336
74 358T55 413Q55 441 68 460T110 497Q137 513 176 522T263 531Q312 531 348 521T408 487Q430 465 437 433T445 346V74Q445 50 449 40T467 30Q482 30 503 47L513 30Q468 -7 403 -7Q348 -7 326 15T303 74Q253 -7 156 -7Q92 -7 61 26ZM272 57T301 98V303Q289 283
250 259Q211 234 191 209T171 137Q171 96 188 77T233 57Q272 57 301 98ZM177 760T200 738T223 685Q223 654 200 632T147 610Q116 610 94 632T72 685Q72 715 94 737T147 760Q177 760 200 738ZM405 760T427 738T450 685Q450 654 428 632T375 610Q343 610 321 632T299
685Q299 715 321 737T375 760Q405 760 427 738Z" />
<glyph unicode="&#xe5;" glyph-name="aring" horiz-adv-x="518" d="M92 -7T61 26T29 113Q29 158 52 187T109 233T195 267Q250 286 275 301T301 344V422Q301 464 282 487T221 511Q173 511 148 487Q176 477 191 457T207 410Q207 376 184 356T128 336Q93 336 74 358T55
413Q55 441 68 460T110 497Q137 513 176 522T263 531Q312 531 348 521T408 487Q430 465 437 433T445 346V74Q445 50 449 40T467 30Q482 30 503 47L513 30Q468 -7 403 -7Q348 -7 326 15T303 74Q253 -7 156 -7Q92 -7 61 26ZM272 57T301 98V303Q289 283 250 259Q211
234 191 209T171 137Q171 96 188 77T233 57Q272 57 301 98ZM305 797T337 771T369 700Q369 656 337 629T260 602Q215 602 184 629T152 700Q152 744 183 770T260 797Q305 797 337 771ZM229 776T205 755T180 699Q180 663 204 643T260 623Q292 623 316 643T341 699Q341
734 317 755T260 776Q229 776 205 755Z" />
<glyph unicode="&#xe6;" glyph-name="ae" horiz-adv-x="741" d="M639 68T684 148L702 142Q683 77 636 32T516 -14Q450 -14 401 15T326 106Q291 43 249 18T156 -7Q92 -7 61 26T29 113Q29 158 52 187T109 233T195 267Q250 286 275 301T301 344V422Q301 464 282 487T221
511Q173 511 148 487Q176 477 191 457T207 410Q207 376 184 356T128 336Q93 336 74 358T55 413Q55 441 68 460T110 497Q137 513 176 522T263 531Q358 531 401 493Q454 531 530 531Q708 531 708 309H448Q447 294 447 262Q447 196 464 152T508 88T566 68Q639 68 684
148ZM492 510T472 466T446 328H582Q584 406 569 458T524 510Q492 510 472 466ZM318 130Q301 183 301 253Q301 281 304 305Q295 292 283 283T251 260Q212 234 192 209T171 137Q171 96 187 77T232 57Q257 57 278 73T318 126V130Z" />
<glyph unicode="&#xe7;" glyph-name="ccedilla" horiz-adv-x="496" d="M321 531T354 523T409 501Q435 485 449 461T464 407Q464 372 442 350T385 327Q350 327 329 347T308 401Q308 431 327 453T374 483Q366 494 350 500T314 507Q254 507 221 442T187 270Q187 163
225 116T320 69Q354 69 388 87T451 150L468 144Q448 79 398 33T269 -14Q166 -14 101 54T36 256Q36 344 68 406T156 499T284 531Q321 531 354 523ZM241 -65Q272 -53 312 -53Q345 -53 363 -67T381 -107Q381 -147 341 -167T241 -188Q188 -188 154 -176L159 -158Q191
-162 203 -162Q232 -162 254 -152T276 -121Q276 -95 243 -95Q220 -95 203 -102L235 2H262L241 -65Z" />
<glyph unicode="&#xe8;" glyph-name="egrave" horiz-adv-x="504" d="M400 68T450 148L468 142Q448 77 397 32T268 -14Q162 -14 100 53T37 253Q37 388 104 459T282 531Q470 531 470 309H189Q188 294 188 262Q188 196 206 152T254 88T318 68Q400 68 450 148ZM240
510T217 466T187 328H344Q346 407 329 458T276 510Q240 510 217 466ZM165 830T185 830Q198 830 211 824T233 806Q244 793 251 778T272 731Q301 657 328 608L317 599Q271 642 211 684Q192 698 176 711T148 738Q133 758 133 778Q133 802 151 817Q165 830 185 830Z"
/>
<glyph unicode="&#xe9;" glyph-name="eacute" horiz-adv-x="504" d="M400 68T450 148L468 142Q448 77 397 32T268 -14Q162 -14 100 53T37 253Q37 388 104 459T282 531Q470 531 470 309H189Q188 294 188 262Q188 196 206 152T254 88T318 68Q400 68 450 148ZM240
510T217 466T187 328H344Q346 407 329 458T276 510Q240 510 217 466ZM403 804T403 779Q403 758 388 738Q377 725 361 712T325 684Q265 642 219 599L208 608Q235 657 264 731Q277 762 284 777T303 806Q322 830 350 830Q371 830 385 817Q403 804 403 779Z" />
<glyph unicode="&#xea;" glyph-name="ecircumflex" horiz-adv-x="504" d="M400 68T450 148L468 142Q448 77 397 32T268 -14Q162 -14 100 53T37 253Q37 388 104 459T282 531Q470 531 470 309H189Q188 294 188 262Q188 196 206 152T254 88T318 68Q400 68 450 148ZM240
510T217 466T187 328H344Q346 407 329 458T276 510Q240 510 217 466ZM312 764T360 711T464 624L456 610Q398 624 344 644T256 686Q229 665 186 644T96 610L88 624Q144 657 191 709T267 820H285Q312 764 360 711Z" />
<glyph unicode="&#xeb;" glyph-name="edieresis" horiz-adv-x="504" d="M400 68T450 148L468 142Q448 77 397 32T268 -14Q162 -14 100 53T37 253Q37 388 104 459T282 531Q470 531 470 309H189Q188 294 188 262Q188 196 206 152T254 88T318 68Q400 68 450 148ZM240
510T217 466T187 328H344Q346 407 329 458T276 510Q240 510 217 466ZM193 760T216 738T239 685Q239 654 216 632T163 610Q132 610 110 632T88 685Q88 715 110 737T163 760Q193 760 216 738ZM421 760T443 738T466 685Q466 654 444 632T391 610Q359 610 337 632T315
685Q315 715 337 737T391 760Q421 760 443 738Z" />
<glyph unicode="&#xec;" glyph-name="igrave" horiz-adv-x="315" d="M232 93Q232 52 246 37T296 21V0Q196 4 163 4Q132 4 24 0V21Q60 21 74 36T88 93V408Q88 454 74 475T24 496V517Q56 514 86 514Q175 514 232 528V93ZM46 830T66 830Q79 830 92 824T114 806Q125
793 132 778T153 731Q182 657 209 608L198 599Q152 642 92 684Q73 698 57 711T29 738Q14 758 14 778Q14 802 32 817Q46 830 66 830Z" />
<glyph unicode="&#xed;" glyph-name="iacute" horiz-adv-x="315" d="M232 93Q232 52 246 37T296 21V0Q196 4 163 4Q132 4 24 0V21Q60 21 74 36T88 93V408Q88 454 74 475T24 496V517Q56 514 86 514Q175 514 232 528V93ZM284 804T284 779Q284 758 269 738Q258 725
242 712T206 684Q146 642 100 599L89 608Q116 657 145 731Q158 762 165 777T184 806Q203 830 231 830Q252 830 266 817Q284 804 284 779Z" />
<glyph unicode="&#xee;" glyph-name="icircumflex" horiz-adv-x="315" d="M232 93Q232 52 246 37T296 21V0Q196 4 163 4Q132 4 24 0V21Q60 21 74 36T88 93V408Q88 454 74 475T24 496V517Q56 514 86 514Q175 514 232 528V93ZM193 764T241 711T345 624L337 610Q279
624 225 644T137 686Q110 665 67 644T-23 610L-31 624Q25 657 72 709T148 820H166Q193 764 241 711Z" />
<glyph unicode="&#xef;" glyph-name="idieresis" horiz-adv-x="315" d="M232 93Q232 52 246 37T296 21V0Q196 4 163 4Q132 4 24 0V21Q60 21 74 36T88 93V408Q88 454 74 475T24 496V517Q56 514 86 514Q175 514 232 528V93ZM74 760T97 738T120 685Q120 654 97 632T44
610Q13 610 -9 632T-31 685Q-31 715 -9 737T44 760Q74 760 97 738ZM302 760T324 738T347 685Q347 654 325 632T272 610Q240 610 218 632T196 685Q196 715 218 737T272 760Q302 760 324 738Z" />
<glyph unicode="&#xf0;" glyph-name="eth" horiz-adv-x="567" d="M419 620T472 524T525 304Q525 146 458 66T281 -15Q167 -15 103 49T38 251Q38 340 67 403T147 498T265 531Q321 531 353 503Q328 597 271 661L111 583L102 601L257 676Q205 729 129 765L137 782Q234
748 306 700L449 770L458 752L325 687Q419 620 472 524ZM323 5T350 74T377 300Q377 403 359 481Q336 508 295 508Q189 508 189 257Q189 130 214 68T279 5Q323 5 350 74Z" />
<glyph unicode="&#xf1;" glyph-name="ntilde" horiz-adv-x="614" d="M472 531T506 492Q523 473 530 443T537 362V93Q537 52 551 37T601 21V0Q501 4 469 4Q439 4 339 0V21Q369 21 381 36T393 93V404Q393 445 380 466T331 487Q290 487 261 454T232 371V93Q232 52
244 37T286 21V0Q194 4 162 4Q132 4 24 0V21Q60 21 74 36T88 93V408Q88 454 74 475T24 496V517Q56 514 86 514Q175 514 232 528V438Q277 531 396 531Q472 531 506 492ZM267 786T287 777T332 750Q356 734 371 727T407 720Q452 720 484 773L498 766Q482 695 449 661T374
627Q346 627 326 636T278 663Q257 679 241 686T204 694Q160 694 127 640L113 647Q129 718 162 752T238 786Q267 786 287 777Z" />
<glyph unicode="&#xf2;" glyph-name="ograve" horiz-adv-x="565" d="M397 531T462 466T527 258Q527 116 462 51T282 -14Q168 -14 103 51T37 258Q37 400 102 465T282 531Q397 531 462 466ZM239 511T214 449T188 258Q188 130 213 68T282 6Q326 6 351 67T376 258Q376
387 351 449T282 511Q239 511 214 449ZM173 830T193 830Q206 830 219 824T241 806Q252 793 259 778T280 731Q309 657 336 608L325 599Q279 642 219 684Q200 698 184 711T156 738Q141 758 141 778Q141 802 159 817Q173 830 193 830Z" />
<glyph unicode="&#xf3;" glyph-name="oacute" horiz-adv-x="565" d="M397 531T462 466T527 258Q527 116 462 51T282 -14Q168 -14 103 51T37 258Q37 400 102 465T282 531Q397 531 462 466ZM239 511T214 449T188 258Q188 130 213 68T282 6Q326 6 351 67T376 258Q376
387 351 449T282 511Q239 511 214 449ZM411 804T411 779Q411 758 396 738Q385 725 369 712T333 684Q273 642 227 599L216 608Q243 657 272 731Q285 762 292 777T311 806Q330 830 358 830Q379 830 393 817Q411 804 411 779Z" />
<glyph unicode="&#xf4;" glyph-name="ocircumflex" horiz-adv-x="565" d="M397 531T462 466T527 258Q527 116 462 51T282 -14Q168 -14 103 51T37 258Q37 400 102 465T282 531Q397 531 462 466ZM239 511T214 449T188 258Q188 130 213 68T282 6Q326 6 351 67T376
258Q376 387 351 449T282 511Q239 511 214 449ZM320 764T368 711T472 624L464 610Q406 624 352 644T264 686Q237 665 194 644T104 610L96 624Q152 657 199 709T275 820H293Q320 764 368 711Z" />
<glyph unicode="&#xf5;" glyph-name="otilde" horiz-adv-x="565" d="M397 531T462 466T527 258Q527 116 462 51T282 -14Q168 -14 103 51T37 258Q37 400 102 465T282 531Q397 531 462 466ZM239 511T214 449T188 258Q188 130 213 68T282 6Q326 6 351 67T376 258Q376
387 351 449T282 511Q239 511 214 449ZM238 786T258 777T303 750Q327 734 342 727T378 720Q423 720 455 773L469 766Q453 695 420 661T345 627Q317 627 297 636T249 663Q228 679 212 686T175 694Q131 694 98 640L84 647Q100 718 133 752T209 786Q238 786 258 777Z"
/>
<glyph unicode="&#xf6;" glyph-name="odieresis" horiz-adv-x="565" d="M397 531T462 466T527 258Q527 116 462 51T282 -14Q168 -14 103 51T37 258Q37 400 102 465T282 531Q397 531 462 466ZM239 511T214 449T188 258Q188 130 213 68T282 6Q326 6 351 67T376 258Q376
387 351 449T282 511Q239 511 214 449ZM201 760T224 738T247 685Q247 654 224 632T171 610Q140 610 118 632T96 685Q96 715 118 737T171 760Q201 760 224 738ZM429 760T451 738T474 685Q474 654 452 632T399 610Q367 610 345 632T323 685Q323 715 345 737T399 760Q429
760 451 738Z" />
<glyph unicode="&#xf7;" glyph-name="divide" horiz-adv-x="633" d="M340 554T356 538T373 499Q373 476 357 460T317 444Q294 444 278 460T262 499Q262 522 278 538T317 554Q340 554 356 538ZM569 340H68V370H569V340ZM340 266T356 250T373 211Q373 188 357 172T317
155Q294 155 278 171T262 211Q262 234 278 250T317 266Q340 266 356 250Z" />
<glyph unicode="&#xf8;" glyph-name="oslash" horiz-adv-x="565" d="M527 412T527 258Q527 116 462 51T282 -14Q194 -14 137 23L71 -73L51 -60L118 37Q37 104 37 258Q37 400 102 465T282 531Q371 531 427 494L494 590L513 577L446 480Q527 412 527 258ZM239 511T214
449T188 258Q188 189 196 136L361 416Q349 464 329 487T282 511Q239 511 214 449ZM326 6T351 67T376 258Q376 328 368 382L203 100Q228 6 282 6Q326 6 351 67Z" />
<glyph unicode="&#xf9;" glyph-name="ugrave" horiz-adv-x="606" d="M522 109Q522 63 536 42T586 21V0Q555 3 524 3Q437 3 378 -11V79Q332 -14 217 -14Q142 -14 108 25Q92 44 85 74T77 155V408Q77 454 63 475T13 496V517Q44 514 75 514Q162 514 221 528V114Q221
72 233 51T281 30Q321 30 349 63T378 146V408Q378 454 364 475T314 496V517Q346 514 376 514Q463 514 522 528V109ZM178 830T198 830Q211 830 224 824T246 806Q257 793 264 778T285 731Q314 657 341 608L330 599Q284 642 224 684Q205 698 189 711T161 738Q146 758
146 778Q146 802 164 817Q178 830 198 830Z" />
<glyph unicode="&#xfa;" glyph-name="uacute" horiz-adv-x="606" d="M522 109Q522 63 536 42T586 21V0Q555 3 524 3Q437 3 378 -11V79Q332 -14 217 -14Q142 -14 108 25Q92 44 85 74T77 155V408Q77 454 63 475T13 496V517Q44 514 75 514Q162 514 221 528V114Q221
72 233 51T281 30Q321 30 349 63T378 146V408Q378 454 364 475T314 496V517Q346 514 376 514Q463 514 522 528V109ZM416 804T416 779Q416 758 401 738Q390 725 374 712T338 684Q278 642 232 599L221 608Q248 657 277 731Q290 762 297 777T316 806Q335 830 363 830Q384
830 398 817Q416 804 416 779Z" />
<glyph unicode="&#xfb;" glyph-name="ucircumflex" horiz-adv-x="606" d="M522 109Q522 63 536 42T586 21V0Q555 3 524 3Q437 3 378 -11V79Q332 -14 217 -14Q142 -14 108 25Q92 44 85 74T77 155V408Q77 454 63 475T13 496V517Q44 514 75 514Q162 514 221 528V114Q221
72 233 51T281 30Q321 30 349 63T378 146V408Q378 454 364 475T314 496V517Q346 514 376 514Q463 514 522 528V109ZM325 764T373 711T477 624L469 610Q411 624 357 644T269 686Q242 665 199 644T109 610L101 624Q157 657 204 709T280 820H298Q325 764 373 711Z"
/>
<glyph unicode="&#xfc;" glyph-name="udieresis" horiz-adv-x="606" d="M522 109Q522 63 536 42T586 21V0Q555 3 524 3Q437 3 378 -11V79Q332 -14 217 -14Q142 -14 108 25Q92 44 85 74T77 155V408Q77 454 63 475T13 496V517Q44 514 75 514Q162 514 221 528V114Q221
72 233 51T281 30Q321 30 349 63T378 146V408Q378 454 364 475T314 496V517Q346 514 376 514Q463 514 522 528V109ZM206 760T229 738T252 685Q252 654 229 632T176 610Q145 610 123 632T101 685Q101 715 123 737T176 760Q206 760 229 738ZM434 760T456 738T479
685Q479 654 457 632T404 610Q372 610 350 632T328 685Q328 715 350 737T404 760Q434 760 456 738Z" />
<glyph unicode="&#xfd;" glyph-name="yacute" horiz-adv-x="519" d="M486 514T513 517V497Q492 491 476 472T444 411L265 -92Q245 -144 221 -163Q192 -188 134 -188Q92 -188 59 -168T25 -108Q25 -77 47 -59T105 -40Q139 -40 159 -56T180 -103Q180 -124 167 -141T130
-168Q137 -169 153 -169Q215 -169 244 -90L260 -42L48 440Q32 474 17 485T-14 496V517Q52 511 123 511Q182 511 262 517V496Q230 496 215 492T199 468Q199 457 206 440L328 145L397 337Q413 384 413 417Q413 490 339 497V517Q386 514 436 514Q486 514 513 517ZM385
804T385 779Q385 758 370 738Q359 725 343 712T307 684Q247 642 201 599L190 608Q217 657 246 731Q259 762 266 777T285 806Q304 830 332 830Q353 830 367 817Q385 804 385 779Z" />
<glyph unicode="&#xfe;" glyph-name="thorn" horiz-adv-x="584" d="M447 531T496 467T546 282Q546 139 484 63T315 -14Q250 -14 212 19V-82Q212 -126 234 -143T302 -160V-181L275 -180Q167 -177 134 -177Q108 -177 8 -181V-160Q42 -160 55 -146T68 -92V662Q68
708 54 729T4 750V771Q36 768 66 768Q155 768 212 782V434Q233 481 273 506T367 531Q447 531 496 467ZM339 13T367 77T395 262Q395 384 373 436T309 488Q275 488 248 465T212 400V41Q234 13 276 13Q339 13 367 77Z" />
<glyph unicode="&#xff;" glyph-name="ydieresis" horiz-adv-x="519" d="M486 514T513 517V497Q492 491 476 472T444 411L265 -92Q245 -144 221 -163Q192 -188 134 -188Q92 -188 59 -168T25 -108Q25 -77 47 -59T105 -40Q139 -40 159 -56T180 -103Q180 -124 167
-141T130 -168Q137 -169 153 -169Q215 -169 244 -90L260 -42L48 440Q32 474 17 485T-14 496V517Q52 511 123 511Q182 511 262 517V496Q230 496 215 492T199 468Q199 457 206 440L328 145L397 337Q413 384 413 417Q413 490 339 497V517Q386 514 436 514Q486 514
513 517ZM175 760T198 738T221 685Q221 654 198 632T145 610Q114 610 92 632T70 685Q70 715 92 737T145 760Q175 760 198 738ZM403 760T425 738T448 685Q448 654 426 632T373 610Q341 610 319 632T297 685Q297 715 319 737T373 760Q403 760 425 738Z" />
<glyph unicode="&#x2013;" glyph-name="endash" horiz-adv-x="602" d="M546 221H56V320H546V221Z" />
<glyph unicode="&#x2014;" glyph-name="emdash" horiz-adv-x="895" d="M839 221H56V320H839V221Z" />
<glyph unicode="&#x2018;" glyph-name="quoteleft" horiz-adv-x="258" d="M88 449T66 484Q56 499 50 521T44 567Q44 619 70 661T149 727L158 709Q129 697 108 672T82 621Q79 609 79 598Q79 588 82 579Q104 603 140 603Q175 603 197 583T219 526Q219 492 196 471T137
449Q88 449 66 484Z" />
<glyph unicode="&#x2019;" glyph-name="quoteright" horiz-adv-x="253" d="M168 722T190 687Q200 672 206 650T212 604Q212 552 186 510T107 444L98 462Q127 474 148 499T174 550Q177 562 177 573Q177 583 174 592Q152 568 116 568Q81 568 59 588T37 645Q37 679
60 700T119 722Q168 722 190 687Z" />
<glyph unicode="&#x201a;" glyph-name="quotesinglbase" horiz-adv-x="271" d="M180 140T202 105Q212 90 218 68T224 22Q224 -30 198 -72T119 -138L110 -120Q139 -108 160 -83T186 -32Q189 -20 189 -9Q189 1 186 10Q164 -14 128 -14Q93 -14 71 6T49 63Q49 97 72
118T131 140Q180 140 202 105Z" />
<glyph unicode="&#x201c;" glyph-name="quotedblleft" horiz-adv-x="464" d="M294 449T272 484Q262 499 256 521T250 567Q250 619 276 661T355 727L364 709Q335 697 314 672T288 621Q285 609 285 598Q285 588 288 579Q310 603 346 603Q381 603 403 583T425 526Q425
492 402 471T343 449Q294 449 272 484ZM88 449T66 484Q56 499 50 521T44 567Q44 619 70 661T149 727L158 709Q129 697 108 672T82 621Q79 609 79 598Q79 588 82 579Q104 603 140 603Q175 603 197 583T219 526Q219 492 196 471T137 449Q88 449 66 484Z" />
<glyph unicode="&#x201d;" glyph-name="quotedblright" horiz-adv-x="459" d="M168 722T190 687Q200 672 206 650T212 604Q212 552 186 510T107 444L98 462Q127 474 148 499T174 550Q177 562 177 573Q177 583 174 592Q152 568 116 568Q81 568 59 588T37 645Q37
679 60 700T119 722Q168 722 190 687ZM374 722T396 687Q406 672 412 650T418 604Q418 552 392 510T313 444L304 462Q333 474 354 499T380 550Q383 562 383 573Q383 583 380 592Q358 568 322 568Q287 568 265 588T243 645Q243 679 266 700T325 722Q374 722 396 687Z"
/>
<glyph unicode="&#x201e;" glyph-name="quotedblbase" horiz-adv-x="477" d="M180 140T202 105Q212 90 218 68T224 22Q224 -30 198 -72T119 -138L110 -120Q139 -108 160 -83T186 -32Q189 -20 189 -9Q189 1 186 10Q164 -14 128 -14Q93 -14 71 6T49 63Q49 97 72
118T131 140Q180 140 202 105ZM386 140T408 105Q418 90 424 68T430 22Q430 -30 404 -72T325 -138L316 -120Q345 -108 366 -83T392 -32Q395 -20 395 -9Q395 1 392 10Q370 -14 334 -14Q299 -14 277 6T255 63Q255 97 278 118T337 140Q386 140 408 105Z" />
<glyph unicode="&#x2022;" glyph-name="bullet" horiz-adv-x="485" d="M288 438T327 415T388 354T411 269Q411 223 389 185T327 124T242 101Q196 101 158 123T97 184T74 269Q74 315 96 353T157 415T242 438Q288 438 327 415Z" />
<glyph unicode="&#x2039;" glyph-name="guilsinglleft" horiz-adv-x="362" d="M317 527Q294 450 255 376T175 260Q215 219 254 144T317 -10L302 -15Q240 71 174 136T26 252V265Q106 315 172 381T302 533L317 527Z" />
<glyph unicode="&#x203a;" glyph-name="guilsinglright" horiz-adv-x="362" d="M124 447T190 381T336 265V252Q256 202 190 136T61 -15L46 -10Q69 68 108 141T187 257Q147 298 109 373T46 527L61 533Q124 447 190 381Z" />
</font>
</defs>
</svg>
